<svg width="335" height="150" viewBox="0 0 335 150" fill="none" xmlns="http://www.w3.org/2000/svg">
<g clip-path="url(#clip0_19_975)">
<rect width="335" height="150" fill="#DBE3F5"/>
<rect width="335" height="150" fill="#DBE3F5"/>
<path d="M101.368 52V38.668H96.264V36.336H109.332V38.668H104.228V52H101.368ZM113.667 52.154C112.699 52.154 111.841 51.9267 111.093 51.472C110.345 51.0027 109.766 50.3427 109.355 49.492C108.959 48.6267 108.761 47.6147 108.761 46.456C108.761 45.2827 108.967 44.2633 109.377 43.398C109.788 42.518 110.36 41.836 111.093 41.352C111.841 40.8533 112.699 40.604 113.667 40.604C114.606 40.604 115.42 40.8387 116.109 41.308C116.813 41.7627 117.29 42.4007 117.539 43.222L117.275 43.376V40.89H119.981V52H117.275V49.492L117.539 49.58C117.29 50.4013 116.813 51.0393 116.109 51.494C115.42 51.934 114.606 52.154 113.667 52.154ZM114.415 50.042C115.325 50.042 116.029 49.7267 116.527 49.096C117.026 48.4653 117.275 47.5707 117.275 46.412C117.275 45.224 117.026 44.322 116.527 43.706C116.029 43.0753 115.325 42.76 114.415 42.76C113.491 42.76 112.773 43.0827 112.259 43.728C111.746 44.3733 111.489 45.2827 111.489 46.456C111.489 47.6 111.746 48.4873 112.259 49.118C112.773 49.734 113.491 50.042 114.415 50.042ZM130.566 52L125.22 46.346L130.28 40.912H133.624L127.882 46.984L128.014 45.598L133.998 52H130.566ZM122.954 52V35.808H125.704V52H122.954ZM144.491 50.768C143.963 51.208 143.31 51.5527 142.533 51.802C141.77 52.0367 140.993 52.154 140.201 52.154C138.998 52.154 137.957 51.9267 137.077 51.472C136.211 51.0173 135.544 50.3573 135.075 49.492C134.605 48.6267 134.371 47.6 134.371 46.412C134.371 45.268 134.598 44.2633 135.053 43.398C135.507 42.518 136.138 41.836 136.945 41.352C137.751 40.8533 138.683 40.604 139.739 40.604C140.765 40.604 141.645 40.8313 142.379 41.286C143.112 41.726 143.677 42.364 144.073 43.2C144.483 44.036 144.689 45.026 144.689 46.17V46.588H136.791L136.813 45.114H143.061L142.313 45.862C142.327 44.7913 142.115 43.9773 141.675 43.42C141.249 42.8627 140.626 42.584 139.805 42.584C138.925 42.584 138.243 42.8993 137.759 43.53C137.275 44.146 137.033 45.0333 137.033 46.192C137.033 47.512 137.304 48.4873 137.847 49.118C138.389 49.734 139.211 50.042 140.311 50.042C140.912 50.042 141.499 49.9467 142.071 49.756C142.657 49.5507 143.2 49.2573 143.699 48.876L144.491 50.768ZM158.159 52.154C157.191 52.154 156.223 51.9927 155.255 51.67C154.301 51.3473 153.517 50.9073 152.901 50.35L153.847 48.282C154.551 48.81 155.262 49.2133 155.981 49.492C156.714 49.7707 157.455 49.91 158.203 49.91C159.171 49.91 159.919 49.668 160.447 49.184C160.975 48.6853 161.239 47.9813 161.239 47.072C161.239 46.4853 161.114 45.9793 160.865 45.554C160.63 45.1287 160.293 44.7987 159.853 44.564C159.413 44.3293 158.892 44.212 158.291 44.212C157.689 44.212 157.117 44.3293 156.575 44.564C156.032 44.784 155.541 45.114 155.101 45.554H153.407V36.336H163.219V38.558H156.179V43.728L155.321 43.596C155.761 43.068 156.289 42.6647 156.905 42.386C157.521 42.1073 158.217 41.968 158.995 41.968C159.977 41.968 160.835 42.1807 161.569 42.606C162.317 43.0313 162.896 43.618 163.307 44.366C163.732 45.114 163.945 45.9867 163.945 46.984C163.945 48.0107 163.703 48.92 163.219 49.712C162.749 50.4893 162.082 51.0907 161.217 51.516C160.366 51.9413 159.347 52.154 158.159 52.154ZM171.35 52.176C169.502 52.176 168.087 51.494 167.104 50.13C166.121 48.766 165.63 46.7787 165.63 44.168C165.63 41.5573 166.114 39.57 167.082 38.206C168.065 36.842 169.487 36.16 171.35 36.16C173.213 36.16 174.628 36.842 175.596 38.206C176.579 39.57 177.07 41.55 177.07 44.146C177.07 46.7713 176.579 48.766 175.596 50.13C174.613 51.494 173.198 52.176 171.35 52.176ZM171.35 49.976C172.362 49.976 173.103 49.514 173.572 48.59C174.041 47.6513 174.276 46.17 174.276 44.146C174.276 42.1367 174.041 40.6773 173.572 39.768C173.103 38.8587 172.362 38.404 171.35 38.404C170.338 38.404 169.597 38.866 169.128 39.79C168.659 40.6993 168.424 42.1513 168.424 44.146C168.424 46.17 168.659 47.6513 169.128 48.59C169.597 49.514 170.338 49.976 171.35 49.976ZM182.121 45.818C180.992 45.818 180.097 45.422 179.437 44.63C178.777 43.8233 178.447 42.6207 178.447 41.022C178.447 39.4233 178.777 38.228 179.437 37.436C180.097 36.644 180.992 36.248 182.121 36.248C183.251 36.248 184.145 36.644 184.805 37.436C185.465 38.228 185.795 39.4233 185.795 41.022C185.795 42.6207 185.465 43.8233 184.805 44.63C184.16 45.422 183.265 45.818 182.121 45.818ZM182.121 44.036C182.576 44.036 182.913 43.8013 183.133 43.332C183.353 42.8627 183.463 42.0927 183.463 41.022C183.463 39.966 183.346 39.2033 183.111 38.734C182.891 38.2647 182.561 38.03 182.121 38.03C181.667 38.03 181.329 38.2647 181.109 38.734C180.889 39.2033 180.779 39.966 180.779 41.022C180.779 42.0927 180.889 42.8627 181.109 43.332C181.329 43.8013 181.667 44.036 182.121 44.036ZM181.747 52L190.833 36.336H193.473L184.409 52H181.747ZM193.099 52.088C191.97 52.088 191.075 51.692 190.415 50.9C189.755 50.0933 189.425 48.8907 189.425 47.292C189.425 45.6933 189.755 44.498 190.415 43.706C191.075 42.914 191.97 42.518 193.099 42.518C194.229 42.518 195.123 42.914 195.783 43.706C196.443 44.498 196.773 45.6933 196.773 47.292C196.773 48.8907 196.443 50.0933 195.783 50.9C195.138 51.692 194.243 52.088 193.099 52.088ZM193.099 50.306C193.554 50.306 193.891 50.0713 194.111 49.602C194.331 49.1327 194.441 48.3627 194.441 47.292C194.441 46.236 194.324 45.4733 194.089 45.004C193.869 44.5347 193.539 44.3 193.099 44.3C192.645 44.3 192.307 44.5347 192.087 45.004C191.867 45.4733 191.757 46.236 191.757 47.292C191.757 48.3627 191.867 49.1327 192.087 49.602C192.307 50.0713 192.645 50.306 193.099 50.306ZM209.848 52.154C208.69 52.154 207.685 51.9193 206.834 51.45C205.998 50.9807 205.353 50.3207 204.898 49.47C204.444 48.6047 204.216 47.578 204.216 46.39C204.216 45.2167 204.444 44.1973 204.898 43.332C205.353 42.452 205.998 41.7773 206.834 41.308C207.685 40.8387 208.69 40.604 209.848 40.604C210.978 40.604 211.96 40.8387 212.796 41.308C213.647 41.7773 214.3 42.452 214.754 43.332C215.224 44.1973 215.458 45.2167 215.458 46.39C215.458 47.578 215.224 48.6047 214.754 49.47C214.3 50.3207 213.647 50.9807 212.796 51.45C211.96 51.9193 210.978 52.154 209.848 52.154ZM209.848 50.042C210.758 50.042 211.454 49.7413 211.938 49.14C212.437 48.524 212.686 47.6073 212.686 46.39C212.686 45.1873 212.437 44.2853 211.938 43.684C211.454 43.068 210.758 42.76 209.848 42.76C208.924 42.76 208.206 43.068 207.692 43.684C207.194 44.2853 206.944 45.1873 206.944 46.39C206.944 47.6073 207.194 48.524 207.692 49.14C208.191 49.7413 208.91 50.042 209.848 50.042ZM216.38 42.958V40.89H223.706V42.958H216.38ZM224.102 38.162C223.691 38.0447 223.324 37.986 223.002 37.986C222.679 37.986 222.378 38.052 222.1 38.184C221.836 38.3013 221.623 38.5067 221.462 38.8C221.315 39.0787 221.242 39.46 221.242 39.944V52H218.492V39.812C218.492 38.492 218.822 37.48 219.482 36.776C220.156 36.072 221.117 35.72 222.364 35.72C222.672 35.72 222.972 35.7347 223.266 35.764C223.559 35.7933 223.838 35.8593 224.102 35.962V38.162ZM224.264 42.958V40.89H231.59V42.958H224.264ZM231.986 38.162C231.576 38.0447 231.209 37.986 230.886 37.986C230.564 37.986 230.263 38.052 229.984 38.184C229.72 38.3013 229.508 38.5067 229.346 38.8C229.2 39.0787 229.126 39.46 229.126 39.944V52H226.376V39.812C226.376 38.492 226.706 37.48 227.366 36.776C228.041 36.072 229.002 35.72 230.248 35.72C230.556 35.72 230.857 35.7347 231.15 35.764C231.444 35.7933 231.722 35.8593 231.986 35.962V38.162ZM234.619 47.314L233.761 36.336H237.171L236.291 47.314H234.619ZM233.915 48.92H237.017V52H233.915V48.92Z" fill="white"/>
<rect x="92" y="70" width="150" height="50" rx="25" fill="white"/>
<path d="M131.347 100.126C130.553 100.126 129.835 100.028 129.191 99.832C128.547 99.6267 127.987 99.3373 127.511 98.964L128.001 97.816C128.318 98.0587 128.645 98.2593 128.981 98.418C129.326 98.5767 129.69 98.698 130.073 98.782C130.465 98.8567 130.889 98.894 131.347 98.894C132.131 98.894 132.705 98.754 133.069 98.474C133.442 98.194 133.629 97.8253 133.629 97.368C133.629 96.976 133.498 96.6727 133.237 96.458C132.985 96.2433 132.537 96.0707 131.893 95.94L130.367 95.632C129.461 95.4453 128.785 95.142 128.337 94.722C127.898 94.2927 127.679 93.7093 127.679 92.972C127.679 92.3747 127.837 91.852 128.155 91.404C128.472 90.956 128.911 90.6107 129.471 90.368C130.04 90.1253 130.703 90.004 131.459 90.004C132.159 90.004 132.803 90.1067 133.391 90.312C133.979 90.508 134.473 90.802 134.875 91.194L134.399 92.3C133.979 91.936 133.531 91.67 133.055 91.502C132.579 91.3247 132.037 91.236 131.431 91.236C130.712 91.236 130.147 91.3853 129.737 91.684C129.335 91.9827 129.135 92.3887 129.135 92.902C129.135 93.3127 129.261 93.6347 129.513 93.868C129.774 94.1013 130.203 94.2787 130.801 94.4L132.327 94.694C133.269 94.89 133.965 95.1933 134.413 95.604C134.861 96.0053 135.085 96.5607 135.085 97.27C135.085 97.8393 134.931 98.3387 134.623 98.768C134.324 99.1973 133.895 99.5333 133.335 99.776C132.775 100.009 132.112 100.126 131.347 100.126ZM136.874 100V90.13H138.33V94.386H143.874V90.13H145.33V100H143.874V95.604H138.33V100H136.874ZM147.311 95.058C147.311 94.022 147.493 93.126 147.857 92.37C148.221 91.614 148.749 91.0307 149.439 90.62C150.139 90.2093 150.97 90.004 151.931 90.004C152.883 90.004 153.705 90.2093 154.395 90.62C155.086 91.0307 155.618 91.614 155.991 92.37C156.374 93.126 156.565 94.0173 156.565 95.044C156.565 96.08 156.374 96.9807 155.991 97.746C155.618 98.502 155.081 99.09 154.381 99.51C153.691 99.9207 152.874 100.126 151.931 100.126C150.97 100.126 150.144 99.9207 149.453 99.51C148.763 99.09 148.231 98.502 147.857 97.746C147.493 96.9807 147.311 96.0847 147.311 95.058ZM148.837 95.058C148.837 96.2527 149.099 97.186 149.621 97.858C150.144 98.53 150.914 98.866 151.931 98.866C152.921 98.866 153.686 98.5347 154.227 97.872C154.769 97.2 155.039 96.262 155.039 95.058C155.039 93.854 154.769 92.9207 154.227 92.258C153.695 91.5953 152.93 91.264 151.931 91.264C150.914 91.264 150.144 91.5953 149.621 92.258C149.099 92.9207 148.837 93.854 148.837 95.058ZM158.558 100V90.13H162.744C163.798 90.13 164.606 90.3867 165.166 90.9C165.735 91.404 166.02 92.104 166.02 93C166.02 93.896 165.735 94.6007 165.166 95.114C164.606 95.6273 163.798 95.884 162.744 95.884H160.014V100H158.558ZM160.014 94.722H162.59C163.252 94.722 163.752 94.5727 164.088 94.274C164.424 93.9753 164.592 93.5507 164.592 93C164.592 92.4587 164.424 92.0387 164.088 91.74C163.752 91.4413 163.252 91.292 162.59 91.292H160.014V94.722ZM171.505 100V90.13H172.625L178.687 98.082H178.337V90.13H179.695V100H178.589L172.541 92.048H172.863V100H171.505ZM181.669 95.058C181.669 94.022 181.851 93.126 182.215 92.37C182.579 91.614 183.106 91.0307 183.797 90.62C184.497 90.2093 185.327 90.004 186.289 90.004C187.241 90.004 188.062 90.2093 188.753 90.62C189.443 91.0307 189.975 91.614 190.349 92.37C190.731 93.126 190.923 94.0173 190.923 95.044C190.923 96.08 190.731 96.9807 190.349 97.746C189.975 98.502 189.439 99.09 188.739 99.51C188.048 99.9207 187.231 100.126 186.289 100.126C185.327 100.126 184.501 99.9207 183.811 99.51C183.12 99.09 182.588 98.502 182.215 97.746C181.851 96.9807 181.669 96.0847 181.669 95.058ZM183.195 95.058C183.195 96.2527 183.456 97.186 183.979 97.858C184.501 98.53 185.271 98.866 186.289 98.866C187.278 98.866 188.043 98.5347 188.585 97.872C189.126 97.2 189.397 96.262 189.397 95.058C189.397 93.854 189.126 92.9207 188.585 92.258C188.053 91.5953 187.287 91.264 186.289 91.264C185.271 91.264 184.501 91.5953 183.979 92.258C183.456 92.9207 183.195 93.854 183.195 95.058ZM195.399 100L191.941 90.13H193.453L196.323 98.656H195.805L198.843 90.13H199.949L202.805 98.656H202.329L205.297 90.13H206.725L203.239 100H201.993L199.221 91.88H199.515L196.631 100H195.399Z" fill="#111111"/>
</g>
<defs>
<clipPath id="clip0_19_975">
<rect width="335" height="150" fill="white"/>
</clipPath>
</defs>
</svg>
