<svg width="200" height="200" viewBox="0 0 200 200" fill="none" xmlns="http://www.w3.org/2000/svg">
<ellipse cx="100" cy="100.5" rx="87" ry="87.5" fill="#DBE3F5"/>
<mask id="mask0_39_2294" style="mask-type:alpha" maskUnits="userSpaceOnUse" x="13" y="13" width="174" height="175">
<ellipse cx="100" cy="100.5" rx="87" ry="87.5" fill="#DBE3F5"/>
</mask>
<g mask="url(#mask0_39_2294)">
<path fill-rule="evenodd" clip-rule="evenodd" d="M74.5725 13.3957L82.3402 8.91098C83.4403 8.27585 84.847 8.65276 85.4821 9.75283C86.1172 10.8529 85.7403 12.2596 84.6402 12.8947L76.8725 17.3794C75.7724 18.0145 74.3658 17.6376 73.7306 16.5375C73.0955 15.4375 73.4724 14.0308 74.5725 13.3957ZM72.6914 17.1375C71.7249 15.4635 72.2985 13.3229 73.9725 12.3564L81.7402 7.87174C83.4143 6.90525 85.5548 7.47881 86.5213 9.15283C87.4878 10.8269 86.9143 12.9674 85.2402 13.9339L77.4725 18.4186C75.7985 19.3851 73.6579 18.8116 72.6914 17.1375ZM65.0462 18.8957L34.7353 36.3957C33.6353 37.0308 33.2584 38.4375 33.8935 39.5375C34.5286 40.6376 35.9353 41.0145 37.0353 40.3794L67.3462 22.8794C68.4463 22.2443 68.8232 20.8376 68.1881 19.7375C67.553 18.6375 66.1463 18.2605 65.0462 18.8957ZM34.1353 35.3564C32.4613 36.3229 31.8877 38.4635 32.8542 40.1375C33.8207 41.8116 35.9613 42.3851 37.6353 41.4186L67.9462 23.9186C69.6202 22.9521 70.1938 20.8116 69.2273 19.1375C68.2608 17.4635 66.1202 16.8899 64.4462 17.8564L34.1353 35.3564ZM12.9819 72.0488L35.209 59.216C36.3091 58.5809 37.7157 58.9578 38.3509 60.0578C38.986 61.1579 38.6091 62.5646 37.509 63.1997L15.2819 76.0325C14.1818 76.6676 12.7752 76.2907 12.1401 75.1907C11.5049 74.0906 11.8818 72.6839 12.9819 72.0488ZM11.1008 75.7907C10.1343 74.1166 10.7079 71.9761 12.3819 71.0096L34.609 58.1768C36.283 57.2103 38.4236 57.7838 39.3901 59.4578C40.3566 61.1319 39.783 63.2724 38.109 64.2389L15.8819 77.0717C14.2079 78.0382 12.0673 77.4647 11.1008 75.7907ZM19.4245 79.8764L97.3668 34.8764C98.4669 34.2413 99.8736 34.6182 100.509 35.7183C101.144 36.8184 100.767 38.225 99.6668 38.8602L21.7245 83.8602C20.6245 84.4953 19.2178 84.1184 18.5827 83.0183C17.9476 81.9182 18.3245 80.5116 19.4245 79.8764ZM17.5435 83.6183C16.577 81.9443 17.1505 79.8037 18.8245 78.8372L96.7668 33.8372C98.4409 32.8707 100.581 33.4443 101.548 35.1183C102.514 36.7923 101.941 38.9329 100.267 39.8994L22.3245 84.8994C20.6505 85.8659 18.51 85.2923 17.5435 83.6183ZM8.7827 86.0206L9.89816 85.3766C10.9982 84.7415 12.4049 85.1184 13.04 86.2185C13.6751 87.3186 13.2982 88.7252 12.1982 89.3604L11.0827 90.0044C9.98263 90.6395 8.57597 90.2626 7.94084 89.1625C7.30571 88.0624 7.68263 86.6558 8.7827 86.0206ZM6.90161 89.7625C5.93511 88.0885 6.50867 85.9479 8.1827 84.9814L9.29816 84.3374C10.9722 83.3709 13.1128 83.9445 14.0793 85.6185C15.0457 87.2925 14.4722 89.4331 12.7982 90.3996L11.6827 91.0436C10.0087 92.0101 7.86811 91.4365 6.90161 89.7625ZM131.976 14.8952L106.893 29.3766C105.793 30.0118 105.416 31.4184 106.051 32.5185C106.686 33.6186 108.093 33.9955 109.193 33.3604L134.276 18.879C135.376 18.2438 135.753 16.8372 135.117 15.7371C134.482 14.637 133.076 14.2601 131.976 14.8952ZM106.293 28.3374C104.619 29.3039 104.045 31.4445 105.012 33.1185C105.978 34.7925 108.119 35.3661 109.793 34.3996L134.876 19.9182C136.55 18.9517 137.123 16.8111 136.157 15.1371C135.19 13.4631 133.05 12.8895 131.376 13.856L106.293 28.3374ZM62.9219 43.2162L44.7353 53.7162C43.6353 54.3513 43.2584 55.758 43.8935 56.858C44.5286 57.9581 45.9353 58.335 47.0353 57.6999L65.2219 47.1999C66.3219 46.5648 66.6989 45.1581 66.0637 44.058C65.4286 42.958 64.0219 42.5811 62.9219 43.2162ZM44.1353 52.677C42.4613 53.6435 41.8877 55.784 42.8542 57.458C43.8207 59.1321 45.9613 59.7056 47.6353 58.7391L65.8219 48.2391C67.4959 47.2726 68.0695 45.1321 67.103 43.458C66.1365 41.784 63.9959 41.2105 62.3219 42.177L44.1353 52.677ZM72.4482 37.716L119.158 10.7479C120.258 10.1127 121.665 10.4896 122.3 11.5897C122.935 12.6898 122.558 14.0964 121.458 14.7316L74.7482 41.6997C73.6482 42.3348 72.2415 41.9579 71.6064 40.8578C70.9712 39.7578 71.3482 38.3511 72.4482 37.716ZM70.5671 41.4578C69.6006 39.7838 70.1742 37.6433 71.8482 36.6768L118.558 9.70863C120.232 8.74214 122.373 9.31569 123.339 10.9897C124.306 12.6637 123.732 14.8043 122.058 15.7708L75.3482 42.7389C73.6742 43.7054 71.5336 43.1319 70.5671 41.4578ZM53.5917 37.0559L8.55833 63.0559C7.45826 63.6911 7.08135 65.0977 7.71648 66.1978C8.3516 67.2979 9.75826 67.6748 10.8583 67.0396L55.8917 41.0396C56.9917 40.4045 57.3686 38.9979 56.7335 37.8978C56.0984 36.7977 54.6917 36.4208 53.5917 37.0559ZM7.95833 62.0167C6.28431 62.9832 5.71075 65.1238 6.67725 66.7978C7.64374 68.4718 9.78431 69.0454 11.4583 68.0789L56.4917 42.0789C58.1657 41.1124 58.7392 38.9718 57.7727 37.2978C56.8062 35.6238 54.6657 35.0502 52.9917 36.0167L7.95833 62.0167ZM63.1182 31.5559L94.2951 13.5559C95.3951 12.9208 96.8018 13.2977 97.4369 14.3978C98.0721 15.4979 97.6951 16.9045 96.5951 17.5396L65.4182 35.5396C64.3181 36.1748 62.9114 35.7979 62.2763 34.6978C61.6412 33.5977 62.0181 32.191 63.1182 31.5559ZM61.2371 35.2978C60.2706 33.6238 60.8441 31.4832 62.5182 30.5167L93.6951 12.5167C95.3691 11.5502 97.5097 12.1238 98.4762 13.7978C99.4427 15.4718 98.8691 17.6124 97.1951 18.5789L66.0182 36.5789C64.3441 37.5454 62.2036 36.9718 61.2371 35.2978ZM108.269 5.48816L103.821 8.05592C102.721 8.69105 102.344 10.0977 102.979 11.1978C103.615 12.2979 105.021 12.6748 106.121 12.0396L110.569 9.47188C111.669 8.83675 112.046 7.43009 111.411 6.33002C110.776 5.22994 109.369 4.85303 108.269 5.48816ZM103.221 7.01669C101.547 7.98319 100.974 10.1238 101.94 11.7978C102.907 13.4718 105.047 14.0454 106.721 13.0789L111.169 10.5111C112.843 9.54461 113.416 7.40404 112.45 5.73002C111.483 4.05599 109.343 3.48243 107.669 4.44893L103.221 7.01669ZM14.8982 94.0367L62.5296 66.5367C63.6296 65.9016 65.0363 66.2785 65.6714 67.3786C66.3066 68.4786 65.9296 69.8853 64.8296 70.5204L17.1982 98.0204C16.0981 98.6555 14.6915 98.2786 14.0563 97.1786C13.4212 96.0785 13.7981 94.6718 14.8982 94.0367ZM13.0171 97.7786C12.0506 96.1045 12.6242 93.964 14.2982 92.9975L61.9296 65.4975C63.6036 64.531 65.7442 65.1045 66.7107 66.7786C67.6772 68.4526 67.1036 70.5931 65.4296 71.5596L17.7982 99.0596C16.1242 100.026 13.9836 99.4526 13.0171 97.7786ZM97.1706 46.5367L72.0559 61.0367C70.9558 61.6718 70.5789 63.0785 71.214 64.1786C71.8492 65.2786 73.2558 65.6555 74.3559 65.0204L99.4706 50.5204C100.571 49.8853 100.948 48.4786 100.312 47.3786C99.6774 46.2785 98.2707 45.9016 97.1706 46.5367ZM71.4559 59.9975C69.7819 60.964 69.2083 63.1045 70.1748 64.7786C71.1413 66.4526 73.2819 67.0261 74.9559 66.0596L100.071 51.5596C101.745 50.5931 102.318 48.4526 101.352 46.7786C100.385 45.1045 98.2447 44.531 96.5706 45.4975L71.4559 59.9975ZM106.697 41.0367L142.62 20.2967C143.72 19.6616 145.126 20.0385 145.762 21.1386C146.397 22.2386 146.02 23.6453 144.92 24.2804L108.997 45.0204C107.897 45.6555 106.49 45.2786 105.855 44.1786C105.22 43.0785 105.597 41.6718 106.697 41.0367ZM104.816 44.7786C103.849 43.1045 104.423 40.964 106.097 39.9975L142.02 19.2575C143.694 18.291 145.834 18.8645 146.801 20.5386C147.767 22.2126 147.194 24.3532 145.52 25.3197L109.597 46.0596C107.923 47.0261 105.782 46.4526 104.816 44.7786ZM122.367 78.1777L44.4245 123.178C43.3245 123.813 42.9476 125.219 43.5827 126.32C44.2178 127.42 45.6245 127.797 46.7245 127.161L124.667 82.1614C125.767 81.5263 126.144 80.1196 125.509 79.0196C124.874 77.9195 123.467 77.5426 122.367 78.1777ZM43.8245 122.138C42.1505 123.105 41.577 125.246 42.5435 126.92C43.51 128.594 45.6505 129.167 47.3245 128.201L125.267 83.2007C126.941 82.2342 127.514 80.0936 126.548 78.4196C125.581 76.7455 123.441 76.172 121.767 77.1385L43.8245 122.138ZM20.1758 137.178L34.8982 128.678C35.9983 128.043 37.4049 128.419 38.0401 129.52C38.6752 130.62 38.2983 132.026 37.1982 132.661L22.4758 141.161C21.3757 141.797 19.969 141.42 19.3339 140.32C18.6988 139.219 19.0757 137.813 20.1758 137.178ZM18.2947 140.92C17.3282 139.246 17.9017 137.105 19.5758 136.138L34.2982 127.638C35.9722 126.672 38.1128 127.246 39.0793 128.92C40.0458 130.594 39.4722 132.734 37.7982 133.701L23.0758 142.201C21.4017 143.167 19.2612 142.594 18.2947 140.92ZM176.926 46.6777L131.893 72.6777C130.793 73.3128 130.416 74.7195 131.051 75.8196C131.686 76.9196 133.093 77.2965 134.193 76.6614L179.226 50.6614C180.326 50.0263 180.703 48.6196 180.068 47.5196C179.433 46.4195 178.026 46.0426 176.926 46.6777ZM131.293 71.6385C129.619 72.605 129.045 74.7455 130.012 76.4196C130.978 78.0936 133.119 78.6671 134.793 77.7006L179.826 51.7006C181.5 50.7341 182.074 48.5936 181.107 46.9196C180.141 45.2455 178 44.672 176.326 45.6385L131.293 71.6385ZM15.1758 128.517L60.2091 102.517C61.3092 101.882 62.7158 102.259 63.3509 103.359C63.9861 104.459 63.6092 105.866 62.5091 106.501L17.4758 132.501C16.3757 133.136 14.969 132.759 14.3339 131.659C13.6988 130.559 14.0757 129.153 15.1758 128.517ZM13.2947 132.259C12.3282 130.585 12.9017 128.445 14.5758 127.478L59.6091 101.478C61.2831 100.512 63.4237 101.085 64.3902 102.759C65.3567 104.433 64.7831 106.574 63.1091 107.54L18.0758 133.54C16.4017 134.507 14.2612 133.933 13.2947 132.259ZM87.9219 86.5175L69.7353 97.0175C68.6353 97.6526 68.2583 99.0592 68.8935 100.159C69.5286 101.259 70.9353 101.636 72.0353 101.001L90.2219 90.5012C91.3219 89.866 91.6989 88.4594 91.0637 87.3593C90.4286 86.2592 89.0219 85.8823 87.9219 86.5175ZM69.1353 95.9782C67.4613 96.9447 66.8877 99.0853 67.8542 100.759C68.8207 102.433 70.9613 103.007 72.6353 102.04L90.8219 91.5404C92.4959 90.5739 93.0695 88.4333 92.103 86.7593C91.1365 85.0853 88.9959 84.5117 87.3219 85.4782L69.1353 95.9782ZM97.4482 81.0173L169.001 39.7065C170.101 39.0714 171.507 39.4483 172.142 40.5484C172.778 41.6484 172.401 43.0551 171.301 43.6902L99.7482 85.001C98.6482 85.6361 97.2415 85.2592 96.6064 84.1591C95.9712 83.059 96.3481 81.6524 97.4482 81.0173ZM95.5671 84.7591C94.6006 83.0851 95.1742 80.9445 96.8482 79.978L168.401 38.6673C170.075 37.7008 172.215 38.2743 173.182 39.9484C174.148 41.6224 173.575 43.763 171.901 44.7295L100.348 86.0402C98.6742 87.0067 96.5336 86.4331 95.5671 84.7591ZM50.2091 85.1969L10.4238 108.167C9.32374 108.802 8.94683 110.209 9.58195 111.309C10.2171 112.409 11.6237 112.786 12.7238 112.151L52.5091 89.1807C53.6091 88.5455 53.986 87.1389 53.3509 86.0388C52.7158 84.9387 51.3091 84.5618 50.2091 85.1969ZM9.82381 107.128C8.14979 108.094 7.57623 110.235 8.54272 111.909C9.50922 113.583 11.6498 114.156 13.3238 113.19L53.1091 90.2199C54.7831 89.2534 55.3566 87.1128 54.3901 85.4388C53.4236 83.7648 51.2831 83.1912 49.6091 84.1577L9.82381 107.128ZM59.7353 79.6969L90.0462 62.1969C91.1463 61.5618 92.553 61.9387 93.1881 63.0388C93.8232 64.1389 93.4463 65.5455 92.3462 66.1807L62.0353 83.6807C60.9353 84.3158 59.5286 83.9389 58.8935 82.8388C58.2583 81.7387 58.6353 80.3321 59.7353 79.6969ZM57.8542 83.4388C56.8877 81.7648 57.4613 79.6242 59.1353 78.6577L89.4462 61.1577C91.1202 60.1912 93.2608 60.7648 94.2273 62.4388C95.1938 64.1128 94.6202 66.2534 92.9462 67.2199L62.6353 84.7199C60.9613 85.6864 58.8207 85.1128 57.8542 83.4388ZM151.151 26.9181L99.5725 56.6969C98.4724 57.3321 98.0955 58.7387 98.7306 59.8388C99.3658 60.9389 100.772 61.3158 101.872 60.6807L153.451 30.9018C154.551 30.2667 154.928 28.86 154.293 27.76C153.658 26.6599 152.251 26.283 151.151 26.9181ZM98.9725 55.6577C97.2985 56.6242 96.7249 58.7648 97.6914 60.4388C98.6579 62.1128 100.798 62.6864 102.472 61.7199L154.051 31.9411C155.725 30.9745 156.299 28.834 155.332 27.16C154.366 25.4859 152.225 24.9124 150.551 25.8789L98.9725 55.6577ZM33.5583 106.357L78.5917 80.3572C79.6917 79.7221 81.0984 80.099 81.7335 81.1991C82.3686 82.2991 81.9917 83.7058 80.8917 84.3409L35.8583 110.341C34.7583 110.976 33.3516 110.599 32.7165 109.499C32.0813 108.399 32.4583 106.992 33.5583 106.357ZM31.6772 110.099C30.7107 108.425 31.2843 106.284 32.9583 105.318L77.9917 79.318C79.6657 78.3515 81.8062 78.925 82.7727 80.5991C83.7392 82.2731 83.1657 84.4136 81.4917 85.3801L36.4583 111.38C34.7843 112.347 32.6437 111.773 31.6772 110.099ZM119.295 56.8572L88.1182 74.8572C87.0181 75.4923 86.6412 76.899 87.2763 77.999C87.9114 79.0991 89.3181 79.476 90.4182 78.8409L121.595 60.8409C122.695 60.2058 123.072 58.7991 122.437 57.699C121.802 56.599 120.395 56.2221 119.295 56.8572ZM87.5182 73.818C85.8441 74.7845 85.2706 76.925 86.2371 78.599C87.2036 80.2731 89.3441 80.8466 91.0182 79.8801L122.195 61.8801C123.869 60.9136 124.443 58.7731 123.476 57.099C122.51 55.425 120.369 54.8515 118.695 55.818L87.5182 73.818ZM128.821 51.3572L160.606 33.006C161.707 32.3709 163.113 32.7478 163.748 33.8479C164.383 34.948 164.007 36.3546 162.906 36.9897L131.121 55.3409C130.021 55.976 128.615 55.5991 127.979 54.4991C127.344 53.399 127.721 51.9923 128.821 51.3572ZM126.94 55.0991C125.974 53.425 126.547 51.2845 128.221 50.318L160.006 31.9668C161.68 31.0003 163.821 31.5739 164.788 33.2479C165.754 34.9219 165.18 37.0625 163.506 38.029L131.721 56.3801C130.047 57.3466 127.907 56.7731 126.94 55.0991ZM24.0322 111.857L10.1758 119.857C9.07569 120.492 8.69878 121.899 9.33391 122.999C9.96904 124.099 11.3757 124.476 12.4758 123.841L26.3322 115.841C27.4322 115.206 27.8092 113.799 27.174 112.699C26.5389 111.599 25.1322 111.222 24.0322 111.857ZM9.57577 118.818C7.90174 119.784 7.32818 121.925 8.29468 123.599C9.26118 125.273 11.4017 125.847 13.0758 124.88L26.9322 116.88C28.6062 115.914 29.1798 113.773 28.2133 112.099C27.2468 110.425 25.1062 109.851 23.4322 110.818L9.57577 118.818ZM79.7353 114.338L127.367 86.838C128.467 86.2028 129.873 86.5798 130.509 87.6798C131.144 88.7799 130.767 90.1866 129.667 90.8217L82.0353 118.322C80.9353 118.957 79.5286 118.58 78.8935 117.48C78.2584 116.38 78.6353 114.973 79.7353 114.338ZM77.8543 118.08C76.8878 116.406 77.4613 114.265 79.1353 113.299L126.767 85.7987C128.441 84.8322 130.581 85.4058 131.548 87.0798C132.514 88.7539 131.941 90.8944 130.267 91.8609L82.6353 119.361C80.9613 120.327 78.8207 119.754 77.8543 118.08ZM176.73 58.338L151.615 72.838C150.515 73.4731 150.138 74.8798 150.774 75.9798C151.409 77.0799 152.815 77.4568 153.915 76.8217L179.03 62.3217C180.13 61.6866 180.507 60.2799 179.872 59.1798C179.237 58.0798 177.83 57.7028 176.73 58.338ZM151.015 71.7987C149.341 72.7652 148.768 74.9058 149.734 76.5798C150.701 78.2539 152.841 78.8274 154.515 77.8609L179.63 63.3609C181.304 62.3944 181.878 60.2539 180.911 58.5798C179.945 56.9058 177.804 56.3322 176.13 57.2987L151.015 71.7987ZM25.1758 145.838L70.2091 119.838C71.3092 119.203 72.7158 119.58 73.3509 120.68C73.9861 121.78 73.6092 123.187 72.5091 123.822L27.4758 149.822C26.3757 150.457 24.969 150.08 24.3339 148.98C23.6988 147.88 24.0757 146.473 25.1758 145.838ZM23.2947 149.58C22.3282 147.906 22.9017 145.765 24.5758 144.799L69.6091 118.799C71.2831 117.832 73.4237 118.406 74.3902 120.08C75.3567 121.754 74.7831 123.894 73.1091 124.861L28.0758 150.861C26.4017 151.827 24.2612 151.254 23.2947 149.58ZM147.367 121.479L69.4245 166.479C68.3245 167.114 67.9476 168.521 68.5827 169.621C69.2178 170.721 70.6245 171.098 71.7245 170.463L149.667 125.463C150.767 124.828 151.144 123.421 150.509 122.321C149.874 121.221 148.467 120.844 147.367 121.479ZM68.8245 165.44C67.1505 166.406 66.577 168.547 67.5435 170.221C68.51 171.895 70.6505 172.468 72.3245 171.502L150.267 126.502C151.941 125.535 152.514 123.395 151.548 121.721C150.581 120.047 148.441 119.473 146.767 120.44L68.8245 165.44ZM53.633 175.596L59.8981 171.979C60.9982 171.344 62.4049 171.721 63.04 172.821C63.6751 173.921 63.2982 175.328 62.1981 175.963L55.933 179.58C54.833 180.215 53.4263 179.838 52.7912 178.738C52.1561 177.638 52.533 176.231 53.633 175.596ZM51.752 179.338C50.7855 177.664 51.359 175.524 53.033 174.557L59.2981 170.94C60.9722 169.973 63.1127 170.547 64.0792 172.221C65.0457 173.895 64.4722 176.036 62.7981 177.002L56.533 180.619C54.859 181.586 52.7185 181.012 51.752 179.338ZM188.857 97.5248L156.893 115.979C155.793 116.614 155.416 118.021 156.051 119.121C156.686 120.221 158.093 120.598 159.193 119.963L191.157 101.509C192.257 100.873 192.634 99.4667 191.999 98.3667C191.364 97.2666 189.957 96.8897 188.857 97.5248ZM156.293 114.94C154.619 115.906 154.045 118.047 155.012 119.721C155.978 121.395 158.119 121.969 159.793 121.002L191.757 102.548C193.431 101.581 194.005 99.4407 193.038 97.7666C192.072 96.0926 189.931 95.5191 188.257 96.4856L156.293 114.94ZM45.8303 168.554L85.2091 145.819C86.3092 145.183 87.7158 145.56 88.351 146.66C88.9861 147.76 88.6092 149.167 87.5091 149.802L48.1303 172.538C47.0302 173.173 45.6236 172.796 44.9884 171.696C44.3533 170.596 44.7302 169.189 45.8303 168.554ZM43.9492 172.296C42.9827 170.622 43.5563 168.481 45.2303 167.515L84.6091 144.779C86.2831 143.813 88.4237 144.386 89.3902 146.06C90.3567 147.734 89.7831 149.875 88.1091 150.841L48.7303 173.577C47.0563 174.543 44.9157 173.97 43.9492 172.296ZM112.922 129.819L94.7353 140.319C93.6353 140.954 93.2583 142.361 93.8935 143.461C94.5286 144.561 95.9353 144.938 97.0353 144.302L115.222 133.802C116.322 133.167 116.699 131.761 116.064 130.661C115.429 129.561 114.022 129.184 112.922 129.819ZM94.1353 139.279C92.4613 140.246 91.8877 142.387 92.8542 144.061C93.8207 145.735 95.9613 146.308 97.6353 145.342L115.822 134.842C117.496 133.875 118.069 131.735 117.103 130.061C116.136 128.387 113.996 127.813 112.322 128.779L94.1353 139.279ZM122.448 124.319L187.35 86.8475C188.45 86.2124 189.857 86.5893 190.492 87.6894C191.127 88.7895 190.75 90.1961 189.65 90.8312L124.748 128.302C123.648 128.937 122.241 128.56 121.606 127.46C120.971 126.36 121.348 124.954 122.448 124.319ZM120.567 128.06C119.601 126.386 120.174 124.246 121.848 123.279L186.75 85.8083C188.424 84.8418 190.564 85.4154 191.531 87.0894C192.497 88.7634 191.924 90.904 190.25 91.8705L125.348 129.341C123.674 130.308 121.534 129.734 120.567 128.06ZM75.2091 128.498L30.1758 154.498C29.0757 155.133 28.6988 156.54 29.3339 157.64C29.969 158.74 31.3757 159.117 32.4758 158.482L77.5091 132.482C78.6092 131.847 78.9861 130.44 78.3509 129.34C77.7158 128.24 76.3092 127.863 75.2091 128.498ZM29.5758 153.459C27.9017 154.425 27.3282 156.566 28.2947 158.24C29.2612 159.914 31.4017 160.488 33.0758 159.521L78.1091 133.521C79.7831 132.555 80.3567 130.414 79.3902 128.74C78.4237 127.066 76.2831 126.492 74.6091 127.459L29.5758 153.459ZM84.7353 122.998L115.046 105.498C116.146 104.863 117.553 105.24 118.188 106.34C118.823 107.44 118.446 108.847 117.346 109.482L87.0353 126.982C85.9353 127.617 84.5286 127.24 83.8935 126.14C83.2583 125.04 83.6353 123.633 84.7353 122.998ZM82.8542 126.74C81.8877 125.066 82.4613 122.925 84.1353 121.959L114.446 104.459C116.12 103.492 118.261 104.066 119.227 105.74C120.194 107.414 119.62 109.555 117.946 110.521L87.6353 128.021C85.9613 128.988 83.8207 128.414 82.8542 126.74ZM184.328 65.4982L124.572 99.9982C123.472 100.633 123.096 102.04 123.731 103.14C124.366 104.24 125.772 104.617 126.872 103.982L186.628 69.4819C187.728 68.8468 188.105 67.4401 187.47 66.3401C186.835 65.24 185.428 64.8631 184.328 65.4982ZM123.972 98.959C122.298 99.9255 121.725 102.066 122.691 103.74C123.658 105.414 125.798 105.988 127.472 105.021L187.228 70.5212C188.902 69.5547 189.476 67.4141 188.509 65.7401C187.543 64.066 185.402 63.4925 183.728 64.459L123.972 98.959ZM58.5583 149.658L103.592 123.658C104.692 123.023 106.098 123.4 106.734 124.5C107.369 125.6 106.992 127.007 105.892 127.642L60.8583 153.642C59.7583 154.277 58.3516 153.9 57.7165 152.8C57.0813 151.7 57.4583 150.294 58.5583 149.658ZM56.6772 153.4C55.7107 151.726 56.2843 149.586 57.9583 148.619L102.992 122.619C104.666 121.653 106.806 122.226 107.773 123.9C108.739 125.574 108.166 127.715 106.492 128.681L61.4583 154.681C59.7843 155.648 57.6437 155.074 56.6772 153.4ZM144.295 100.158L113.118 118.158C112.018 118.794 111.641 120.2 112.276 121.3C112.911 122.4 114.318 122.777 115.418 122.142L146.595 104.142C147.695 103.507 148.072 102.1 147.437 101C146.802 99.9003 145.395 99.5233 144.295 100.158ZM112.518 117.119C110.844 118.086 110.271 120.226 111.237 121.9C112.204 123.574 114.344 124.148 116.018 123.181L147.195 105.181C148.869 104.215 149.443 102.074 148.476 100.4C147.51 98.7263 145.369 98.1527 143.695 99.1192L112.518 117.119ZM153.821 94.6585L186.73 75.6585C187.83 75.0233 189.237 75.4002 189.872 76.5003C190.507 77.6004 190.13 79.007 189.03 79.6422L156.121 98.6422C155.021 99.2773 153.615 98.9004 152.979 97.8003C152.344 96.7002 152.721 95.2936 153.821 94.6585ZM151.94 98.4003C150.974 96.7263 151.547 94.5857 153.221 93.6192L186.13 74.6192C187.804 73.6527 189.945 74.2263 190.911 75.9003C191.878 77.5743 191.304 79.7149 189.63 80.6814L156.721 99.6814C155.047 100.648 152.907 100.074 151.94 98.4003ZM49.0322 155.158L35.1758 163.158C34.0757 163.794 33.6988 165.2 34.3339 166.3C34.969 167.4 36.3757 167.777 37.4758 167.142L51.3322 159.142C52.4322 158.507 52.8092 157.1 52.174 156C51.5389 154.9 50.1322 154.523 49.0322 155.158ZM34.5758 162.119C32.9017 163.086 32.3282 165.226 33.2947 166.9C34.2612 168.574 36.4017 169.148 38.0758 168.181L51.9322 160.181C53.6062 159.215 54.1798 157.074 53.2133 155.4C52.2468 153.726 50.1062 153.153 48.4322 154.119L34.5758 162.119ZM136.893 81.338L142.089 78.338C143.189 77.7028 144.596 78.0798 145.231 79.1798C145.866 80.2799 145.489 81.6866 144.389 82.3217L139.193 85.3217C138.093 85.9568 136.686 85.5799 136.051 84.4798C135.416 83.3798 135.793 81.9731 136.893 81.338ZM135.012 85.0798C134.045 83.4058 134.619 81.2652 136.293 80.2987L141.489 77.2987C143.163 76.3322 145.304 76.9058 146.27 78.5798C147.237 80.2539 146.663 82.3944 144.989 83.3609L139.793 86.3609C138.119 87.3274 135.978 86.7539 135.012 85.0798ZM97.8071 161.639L64.6599 180.777C63.5598 181.412 63.1829 182.819 63.818 183.919C64.4532 185.019 65.8598 185.396 66.9599 184.761L100.107 165.623C101.207 164.988 101.584 163.581 100.949 162.481C100.314 161.381 98.9072 161.004 97.8071 161.639ZM64.0599 179.738C62.3859 180.704 61.8123 182.845 62.7788 184.519C63.7453 186.193 65.8859 186.766 67.5599 185.8L100.707 166.662C102.381 165.696 102.955 163.555 101.988 161.881C101.022 160.207 98.8811 159.634 97.2071 160.6L64.0599 179.738ZM122.056 147.639L147.171 133.139C148.271 132.504 149.677 132.881 150.312 133.981C150.948 135.081 150.571 136.488 149.471 137.123L124.356 151.623C123.256 152.258 121.849 151.881 121.214 150.781C120.579 149.681 120.956 148.274 122.056 147.639ZM120.175 151.381C119.208 149.707 119.782 147.567 121.456 146.6L146.571 132.1C148.245 131.134 150.385 131.707 151.352 133.381C152.318 135.055 151.745 137.196 150.071 138.162L124.956 152.662C123.282 153.629 121.141 153.055 120.175 151.381ZM186.944 110.176L156.697 127.639C155.597 128.274 155.22 129.681 155.855 130.781C156.49 131.881 157.897 132.258 158.997 131.623L189.244 114.16C190.344 113.525 190.721 112.118 190.086 111.018C189.451 109.918 188.044 109.541 186.944 110.176ZM156.097 126.6C154.423 127.567 153.849 129.707 154.816 131.381C155.782 133.055 157.923 133.629 159.597 132.662L189.844 115.199C191.518 114.232 192.092 112.092 191.125 110.418C190.159 108.744 188.018 108.17 186.344 109.137L156.097 126.6ZM119.735 183.62L137.922 173.12C139.022 172.485 140.429 172.862 141.064 173.962C141.699 175.062 141.322 176.469 140.222 177.104L122.035 187.604C120.935 188.239 119.529 187.862 118.893 186.762C118.258 185.662 118.635 184.255 119.735 183.62ZM117.854 187.362C116.888 185.688 117.461 183.547 119.135 182.581L137.322 172.081C138.996 171.114 141.136 171.688 142.103 173.362C143.069 175.036 142.496 177.176 140.822 178.143L122.635 188.643C120.961 189.609 118.821 189.036 117.854 187.362ZM175.059 151.679L147.448 167.62C146.348 168.255 145.971 169.662 146.606 170.762C147.241 171.862 148.648 172.239 149.748 171.604L177.359 155.662C178.459 155.027 178.836 153.621 178.201 152.521C177.566 151.42 176.159 151.044 175.059 151.679ZM146.848 166.581C145.174 167.547 144.601 169.688 145.567 171.362C146.534 173.036 148.674 173.609 150.348 172.643L177.959 156.702C179.633 155.735 180.207 153.595 179.24 151.921C178.274 150.247 176.133 149.673 174.459 150.639L146.848 166.581ZM77.7861 184.745L100.209 171.799C101.309 171.164 102.716 171.541 103.351 172.641C103.986 173.741 103.609 175.148 102.509 175.783L80.0861 188.729C78.986 189.364 77.5794 188.987 76.9443 187.887C76.3091 186.787 76.686 185.381 77.7861 184.745ZM75.905 188.487C74.9385 186.813 75.5121 184.673 77.1861 183.706L99.6091 170.76C101.283 169.794 103.424 170.367 104.39 172.041C105.357 173.715 104.783 175.856 103.109 176.822L80.6861 189.768C79.0121 190.735 76.8715 190.161 75.905 188.487ZM140.046 148.799L109.735 166.299C108.635 166.935 108.258 168.341 108.893 169.441C109.529 170.541 110.935 170.918 112.035 170.283L142.346 152.783C143.446 152.148 143.823 150.741 143.188 149.641C142.553 148.541 141.146 148.164 140.046 148.799ZM109.135 165.26C107.461 166.227 106.888 168.367 107.854 170.041C108.821 171.715 110.961 172.289 112.635 171.322L142.946 153.822C144.62 152.856 145.194 150.715 144.227 149.041C143.261 147.367 141.12 146.794 139.446 147.76L109.135 165.26ZM149.572 143.299L184.786 122.969C185.886 122.334 187.293 122.711 187.928 123.811C188.563 124.911 188.186 126.318 187.086 126.953L151.873 147.283C150.772 147.918 149.366 147.541 148.731 146.441C148.096 145.341 148.472 143.935 149.572 143.299ZM147.691 147.041C146.725 145.367 147.298 143.227 148.972 142.26L184.186 121.93C185.86 120.963 188.001 121.537 188.967 123.211C189.934 124.885 189.36 127.025 187.686 127.992L152.472 148.322C150.798 149.289 148.658 148.715 147.691 147.041ZM128.592 166.96L91.237 188.526C90.137 189.162 89.7601 190.568 90.3952 191.668C91.0303 192.768 92.437 193.145 93.5371 192.51L130.892 170.943C131.992 170.308 132.369 168.902 131.734 167.802C131.099 166.701 129.692 166.325 128.592 166.96ZM90.637 187.487C88.963 188.454 88.3895 190.594 89.356 192.268C90.3225 193.942 92.463 194.516 94.137 193.549L131.492 171.983C133.166 171.016 133.739 168.876 132.773 167.202C131.806 165.527 129.666 164.954 127.992 165.92L90.637 187.487ZM138.118 161.46L169.295 143.46C170.395 142.825 171.802 143.202 172.437 144.302C173.072 145.402 172.695 146.808 171.595 147.443L140.418 165.443C139.318 166.079 137.911 165.702 137.276 164.602C136.641 163.502 137.018 162.095 138.118 161.46ZM136.237 165.202C135.271 163.528 135.844 161.387 137.518 160.421L168.695 142.421C170.369 141.454 172.51 142.028 173.476 143.702C174.443 145.376 173.869 147.516 172.195 148.483L141.018 166.483C139.344 167.449 137.204 166.876 136.237 165.202ZM182.67 135.737L178.821 137.96C177.721 138.595 177.344 140.002 177.979 141.102C178.615 142.202 180.021 142.579 181.121 141.943L184.97 139.721C186.07 139.086 186.447 137.679 185.812 136.579C185.177 135.479 183.77 135.102 182.67 135.737ZM178.221 136.921C176.547 137.887 175.974 140.028 176.94 141.702C177.907 143.376 180.047 143.949 181.721 142.983L185.57 140.76C187.244 139.794 187.818 137.653 186.851 135.979C185.885 134.305 183.744 133.732 182.07 134.698L178.221 136.921ZM107.333 156.139L112.53 153.139C113.63 152.504 115.036 152.881 115.671 153.981C116.307 155.081 115.93 156.488 114.83 157.123L109.633 160.123C108.533 160.758 107.127 160.381 106.492 159.281C105.856 158.181 106.233 156.774 107.333 156.139ZM105.452 159.881C104.486 158.207 105.059 156.067 106.733 155.1L111.93 152.1C113.604 151.134 115.744 151.707 116.711 153.381C117.677 155.055 117.104 157.196 115.43 158.162L110.233 161.162C108.559 162.129 106.419 161.555 105.452 159.881Z" fill="white"/>
</g>
<path d="M100 80C97.5277 80 95.111 80.7331 93.0554 82.1066C90.9998 83.4801 89.3976 85.4324 88.4515 87.7165C87.5054 90.0005 87.2579 92.5139 87.7402 94.9386C88.2225 97.3634 89.413 99.5907 91.1612 101.339C92.9093 103.087 95.1366 104.278 97.5614 104.76C99.9861 105.242 102.499 104.995 104.784 104.048C107.068 103.102 109.02 101.5 110.393 99.4446C111.767 97.389 112.5 94.9723 112.5 92.5C112.5 89.1848 111.183 86.0054 108.839 83.6612C106.495 81.317 103.315 80 100 80ZM100 100C98.5166 100 97.0666 99.5601 95.8332 98.736C94.5999 97.9119 93.6386 96.7406 93.0709 95.3701C92.5033 93.9997 92.3547 92.4917 92.6441 91.0368C92.9335 89.582 93.6478 88.2456 94.6967 87.1967C95.7456 86.1478 97.082 85.4335 98.5368 85.1441C99.9917 84.8547 101.5 85.0032 102.87 85.5709C104.241 86.1386 105.412 87.0999 106.236 88.3332C107.06 89.5666 107.5 91.0166 107.5 92.5C107.498 94.4885 106.707 96.395 105.301 97.8011C103.895 99.2072 101.989 99.998 100 100Z" fill="#111111"/>
<path d="M100 65C93.0777 65 86.3108 67.0527 80.5551 70.8986C74.7993 74.7444 70.3133 80.2107 67.6642 86.6061C65.0152 93.0015 64.322 100.039 65.6725 106.828C67.023 113.617 70.3564 119.854 75.2513 124.749C80.1461 129.644 86.3825 132.977 93.1719 134.327C99.9612 135.678 106.999 134.985 113.394 132.336C119.789 129.687 125.256 125.201 129.101 119.445C132.947 113.689 135 106.922 135 100C134.989 90.7207 131.299 81.8244 124.737 75.263C118.176 68.7015 109.279 65.0106 100 65ZM85 125.943V122.5C85.002 120.511 85.7928 118.605 87.1989 117.199C88.605 115.793 90.5115 115.002 92.5 115H107.5C109.489 115.002 111.395 115.793 112.801 117.199C114.207 118.605 114.998 120.511 115 122.5V125.943C110.448 128.601 105.271 130.001 100 130.001C94.7287 130.001 89.5521 128.601 85 125.943ZM119.98 122.315C119.93 119.036 118.594 115.907 116.26 113.604C113.925 111.3 110.78 110.006 107.5 110H92.5C89.2205 110.006 86.0746 111.3 83.7402 113.604C81.4059 115.907 80.0698 119.036 80.02 122.315C75.4864 118.267 72.2893 112.937 70.8521 107.032C69.4149 101.126 69.8053 94.9234 71.9716 89.2446C74.138 83.5659 77.9781 78.6792 82.9834 75.2314C87.9888 71.7837 93.9234 69.9376 100.001 69.9376C106.079 69.9376 112.014 71.7837 117.019 75.2314C122.024 78.6792 125.865 83.5659 128.031 89.2446C130.197 94.9234 130.588 101.126 129.15 107.032C127.713 112.937 124.516 118.267 119.983 122.315H119.98Z" fill="#111111"/>
<circle cx="100" cy="100" r="98" stroke="#DBE3F5" stroke-width="4"/>
</svg>
