<svg width="33" height="33" viewBox="0 0 33 33" fill="none" xmlns="http://www.w3.org/2000/svg">
<rect width="33" height="33" rx="16.5" fill="#111111"/>
<path d="M22.7152 22.6827L21.811 12.7334C21.7855 12.4593 21.556 12.25 21.2808 12.25H19.687V11.1875C19.687 10.3333 19.3566 9.53106 18.7563 8.93075C18.156 8.33044 17.3538 8 16.4995 8C14.7422 8 13.312 9.43012 13.312 11.1875V12.25H11.7183C11.4431 12.25 11.2136 12.4593 11.1892 12.7334L10.285 22.6827C10.2308 23.2756 10.4305 23.8684 10.8322 24.3083C11.2338 24.7482 11.8054 25 12.4015 25H20.5987C21.1947 25 21.7664 24.7482 22.168 24.3083C22.5696 23.8684 22.7683 23.2756 22.7152 22.6827ZM14.3745 11.1875C14.3745 10.0156 15.3276 9.0625 16.4995 9.0625C17.0701 9.0625 17.6045 9.28244 18.0051 9.68194C18.4057 10.0814 18.6245 10.6169 18.6245 11.1875V12.25H14.3745V11.1875ZM21.3828 23.5922C21.1788 23.8142 20.9004 23.9375 20.5976 23.9375H12.4015C12.0997 23.9375 11.8203 23.8142 11.6174 23.5911C11.4134 23.368 11.3167 23.0801 11.3443 22.7783L12.2039 13.3125H13.312V14.9062C13.312 15.1995 13.55 15.4375 13.8433 15.4375C14.1365 15.4375 14.3745 15.1995 14.3745 14.9062V13.3125H18.6245V14.9062C18.6245 15.1995 18.8625 15.4375 19.1558 15.4375C19.449 15.4375 19.687 15.1995 19.687 14.9062V13.3125H20.7952L21.6559 22.7794C21.6835 23.0801 21.5868 23.3691 21.3828 23.5922Z" fill="white"/>
<line x1="16.5" y1="17.5" x2="16.5" y2="21.5" stroke="white" stroke-linecap="round"/>
<line x1="14.5" y1="19.5" x2="18.5" y2="19.5" stroke="white" stroke-linecap="round"/>
</svg>
