<svg width="40" height="40" viewBox="0 0 40 40" fill="none" xmlns="http://www.w3.org/2000/svg">
<rect width="40" height="40" rx="20" fill="#DBE3F5"/>
<g clip-path="url(#clip0_31_1450)">
<path d="M27.3333 24.6667C27.3333 25.0203 27.1929 25.3594 26.9428 25.6095C26.6928 25.8595 26.3536 26 26 26H14C13.6464 26 13.3072 25.8595 13.0572 25.6095C12.8071 25.3594 12.6667 25.0203 12.6667 24.6667V17.3333C12.6667 16.9797 12.8071 16.6406 13.0572 16.3905C13.3072 16.1405 13.6464 16 14 16H16.6667L18 14H22L23.3333 16H26C26.3536 16 26.6928 16.1405 26.9428 16.3905C27.1929 16.6406 27.3333 16.9797 27.3333 17.3333V24.6667Z" stroke="#626262" stroke-width="1.5" stroke-linecap="round" stroke-linejoin="round"/>
<path d="M20 23.3333C21.4728 23.3333 22.6667 22.1394 22.6667 20.6667C22.6667 19.1939 21.4728 18 20 18C18.5272 18 17.3333 19.1939 17.3333 20.6667C17.3333 22.1394 18.5272 23.3333 20 23.3333Z" stroke="#626262" stroke-width="1.5" stroke-linecap="round" stroke-linejoin="round"/>
</g>
<defs>
<clipPath id="clip0_31_1450">
<rect width="16" height="16" fill="white" transform="translate(12 12)"/>
</clipPath>
</defs>
</svg>
