<svg width="40" height="40" viewBox="0 0 40 40" fill="none" xmlns="http://www.w3.org/2000/svg">
<rect width="40" height="40" rx="20" fill="#DBE3F5"/>
<path d="M20 25.3333H26" stroke="#626262" stroke-width="1.5" stroke-linecap="round" stroke-linejoin="round"/>
<path d="M23 14.3334C23.2652 14.0682 23.6249 13.9192 24 13.9192C24.1857 13.9192 24.3696 13.9558 24.5412 14.0268C24.7128 14.0979 24.8687 14.2021 25 14.3334C25.1313 14.4647 25.2355 14.6206 25.3066 14.7922C25.3776 14.9638 25.4142 15.1477 25.4142 15.3334C25.4142 15.5191 25.3776 15.703 25.3066 15.8746C25.2355 16.0462 25.1313 16.2021 25 16.3334L16.6667 24.6667L14 25.3334L14.6667 22.6667L23 14.3334Z" stroke="#626262" stroke-width="1.5" stroke-linecap="round" stroke-linejoin="round"/>
</svg>
