<svg width="61" height="60" viewBox="0 0 61 60" fill="none" xmlns="http://www.w3.org/2000/svg">
<rect x="1" y="0.5" width="59" height="59" rx="29.5" fill="white"/>
<rect x="1" y="0.5" width="59" height="59" rx="29.5" stroke="#DBE3F5"/>
<path d="M35.2493 20.0042L32.6558 20C29.742 20 27.859 21.9319 27.859 24.922V27.1914H25.2513C25.026 27.1914 24.8435 27.3741 24.8435 27.5994V30.8875C24.8435 31.1128 25.0262 31.2953 25.2513 31.2953H27.859V39.5922C27.859 39.8175 28.0415 40 28.2668 40H31.6691C31.8945 40 32.0769 39.8173 32.0769 39.5922V31.2953H35.126C35.3513 31.2953 35.5338 31.1128 35.5338 30.8875L35.535 27.5994C35.535 27.4912 35.4919 27.3876 35.4156 27.311C35.3392 27.2345 35.2352 27.1914 35.127 27.1914H32.0769V25.2676C32.0769 24.343 32.2973 23.8736 33.5018 23.8736L35.2489 23.873C35.4741 23.873 35.6565 23.6903 35.6565 23.4651V20.412C35.6565 20.1871 35.4743 20.0046 35.2493 20.0042Z" fill="#3B5999"/>
</svg>
