<svg width="61" height="60" viewBox="0 0 61 60" fill="none" xmlns="http://www.w3.org/2000/svg">
<rect x="1" y="0.5" width="59" height="59" rx="29.5" stroke="#DBE3F5"/>
<path d="M31.1082 27.5291C35.1583 27.5291 37.5808 27.5291 38.3757 27.5291C38.6407 28.9296 38.5839 30.2923 38.2054 31.6171C37.8269 32.9041 37.1645 33.9828 36.2182 34.8534C35.3476 35.6483 34.2877 36.1972 33.0386 36.5C31.6759 36.8028 30.3511 36.7839 29.0642 36.4432C28.0422 36.1783 27.1148 35.7051 26.2821 35.0238C25.3736 34.3046 24.6733 33.4529 24.1813 32.4688C23.3485 30.879 23.1214 29.1946 23.4999 27.4155C23.6135 26.7342 23.8406 26.0907 24.1813 25.4851C25.0897 23.5925 26.547 22.3055 28.5532 21.6242C30.2944 21.0186 32.0355 21.0375 33.7767 21.681C34.6852 22.0216 35.5179 22.5326 36.275 23.214C36.1992 23.3275 36.0668 23.4789 35.8775 23.6682C35.6882 23.8196 35.5747 23.9332 35.5368 24.0089C35.3854 24.1224 35.1394 24.3495 34.7987 24.6902C34.4959 24.993 34.2688 25.2391 34.1174 25.4283C33.6253 24.9362 33.0575 24.5956 32.4141 24.4063C31.657 24.1792 30.9 24.1603 30.1429 24.3495C29.2345 24.5388 28.4585 24.9552 27.8151 25.5987C27.323 26.1286 26.9445 26.7531 26.6795 27.4723C26.3388 28.4565 26.3388 29.4595 26.6795 30.4815C27.0202 31.4657 27.6258 32.2606 28.4964 32.8662C29.0263 33.2447 29.5941 33.4908 30.1997 33.6043C30.7675 33.7179 31.3921 33.7179 32.0734 33.6043C32.7169 33.4908 33.2847 33.2637 33.7767 32.923C34.6473 32.3552 35.1583 31.5603 35.3097 30.5383C33.9092 30.5383 32.5087 30.5383 31.1082 30.5383C31.1082 30.3112 31.1082 29.8191 31.1082 29.0621C31.1082 28.2672 31.1082 27.7562 31.1082 27.5291Z" fill="#DD4B39"/>
</svg>
