<svg width="33" height="33" viewBox="0 0 33 33" fill="none" xmlns="http://www.w3.org/2000/svg">
<rect x="0.5" y="0.5" width="32" height="32" rx="16" stroke="#DBE3F5"/>
<path d="M22.7617 11.2654C22.3999 10.9035 21.9704 10.6163 21.4976 10.4204C21.0248 10.2245 20.5181 10.1237 20.0063 10.1237C19.4945 10.1237 18.9878 10.2245 18.515 10.4204C18.0422 10.6163 17.6127 10.9035 17.2509 11.2654L16.5 12.0163L15.7492 11.2654C15.0184 10.5346 14.0273 10.1241 12.9938 10.1241C11.9603 10.1241 10.9692 10.5346 10.2384 11.2654C9.5076 11.9962 9.09705 12.9874 9.09705 14.0208C9.09705 15.0543 9.5076 16.0455 10.2384 16.7763L10.9892 17.5271L16.5 23.0379L22.0109 17.5271L22.7617 16.7763C23.1237 16.4145 23.4108 15.9849 23.6067 15.5121C23.8026 15.0394 23.9034 14.5326 23.9034 14.0208C23.9034 13.5091 23.8026 13.0023 23.6067 12.5296C23.4108 12.0568 23.1237 11.6272 22.7617 11.2654Z" fill="#F4303C" stroke="#F4303C" stroke-width="1.2" stroke-linecap="round" stroke-linejoin="round"/>
</svg>
