<svg width="33" height="33" viewBox="0 0 33 33" fill="none" xmlns="http://www.w3.org/2000/svg">
<rect x="0.5" y="0.5" width="32" height="32" rx="16" stroke="#DBE3F5"/>
<path d="M22.7617 11.2654C22.3999 10.9034 21.9703 10.6163 21.4975 10.4204C21.0248 10.2245 20.518 10.1237 20.0063 10.1237C19.4945 10.1237 18.9877 10.2245 18.515 10.4204C18.0422 10.6163 17.6126 10.9034 17.2508 11.2654L16.5 12.0162L15.7492 11.2654C15.0184 10.5346 14.0272 10.124 12.9937 10.124C11.9603 10.124 10.9691 10.5346 10.2383 11.2654C9.50755 11.9961 9.097 12.9873 9.097 14.0208C9.097 15.0543 9.50755 16.0454 10.2383 16.7762L10.9892 17.527L16.5 23.0379L22.0108 17.527L22.7617 16.7762C23.1236 16.4144 23.4108 15.9849 23.6067 15.5121C23.8026 15.0393 23.9034 14.5325 23.9034 14.0208C23.9034 13.509 23.8026 13.0023 23.6067 12.5295C23.4108 12.0567 23.1236 11.6272 22.7617 11.2654V11.2654Z" stroke="#626262" stroke-width="1.2" stroke-linecap="round" stroke-linejoin="round"/>
</svg>
