<svg width="165" height="37" viewBox="0 0 165 37" fill="none" xmlns="http://www.w3.org/2000/svg">
<g filter="url(#filter0_d_47_2853)">
<path d="M5.05688 27V1.36799H8.76489L18.4489 23.436H16.6849L26.2969 1.36799H30.0049V27H25.8649L25.8289 8.02799L27.0529 8.31599L19.0609 27H16.0009L7.82888 8.31599L9.12488 8.02799L9.16088 27H5.05688Z" fill="#111111"/>
<path d="M37.4788 27H32.7988L44.3908 1.36799H48.1708L59.7628 27H55.1548L45.7228 4.96799H46.9828L37.4788 27ZM37.9108 20.988L39.6748 17.388H52.7428L54.4348 20.988H37.9108Z" fill="#111111"/>
<path d="M62.5357 27V1.36799H65.9917L80.7517 20.556L79.7797 21.06V1.36799H84.1357V27H80.6437L65.9557 7.88399L66.8917 7.30799V27H62.5357Z" fill="#111111"/>
<path d="M89.7114 27V1.36799H106.847V5.00399H94.2474V12.132H106.127V15.804H94.2474V23.364H106.847V27H89.7114Z" fill="#111111"/>
<path d="M111.122 27V1.36799H122.102C125.006 1.36799 127.214 2.00399 128.726 3.27599C130.238 4.54799 130.994 6.37199 130.994 8.74799C130.994 11.004 130.214 12.804 128.654 14.148C127.094 15.468 124.922 16.128 122.138 16.128L125.018 15.552C125.906 15.552 126.698 15.816 127.394 16.344C128.09 16.872 128.642 17.688 129.05 18.792L132.218 27H127.322L124.082 18.468C123.746 17.628 123.266 17.064 122.642 16.776C122.042 16.488 121.286 16.344 120.374 16.344H115.694V27H111.122ZM115.658 12.744H121.454C123.23 12.744 124.526 12.42 125.342 11.772C126.158 11.124 126.566 10.152 126.566 8.85599C126.566 7.53599 126.158 6.56399 125.342 5.93999C124.526 5.31599 123.23 5.00399 121.454 5.00399H115.658V12.744Z" fill="#111111"/>
<path d="M147.599 27.288C145.103 27.288 142.943 26.76 141.119 25.704C139.295 24.648 137.891 23.136 136.907 21.168C135.923 19.2 135.431 16.872 135.431 14.184C135.431 11.472 135.923 9.14399 136.907 7.19999C137.891 5.23199 139.295 3.71999 141.119 2.66399C142.943 1.60799 145.103 1.07999 147.599 1.07999C150.119 1.07999 152.291 1.60799 154.115 2.66399C155.939 3.71999 157.343 5.23199 158.327 7.19999C159.311 9.14399 159.803 11.46 159.803 14.148C159.803 16.86 159.299 19.2 158.291 21.168C157.307 23.136 155.903 24.648 154.079 25.704C152.279 26.76 150.119 27.288 147.599 27.288ZM147.599 23.616C149.951 23.616 151.799 22.812 153.143 21.204C154.487 19.572 155.159 17.22 155.159 14.148C155.159 11.076 154.487 8.74799 153.143 7.16399C151.799 5.55599 149.951 4.75199 147.599 4.75199C145.271 4.75199 143.435 5.55599 142.091 7.16399C140.747 8.74799 140.075 11.076 140.075 14.148C140.075 17.22 140.747 19.572 142.091 21.204C143.435 22.812 145.271 23.616 147.599 23.616Z" fill="#111111"/>
<path d="M4.55688 27V27.5H5.05688H9.16088H9.66183L9.66088 26.999L9.63564 13.6946L15.5428 27.2004L15.6738 27.5H16.0009H19.0609H19.3908L19.5206 27.1966L25.3394 13.5931L25.3649 27.0009L25.3658 27.5H25.8649H30.0049H30.5049V27V1.36799V0.867987H30.0049H26.2969H25.9693L25.8385 1.16832L17.5619 20.1704L9.22274 1.16707L9.0915 0.867987H8.76489H5.05688H4.55688V1.36799V27ZM37.4788 27.5H37.8077L37.9379 27.198L40.4011 21.488H52.2512L54.6952 27.1968L54.825 27.5H55.1548H59.7628H60.5377L60.2184 26.794L48.6264 1.16195L48.4935 0.867987H48.1708H44.3908H44.0682L43.9352 1.16195L32.3432 26.794L32.0239 27.5H32.7988H37.4788ZM46.3487 7.70038L50.2819 16.888H42.3854L46.3487 7.70038ZM62.0357 27V27.5H62.5357H66.8917H67.3917V27V10.5735L80.2472 27.3046L80.3973 27.5H80.6437H84.1357H84.6357V27V1.36799V0.867987H84.1357H79.7797H79.2797V1.36799V17.8223L66.388 1.06313L66.2379 0.867987H65.9917H62.5357H62.0357V1.36799V27ZM89.2114 27V27.5H89.7114H106.847H107.347V27V23.364V22.864H106.847H94.7474V16.304H106.127H106.627V15.804V12.132V11.632H106.127H94.7474V5.50399H106.847H107.347V5.00399V1.36799V0.867987H106.847H89.7114H89.2114V1.36799V27ZM110.622 27V27.5H111.122H115.694H116.194V27V16.844H120.374C121.237 16.844 121.913 16.9809 122.425 17.2267L122.425 17.2268L122.432 17.23C122.906 17.4488 123.312 17.8923 123.616 18.6499C123.616 18.6511 123.617 18.6524 123.617 18.6537L126.854 27.1775L126.977 27.5H127.322H132.218H132.947L132.684 26.82L129.519 18.6187C129.518 18.6175 129.518 18.6163 129.517 18.6151C129.087 17.4536 128.489 16.5474 127.696 15.9456C127.547 15.8327 127.394 15.7305 127.237 15.6389C127.875 15.3393 128.456 14.9702 128.977 14.5297L128.98 14.5268C130.662 13.078 131.494 11.1338 131.494 8.74799C131.494 6.2573 130.695 4.27969 129.047 2.89337C127.411 1.51695 125.07 0.867987 122.102 0.867987H111.122H110.622V1.36799V27ZM152.76 7.48465L152.762 7.48748C154 8.94652 154.659 11.1394 154.659 14.148C154.659 17.1547 154.001 19.3758 152.758 20.8855C151.521 22.3636 149.822 23.116 147.599 23.116C145.402 23.116 143.714 22.3649 142.477 20.8855C141.234 19.3758 140.575 17.1547 140.575 14.148C140.575 11.1394 141.234 8.94652 142.472 7.48748L142.475 7.48464C143.713 6.00379 145.401 5.25199 147.599 5.25199C149.823 5.25199 151.523 6.00507 152.76 7.48465ZM121.454 12.244H116.158V5.50399H121.454C123.192 5.50399 124.353 5.81323 125.038 6.33716C125.696 6.84051 126.066 7.64313 126.066 8.85599C126.066 10.0404 125.699 10.8501 125.031 11.3804C124.347 11.9236 123.189 12.244 121.454 12.244ZM140.869 26.1367C142.782 27.2443 145.031 27.788 147.599 27.788C150.189 27.788 152.44 27.245 154.331 26.136C156.242 25.0291 157.712 23.4434 158.738 21.3933C159.788 19.3411 160.303 16.9204 160.303 14.148C160.303 11.4005 159.8 9.00438 158.774 6.97638C157.749 4.925 156.278 3.33847 154.366 2.23127C152.452 1.12329 150.19 0.579987 147.599 0.579987C145.031 0.579987 142.782 1.12369 140.869 2.23127C138.956 3.33847 137.486 4.925 136.46 6.97638C135.434 9.00496 134.931 11.4133 134.931 14.184C134.931 16.9327 135.434 19.3405 136.46 21.3916C137.486 23.443 138.956 25.0295 140.869 26.1367Z" stroke="black"/>
</g>
<defs>
<filter id="filter0_d_47_2853" x="0.0568848" y="0.0799866" width="164.746" height="36.208" filterUnits="userSpaceOnUse" color-interpolation-filters="sRGB">
<feFlood flood-opacity="0" result="BackgroundImageFix"/>
<feColorMatrix in="SourceAlpha" type="matrix" values="0 0 0 0 0 0 0 0 0 0 0 0 0 0 0 0 0 0 127 0" result="hardAlpha"/>
<feOffset dy="4"/>
<feGaussianBlur stdDeviation="2"/>
<feComposite in2="hardAlpha" operator="out"/>
<feColorMatrix type="matrix" values="0 0 0 0 0 0 0 0 0 0 0 0 0 0 0 0 0 0 0.25 0"/>
<feBlend mode="normal" in2="BackgroundImageFix" result="effect1_dropShadow_47_2853"/>
<feBlend mode="normal" in="SourceGraphic" in2="effect1_dropShadow_47_2853" result="shape"/>
</filter>
</defs>
</svg>
