<svg width="108" height="108" viewBox="0 0 108 108" fill="none" xmlns="http://www.w3.org/2000/svg">
<ellipse cx="53.98" cy="54.25" rx="46.98" ry="47.25" fill="#DBE3F5"/>
<mask id="mask0_39_2300" style="mask-type:alpha" maskUnits="userSpaceOnUse" x="7" y="7" width="94" height="95">
<ellipse cx="53.98" cy="54.25" rx="46.98" ry="47.25" fill="#DBE3F5"/>
</mask>
<g mask="url(#mask0_39_2300)">
<path fill-rule="evenodd" clip-rule="evenodd" d="M38.5725 -12.6043L46.3402 -17.089C47.4403 -17.7242 48.847 -17.3472 49.4821 -16.2472C50.1172 -15.1471 49.7403 -13.7404 48.6402 -13.1053L40.8725 -8.62061C39.7724 -7.98548 38.3658 -8.36239 37.7306 -9.46247C37.0955 -10.5625 37.4724 -11.9692 38.5725 -12.6043ZM36.6914 -8.86247C35.7249 -10.5365 36.2985 -12.6771 37.9725 -13.6436L45.7402 -18.1283C47.4143 -19.0948 49.5548 -18.5212 50.5213 -16.8472C51.4878 -15.1731 50.9143 -13.0326 49.2402 -12.0661L41.4725 -7.58138C39.7985 -6.61488 37.6579 -7.18844 36.6914 -8.86247ZM29.0462 -7.10432L-1.26467 10.3957C-2.36473 11.0308 -2.74165 12.4375 -2.10652 13.5375C-1.47139 14.6376 -0.064735 15.0145 1.03533 14.3794L31.3462 -3.1206C32.4463 -3.75574 32.8232 -5.16239 32.1881 -6.26246C31.553 -7.36254 30.1463 -7.73945 29.0462 -7.10432ZM-1.86467 9.35645C-3.53869 10.3229 -4.11225 12.4635 -3.14575 14.1375C-2.17925 15.8116 -0.0386871 16.3851 1.63533 15.4186L31.9462 -2.08137C33.6202 -3.04787 34.1938 -5.18844 33.2273 -6.86246C32.2608 -8.53649 30.1202 -9.11005 28.4462 -8.14355L-1.86467 9.35645ZM-23.0181 46.0488L-0.791 33.2159C0.309074 32.5808 1.71573 32.9577 2.35086 34.0578C2.98598 35.1579 2.60907 36.5645 1.509 37.1997L-20.7181 50.0325C-21.8182 50.6676 -23.2248 50.2907 -23.8599 49.1906C-24.4951 48.0905 -24.1182 46.6839 -23.0181 46.0488ZM-24.8992 49.7906C-25.8657 48.1166 -25.2921 45.976 -23.6181 45.0095L-1.391 32.1767C0.283025 31.2102 2.42359 31.7838 3.39009 33.4578C4.35659 35.1318 3.78303 37.2724 2.109 38.2389L-20.1181 51.0717C-21.7921 52.0382 -23.9327 51.4646 -24.8992 49.7906ZM-16.5755 53.8764L61.3668 8.87639C62.4669 8.24126 63.8736 8.61817 64.5087 9.71825C65.1438 10.8183 64.7669 12.225 63.6668 12.8601L-14.2755 57.8601C-15.3755 58.4952 -16.7822 58.1183 -17.4173 57.0182C-18.0524 55.9182 -17.6755 54.5115 -16.5755 53.8764ZM-18.4565 57.6182C-19.423 55.9442 -18.8495 53.8037 -17.1755 52.8372L60.7668 7.83716C62.4409 6.87066 64.5814 7.44422 65.5479 9.11825C66.5144 10.7923 65.9409 12.9328 64.2668 13.8993L-13.6755 58.8993C-15.3495 59.8658 -17.49 59.2923 -18.4565 57.6182ZM-27.2173 60.0207L-26.1018 59.3767C-25.0018 58.7415 -23.5951 59.1184 -22.96 60.2185C-22.3249 61.3186 -22.7018 62.7253 -23.8018 63.3604L-24.9173 64.0044C-26.0174 64.6395 -27.424 64.2626 -28.0592 63.1625C-28.6943 62.0625 -28.3174 60.6558 -27.2173 60.0207ZM-29.0984 63.7625C-30.0649 62.0885 -29.4913 59.9479 -27.8173 58.9814L-26.7018 58.3374C-25.0278 57.3709 -22.8872 57.9445 -21.9208 59.6185C-20.9543 61.2925 -21.5278 63.4331 -23.2018 64.3996L-24.3173 65.0436C-25.9913 66.0101 -28.1319 65.4366 -29.0984 63.7625ZM95.9755 -11.1048L70.893 3.37663C69.793 4.01176 69.4161 5.41842 70.0512 6.5185C70.6863 7.61857 72.093 7.99548 73.193 7.36035L98.2755 -7.12103C99.3756 -7.75616 99.7525 -9.16281 99.1174 -10.2629C98.4823 -11.363 97.0756 -11.7399 95.9755 -11.1048ZM70.293 2.3374C68.619 3.3039 68.0455 5.44447 69.012 7.11849C69.9785 8.79252 72.119 9.36608 73.7931 8.39958L98.8755 -6.0818C100.55 -7.04829 101.123 -9.18887 100.157 -10.8629C99.1901 -12.5369 97.0496 -13.1105 95.3755 -12.144L70.293 2.3374ZM26.9219 17.2162L8.73534 27.7162C7.63527 28.3514 7.25835 29.758 7.89348 30.8581C8.52861 31.9582 9.93527 32.3351 11.0353 31.6999L29.2219 21.1999C30.3219 20.5648 30.6989 19.1582 30.0637 18.0581C29.4286 16.958 28.0219 16.5811 26.9219 17.2162ZM8.13534 26.677C6.46131 27.6435 5.88775 29.7841 6.85425 31.4581C7.82075 33.1321 9.96131 33.7057 11.6353 32.7392L29.8219 22.2392C31.4959 21.2727 32.0695 19.1321 31.103 17.4581C30.1365 15.7841 27.9959 15.2105 26.3219 16.177L8.13534 26.677ZM36.4482 11.716L83.1584 -15.2521C84.2585 -15.8873 85.6651 -15.5104 86.3002 -14.4103C86.9354 -13.3102 86.5585 -11.9036 85.4584 -11.2684L38.7482 15.6997C37.6482 16.3348 36.2415 15.9579 35.6064 14.8578C34.9712 13.7578 35.3482 12.3511 36.4482 11.716ZM34.5671 15.4578C33.6006 13.7838 34.1742 11.6433 35.8482 10.6768L82.5584 -16.2914C84.2324 -17.2579 86.373 -16.6843 87.3395 -15.0103C88.306 -13.3363 87.7324 -11.1957 86.0584 -10.2292L39.3482 16.7389C37.6742 17.7054 35.5336 17.1319 34.5671 15.4578ZM17.5917 11.0558L-27.4417 37.0558C-28.5417 37.691 -28.9187 39.0976 -28.2835 40.1977C-27.6484 41.2978 -26.2417 41.6747 -25.1417 41.0395L19.8917 15.0395C20.9917 14.4044 21.3686 12.9978 20.7335 11.8977C20.0984 10.7976 18.6917 10.4207 17.5917 11.0558ZM-28.0417 36.0166C-29.7157 36.9831 -30.2893 39.1237 -29.3228 40.7977C-28.3563 42.4717 -26.2157 43.0453 -24.5417 42.0788L20.4917 16.0788C22.1657 15.1123 22.7392 12.9717 21.7727 11.2977C20.8062 9.62367 18.6657 9.05011 16.9917 10.0166L-28.0417 36.0166ZM27.1182 5.55583L58.2951 -12.4442C59.3951 -13.0793 60.8018 -12.7024 61.4369 -11.6023C62.0721 -10.5022 61.6951 -9.09558 60.5951 -8.46045L29.4182 9.53955C28.3181 10.1747 26.9114 9.79776 26.2763 8.69769C25.6412 7.59762 26.0181 6.19096 27.1182 5.55583ZM25.2371 9.29769C24.2706 7.62366 24.8441 5.4831 26.5182 4.5166L57.6951 -13.4834C59.3691 -14.4499 61.5097 -13.8763 62.4762 -12.2023C63.4427 -10.5283 62.8691 -8.38772 61.1951 -7.42122L30.0182 10.5788C28.3441 11.5453 26.2036 10.9717 25.2371 9.29769ZM72.2688 -20.5119L67.8213 -17.9442C66.7212 -17.309 66.3443 -15.9024 66.9794 -14.8023C67.6145 -13.7022 69.0212 -13.3253 70.1213 -13.9605L74.5688 -16.5282C75.6688 -17.1633 76.0458 -18.57 75.4106 -19.6701C74.7755 -20.7701 73.3688 -21.1471 72.2688 -20.5119ZM67.2213 -18.9834C65.5473 -18.0169 64.9737 -15.8763 65.9402 -14.2023C66.9067 -12.5283 69.0473 -11.9547 70.7213 -12.9212L75.1688 -15.489C76.8428 -16.4555 77.4164 -18.5961 76.4499 -20.2701C75.4834 -21.9441 73.3428 -22.5177 71.6688 -21.5512L67.2213 -18.9834ZM-21.1018 68.0368L26.5296 40.5368C27.6296 39.9017 29.0363 40.2786 29.6714 41.3786C30.3066 42.4787 29.9296 43.8854 28.8296 44.5205L-18.8018 72.0205C-19.9019 72.6556 -21.3085 72.2787 -21.9437 71.1786C-22.5788 70.0786 -22.2019 68.6719 -21.1018 68.0368ZM-22.9829 71.7786C-23.9494 70.1046 -23.3758 67.9641 -21.7018 66.9976L25.9296 39.4976C27.6036 38.5311 29.7442 39.1046 30.7107 40.7786C31.6772 42.4527 31.1036 44.5932 29.4296 45.5597L-18.2018 73.0597C-19.8758 74.0262 -22.0164 73.4527 -22.9829 71.7786ZM61.1706 20.5368L36.0559 35.0368C34.9558 35.6719 34.5789 37.0786 35.214 38.1786C35.8492 39.2787 37.2558 39.6556 38.3559 39.0205L63.4706 24.5205C64.5707 23.8854 64.9476 22.4787 64.3125 21.3786C63.6774 20.2786 62.2707 19.9017 61.1706 20.5368ZM35.4559 33.9976C33.7819 34.9641 33.2083 37.1046 34.1748 38.7786C35.1413 40.4527 37.2819 41.0262 38.9559 40.0597L64.0706 25.5597C65.7447 24.5932 66.3182 22.4527 65.3517 20.7786C64.3852 19.1046 62.2447 18.5311 60.5706 19.4976L35.4559 33.9976ZM70.697 15.0368L106.62 -5.7032C107.72 -6.33833 109.126 -5.96141 109.762 -4.86134C110.397 -3.76127 110.02 -2.35461 108.92 -1.71949L72.997 19.0205C71.8969 19.6556 70.4903 19.2787 69.8551 18.1787C69.22 17.0786 69.5969 15.6719 70.697 15.0368ZM68.8159 18.7786C67.8494 17.1046 68.423 14.9641 70.097 13.9976L106.02 -6.74243C107.694 -7.70893 109.834 -7.13537 110.801 -5.46135C111.767 -3.78732 111.194 -1.64675 109.52 -0.680257L73.597 20.0597C71.923 21.0262 69.7824 20.4527 68.8159 18.7786ZM86.3668 52.1777L8.42454 97.1777C7.32447 97.8128 6.94756 99.2194 7.58269 100.32C8.21782 101.42 9.62447 101.797 10.7245 101.161L88.6668 56.1614C89.7669 55.5262 90.1438 54.1196 89.5087 53.0195C88.8736 51.9194 87.4669 51.5425 86.3668 52.1777ZM7.82455 96.1384C6.15052 97.1049 5.57696 99.2455 6.54346 100.92C7.50996 102.594 9.65052 103.167 11.3245 102.201L89.2668 57.2006C90.9409 56.2341 91.5144 54.0935 90.5479 52.4195C89.5814 50.7455 87.4409 50.1719 85.7668 51.1384L7.82455 96.1384ZM-15.8242 111.178L-1.1018 102.678C-0.00173076 102.043 1.40493 102.419 2.04005 103.52C2.67518 104.62 2.29827 106.026 1.1982 106.661L-13.5242 115.161C-14.6243 115.797 -16.031 115.42 -16.6661 114.32C-17.3012 113.219 -16.9243 111.813 -15.8242 111.178ZM-17.7053 114.92C-18.6718 113.245 -18.0983 111.105 -16.4242 110.138L-1.7018 101.638C-0.027779 100.672 2.11279 101.245 3.07929 102.92C4.04578 104.594 3.47222 106.734 1.7982 107.701L-12.9242 116.201C-14.5983 117.167 -16.7388 116.594 -17.7053 114.92ZM140.926 20.6777L95.893 46.6777C94.793 47.3128 94.4161 48.7194 95.0512 49.8195C95.6863 50.9196 97.093 51.2965 98.1931 50.6614L143.226 24.6614C144.326 24.0262 144.703 22.6196 144.068 21.5195C143.433 20.4194 142.026 20.0425 140.926 20.6777ZM95.293 45.6384C93.619 46.6049 93.0455 48.7455 94.012 50.4195C94.9785 52.0935 97.119 52.6671 98.793 51.7006L143.826 25.7006C145.5 24.7341 146.074 22.5935 145.107 20.9195C144.141 19.2455 142 18.6719 140.326 19.6384L95.293 45.6384ZM-20.8242 102.518L24.2091 76.5175C25.3092 75.8824 26.7158 76.2593 27.3509 77.3594C27.9861 78.4594 27.6092 79.8661 26.5091 80.5012L-18.5242 106.501C-19.6243 107.136 -21.031 106.759 -21.6661 105.659C-22.3012 104.559 -21.9243 103.153 -20.8242 102.518ZM-22.7053 106.259C-23.6718 104.585 -23.0983 102.445 -21.4242 101.478L23.6091 75.4783C25.2831 74.5118 27.4237 75.0853 28.3902 76.7594C29.3567 78.4334 28.7831 80.574 27.1091 81.5405L-17.9242 107.54C-19.5983 108.507 -21.7388 107.933 -22.7053 106.259ZM51.9219 60.5175L33.7353 71.0175C32.6353 71.6526 32.2584 73.0593 32.8935 74.1594C33.5286 75.2594 34.9353 75.6363 36.0353 75.0012L54.2219 64.5012C55.3219 63.8661 55.6989 62.4594 55.0637 61.3594C54.4286 60.2593 53.0219 59.8824 51.9219 60.5175ZM33.1353 69.9783C31.4613 70.9448 30.8878 73.0853 31.8542 74.7594C32.8207 76.4334 34.9613 77.0069 36.6353 76.0404L54.8219 65.5404C56.4959 64.574 57.0695 62.4334 56.103 60.7594C55.1365 59.0853 52.9959 58.5118 51.3219 59.4783L33.1353 69.9783ZM61.4482 55.0173L133.001 13.7065C134.101 13.0714 135.507 13.4483 136.142 14.5484C136.778 15.6484 136.401 17.0551 135.301 17.6902L63.7482 59.001C62.6482 59.6361 61.2415 59.2592 60.6064 58.1591C59.9712 57.059 60.3481 55.6524 61.4482 55.0173ZM59.5671 58.7591C58.6006 57.0851 59.1742 54.9445 60.8482 53.978L132.401 12.6673C134.075 11.7008 136.215 12.2743 137.182 13.9484C138.148 15.6224 137.575 17.763 135.901 18.7295L64.3482 60.0402C62.6742 61.0067 60.5336 60.4331 59.5671 58.7591ZM14.2091 59.1969L-25.5762 82.1669C-26.6763 82.802 -27.0532 84.2087 -26.418 85.3088C-25.7829 86.4088 -24.3763 86.7858 -23.2762 86.1506L16.5091 63.1806C17.6091 62.5455 17.986 61.1388 17.3509 60.0388C16.7158 58.9387 15.3091 58.5618 14.2091 59.1969ZM-26.1762 81.1277C-27.8502 82.0942 -28.4238 84.2348 -27.4573 85.9088C-26.4908 87.5828 -24.3502 88.1564 -22.6762 87.1899L17.1091 64.2198C18.7831 63.2533 19.3566 61.1128 18.3901 59.4388C17.4236 57.7647 15.2831 57.1912 13.6091 58.1577L-26.1762 81.1277ZM23.7353 53.6969L54.0462 36.1969C55.1463 35.5618 56.553 35.9387 57.1881 37.0388C57.8232 38.1389 57.4463 39.5455 56.3462 40.1807L26.0353 57.6807C24.9353 58.3158 23.5286 57.9389 22.8935 56.8388C22.2583 55.7387 22.6353 54.3321 23.7353 53.6969ZM21.8542 57.4388C20.8877 55.7648 21.4613 53.6242 23.1353 52.6577L53.4462 35.1577C55.1202 34.1912 57.2608 34.7648 58.2273 36.4388C59.1938 38.1128 58.6202 40.2534 56.9462 41.2199L26.6353 58.7199C24.9613 59.6864 22.8207 59.1128 21.8542 57.4388ZM115.151 0.918105L63.5725 30.6969C62.4724 31.3321 62.0955 32.7387 62.7306 33.8388C63.3658 34.9389 64.7724 35.3158 65.8725 34.6807L117.451 4.90182C118.551 4.26669 118.928 2.86003 118.293 1.75995C117.658 0.65988 116.251 0.282974 115.151 0.918105ZM62.9725 29.6577C61.2985 30.6242 60.7249 32.7648 61.6914 34.4388C62.6579 36.1128 64.7985 36.6864 66.4725 35.7199L118.051 5.94105C119.725 4.97455 120.299 2.83399 119.332 1.15996C118.366 -0.514059 116.225 -1.08763 114.551 -0.121126L62.9725 29.6577ZM-2.44166 80.3571L42.5917 54.3571C43.6917 53.722 45.0984 54.0989 45.7335 55.199C46.3686 56.299 45.9917 57.7057 44.8917 58.3408L-0.141663 84.3408C-1.24174 84.9759 -2.6484 84.599 -3.28352 83.499C-3.91865 82.3989 -3.54174 80.9922 -2.44166 80.3571ZM-4.32275 84.099C-5.28925 82.4249 -4.71569 80.2844 -3.04166 79.3179L41.9917 53.3179C43.6657 52.3514 45.8062 52.9249 46.7727 54.599C47.7392 56.273 47.1657 58.4136 45.4917 59.3801L0.458339 85.3801C-1.21569 86.3466 -3.35626 85.773 -4.32275 84.099ZM83.2951 30.8571L52.1182 48.8571C51.0181 49.4922 50.6412 50.8989 51.2763 51.999C51.9114 53.099 53.3181 53.4759 54.4182 52.8408L85.5951 34.8408C86.6951 34.2057 87.0721 32.799 86.4369 31.699C85.8018 30.5989 84.3951 30.222 83.2951 30.8571ZM51.5182 47.8179C49.8441 48.7844 49.2706 50.9249 50.2371 52.599C51.2036 54.273 53.3441 54.8466 55.0182 53.8801L86.1951 35.8801C87.8691 34.9136 88.4427 32.773 87.4762 31.099C86.5097 29.4249 84.3691 28.8514 82.6951 29.8179L51.5182 47.8179ZM92.8213 25.3571L124.606 7.00593C125.707 6.3708 127.113 6.74772 127.748 7.84779C128.383 8.94787 128.007 10.3545 126.906 10.9896L95.1213 29.3408C94.0212 29.976 92.6145 29.599 91.9794 28.499C91.3443 27.3989 91.7212 25.9922 92.8213 25.3571ZM90.9402 29.099C89.9737 27.4249 90.5473 25.2844 92.2213 24.3179L124.006 5.9667C125.68 5.0002 127.821 5.57376 128.788 7.24779C129.754 8.92181 129.18 11.0624 127.506 12.0289L95.7213 30.38C94.0473 31.3465 91.9067 30.773 90.9402 29.099ZM-11.9678 85.8571L-25.8242 93.8571C-26.9243 94.4922 -27.3012 95.8989 -26.6661 96.999C-26.031 98.099 -24.6243 98.4759 -23.5242 97.8408L-9.66782 89.8408C-8.56775 89.2057 -8.19084 87.799 -8.82597 86.699C-9.4611 85.5989 -10.8678 85.222 -11.9678 85.8571ZM-26.4242 92.8179C-28.0983 93.7844 -28.6718 95.9249 -27.7053 97.599C-26.7388 99.273 -24.5983 99.8465 -22.9242 98.88L-9.06783 90.88C-7.3938 89.9136 -6.82024 87.773 -7.78674 86.099C-8.75323 84.4249 -10.8938 83.8514 -12.5678 84.8179L-26.4242 92.8179ZM43.7353 88.3381L91.3667 60.8381C92.4668 60.2029 93.8735 60.5798 94.5086 61.6799C95.1437 62.78 94.7668 64.1866 93.6667 64.8218L46.0353 92.3218C44.9353 92.9569 43.5286 92.58 42.8935 91.4799C42.2584 90.3798 42.6353 88.9732 43.7353 88.3381ZM41.8542 92.0799C40.8877 90.4059 41.4613 88.2653 43.1353 87.2988L90.7667 59.7988C92.4408 58.8323 94.5813 59.4059 95.5478 61.0799C96.5143 62.7539 95.9408 64.8945 94.2667 65.861L46.6353 93.361C44.9613 94.3275 42.8207 93.7539 41.8542 92.0799ZM140.73 32.3381L115.615 46.8381C114.515 47.4732 114.138 48.8798 114.774 49.9799C115.409 51.08 116.815 51.4569 117.915 50.8218L143.03 36.3218C144.13 35.6866 144.507 34.28 143.872 33.1799C143.237 32.0798 141.83 31.7029 140.73 32.3381ZM115.015 45.7988C113.341 46.7653 112.768 48.9059 113.734 50.5799C114.701 52.2539 116.841 52.8275 118.515 51.861L143.63 37.361C145.304 36.3945 145.878 34.2539 144.911 32.5799C143.945 30.9059 141.804 30.3323 140.13 31.2988L115.015 45.7988ZM-10.8242 119.838L34.2091 93.8381C35.3092 93.2029 36.7158 93.5798 37.3509 94.6799C37.9861 95.78 37.6092 97.1866 36.5091 97.8218L-8.52423 123.822C-9.6243 124.457 -11.031 124.08 -11.6661 122.98C-12.3012 121.88 -11.9243 120.473 -10.8242 119.838ZM-12.7053 123.58C-13.6718 121.906 -13.0983 119.765 -11.4242 118.799L33.6091 92.7988C35.2831 91.8323 37.4237 92.4059 38.3902 94.0799C39.3567 95.7539 38.7831 97.8945 37.1091 98.861L-7.92423 124.861C-9.59826 125.828 -11.7388 125.254 -12.7053 123.58ZM111.367 95.4789L33.4245 140.479C32.3245 141.114 31.9476 142.521 32.5827 143.621C33.2178 144.721 34.6245 145.098 35.7245 144.463L113.667 99.4626C114.767 98.8275 115.144 97.4208 114.509 96.3208C113.874 95.2207 112.467 94.8438 111.367 95.4789ZM32.8245 139.44C31.1505 140.406 30.577 142.547 31.5435 144.221C32.51 145.895 34.6505 146.468 36.3245 145.502L114.267 100.502C115.941 99.5354 116.514 97.3948 115.548 95.7208C114.581 94.0468 112.441 93.4732 110.767 94.4397L32.8245 139.44ZM17.633 149.596L23.8981 145.979C24.9982 145.344 26.4049 145.721 27.04 146.821C27.6751 147.921 27.2982 149.328 26.1982 149.963L19.933 153.58C18.833 154.215 17.4263 153.838 16.7912 152.738C16.1561 151.638 16.533 150.231 17.633 149.596ZM15.752 153.338C14.7855 151.664 15.359 149.524 17.033 148.557L23.2981 144.94C24.9722 143.973 27.1127 144.547 28.0792 146.221C29.0457 147.895 28.4722 150.036 26.7981 151.002L20.533 154.619C18.859 155.586 16.7185 155.012 15.752 153.338ZM152.857 71.5248L120.893 89.9792C119.793 90.6143 119.416 92.021 120.051 93.121C120.686 94.2211 122.093 94.598 123.193 93.9629L155.157 75.5085C156.257 74.8734 156.634 73.4667 155.999 72.3667C155.364 71.2666 153.957 70.8897 152.857 71.5248ZM120.293 88.9399C118.619 89.9064 118.045 92.047 119.012 93.721C119.978 95.3951 122.119 95.9686 123.793 95.0021L155.757 76.5477C157.431 75.5812 158.005 73.4407 157.038 71.7666C156.072 70.0926 153.931 69.5191 152.257 70.4856L120.293 88.9399ZM9.83031 142.554L49.2091 119.819C50.3092 119.183 51.7158 119.56 52.351 120.66C52.9861 121.76 52.6092 123.167 51.5091 123.802L12.1303 146.538C11.0302 147.173 9.62358 146.796 8.98845 145.696C8.35332 144.596 8.73023 143.189 9.83031 142.554ZM7.94922 146.296C6.98272 144.622 7.55628 142.481 9.23031 141.515L48.6091 118.779C50.2831 117.813 52.4237 118.386 53.3902 120.06C54.3567 121.734 53.7831 123.875 52.1091 124.841L12.7303 147.577C11.0563 148.543 8.91572 147.97 7.94922 146.296ZM76.9219 103.819L58.7353 114.319C57.6353 114.954 57.2584 116.361 57.8935 117.461C58.5286 118.561 59.9353 118.938 61.0353 118.302L79.2219 107.802C80.3219 107.167 80.6989 105.761 80.0637 104.661C79.4286 103.561 78.0219 103.184 76.9219 103.819ZM58.1353 113.28C56.4613 114.246 55.8878 116.387 56.8542 118.061C57.8207 119.735 59.9613 120.308 61.6353 119.342L79.8219 108.842C81.4959 107.875 82.0695 105.735 81.103 104.061C80.1365 102.387 77.9959 101.813 76.3219 102.78L58.1353 113.28ZM86.4482 98.3185L151.35 60.8475C152.45 60.2124 153.857 60.5893 154.492 61.6894C155.127 62.7895 154.75 64.1961 153.65 64.8312L88.7482 102.302C87.6482 102.937 86.2415 102.56 85.6064 101.46C84.9712 100.36 85.3481 98.9537 86.4482 98.3185ZM84.5671 102.06C83.6006 100.386 84.1742 98.2458 85.8482 97.2793L150.75 59.8083C152.424 58.8418 154.564 59.4154 155.531 61.0894C156.497 62.7634 155.924 64.904 154.25 65.8705L89.3482 103.341C87.6742 104.308 85.5336 103.734 84.5671 102.06ZM39.2091 102.498L-5.82423 128.498C-6.92431 129.133 -7.30122 130.54 -6.66609 131.64C-6.03096 132.74 -4.6243 133.117 -3.52423 132.482L41.5091 106.482C42.6092 105.847 42.9861 104.44 42.3509 103.34C41.7158 102.24 40.3092 101.863 39.2091 102.498ZM-6.42423 127.459C-8.09826 128.425 -8.67182 130.566 -7.70532 132.24C-6.73882 133.914 -4.59826 134.488 -2.92423 133.521L42.1091 107.521C43.7831 106.555 44.3567 104.414 43.3902 102.74C42.4237 101.066 40.2831 100.492 38.6091 101.459L-6.42423 127.459ZM48.7353 96.9982L79.0462 79.4982C80.1463 78.8631 81.553 79.24 82.1881 80.3401C82.8232 81.4401 82.4463 82.8468 81.3462 83.4819L51.0353 100.982C49.9353 101.617 48.5286 101.24 47.8935 100.14C47.2583 99.04 47.6353 97.6333 48.7353 96.9982ZM46.8542 100.74C45.8877 99.066 46.4613 96.9255 48.1353 95.959L78.4462 78.459C80.1202 77.4925 82.2608 78.066 83.2273 79.7401C84.1938 81.4141 83.6202 83.5547 81.9462 84.5212L51.6353 102.021C49.9613 102.988 47.8207 102.414 46.8542 100.74ZM148.328 39.4982L88.5725 73.9982C87.4724 74.6333 87.0955 76.04 87.7306 77.1401C88.3658 78.2401 89.7724 78.6171 90.8725 77.9819L150.628 43.4819C151.728 42.8468 152.105 41.4401 151.47 40.3401C150.835 39.24 149.428 38.8631 148.328 39.4982ZM87.9725 72.959C86.2985 73.9255 85.7249 76.066 86.6914 77.7401C87.6579 79.4141 89.7985 79.9877 91.4725 79.0212L151.228 44.5212C152.902 43.5547 153.476 41.4141 152.509 39.7401C151.543 38.066 149.402 37.4925 147.728 38.459L87.9725 72.959ZM22.5583 123.658L67.5917 97.6584C68.6917 97.0232 70.0984 97.4002 70.7335 98.5002C71.3686 99.6003 70.9917 101.007 69.8917 101.642L24.8583 127.642C23.7583 128.277 22.3516 127.9 21.7165 126.8C21.0813 125.7 21.4583 124.293 22.5583 123.658ZM20.6772 127.4C19.7107 125.726 20.2843 123.586 21.9583 122.619L66.9917 96.6191C68.6657 95.6526 70.8062 96.2262 71.7727 97.9002C72.7392 99.5743 72.1657 101.715 70.4917 102.681L25.4583 128.681C23.7843 129.648 21.6437 129.074 20.6772 127.4ZM108.295 74.1584L77.1181 92.1584C76.0181 92.7935 75.6412 94.2002 76.2763 95.3002C76.9114 96.4003 78.3181 96.7772 79.4181 96.1421L110.595 78.1421C111.695 77.507 112.072 76.1003 111.437 75.0002C110.802 73.9002 109.395 73.5232 108.295 74.1584ZM76.5181 91.1191C74.8441 92.0856 74.2706 94.2262 75.2371 95.9002C76.2036 97.5743 78.3441 98.1478 80.0181 97.1813L111.195 79.1813C112.869 78.2148 113.443 76.0743 112.476 74.4002C111.51 72.7262 109.369 72.1526 107.695 73.1191L76.5181 91.1191ZM117.821 68.6584L150.73 49.6584C151.83 49.0232 153.237 49.4002 153.872 50.5002C154.507 51.6003 154.13 53.007 153.03 53.6421L120.121 72.6421C119.021 73.2772 117.615 72.9003 116.979 71.8002C116.344 70.7002 116.721 69.2935 117.821 68.6584ZM115.94 72.4002C114.974 70.7262 115.547 68.5856 117.221 67.6191L150.13 48.6191C151.804 47.6526 153.945 48.2262 154.911 49.9002C155.878 51.5743 155.304 53.7148 153.63 54.6813L120.721 73.6813C119.047 74.6478 116.907 74.0743 115.94 72.4002ZM13.0322 129.158L-0.824235 137.158C-1.92431 137.793 -2.30122 139.2 -1.66609 140.3C-1.03096 141.4 0.375696 141.777 1.47577 141.142L15.3322 133.142C16.4322 132.507 16.8092 131.1 16.174 130C15.5389 128.9 14.1322 128.523 13.0322 129.158ZM-1.42423 136.119C-3.09826 137.086 -3.67182 139.226 -2.70532 140.9C-1.73882 142.574 0.401743 143.148 2.07577 142.181L15.9322 134.181C17.6062 133.215 18.1798 131.074 17.2133 129.4C16.2468 127.726 14.1062 127.153 12.4322 128.119L-1.42423 136.119ZM100.893 55.3381L106.089 52.3381C107.189 51.7029 108.596 52.0798 109.231 53.1799C109.866 54.28 109.489 55.6867 108.389 56.3218L103.193 59.3218C102.093 59.9569 100.686 59.58 100.051 58.4799C99.4161 57.3798 99.793 55.9732 100.893 55.3381ZM99.012 59.0799C98.0455 57.4059 98.619 55.2653 100.293 54.2988L105.489 51.2988C107.163 50.3323 109.304 50.9059 110.27 52.5799C111.237 54.2539 110.663 56.3945 108.989 57.361L103.793 60.361C102.119 61.3275 99.9785 60.7539 99.012 59.0799ZM61.8071 135.639L28.6599 154.777C27.5598 155.412 27.1829 156.819 27.818 157.919C28.4532 159.019 29.8598 159.396 30.9599 158.76L64.1071 139.623C65.2072 138.988 65.5841 137.581 64.9489 136.481C64.3138 135.381 62.9072 135.004 61.8071 135.639ZM28.0599 153.738C26.3859 154.704 25.8123 156.845 26.7788 158.519C27.7453 160.193 29.8859 160.766 31.5599 159.8L64.7071 140.662C66.3811 139.696 66.9547 137.555 65.9882 135.881C65.0217 134.207 62.8811 133.634 61.2071 134.6L28.0599 153.738ZM86.0559 121.639L111.171 107.139C112.271 106.504 113.677 106.881 114.312 107.981C114.948 109.081 114.571 110.488 113.471 111.123L88.3559 125.623C87.2558 126.258 85.8492 125.881 85.214 124.781C84.5789 123.681 84.9558 122.274 86.0559 121.639ZM84.1748 125.381C83.2083 123.707 83.7819 121.567 85.4559 120.6L110.571 106.1C112.245 105.134 114.385 105.707 115.352 107.381C116.318 109.055 115.745 111.196 114.071 112.162L88.9559 126.662C87.2819 127.629 85.1413 127.055 84.1748 125.381ZM150.944 84.176L120.697 101.639C119.597 102.274 119.22 103.681 119.855 104.781C120.49 105.881 121.897 106.258 122.997 105.623L153.244 88.1597C154.344 87.5246 154.721 86.1179 154.086 85.0179C153.451 83.9178 152.044 83.5409 150.944 84.176ZM120.097 100.6C118.423 101.567 117.849 103.707 118.816 105.381C119.782 107.055 121.923 107.629 123.597 106.662L153.844 89.199C155.518 88.2325 156.092 86.0919 155.125 84.4179C154.159 82.7438 152.018 82.1703 150.344 83.1368L120.097 100.6ZM83.7353 157.62L101.922 147.12C103.022 146.485 104.429 146.862 105.064 147.962C105.699 149.062 105.322 150.469 104.222 151.104L86.0353 161.604C84.9353 162.239 83.5286 161.862 82.8935 160.762C82.2584 159.662 82.6353 158.255 83.7353 157.62ZM81.8542 161.362C80.8878 159.688 81.4613 157.547 83.1353 156.581L101.322 146.081C102.996 145.114 105.136 145.688 106.103 147.362C107.069 149.036 106.496 151.176 104.822 152.143L86.6353 162.643C84.9613 163.609 82.8207 163.036 81.8542 161.362ZM139.059 125.679L111.448 141.62C110.348 142.255 109.971 143.662 110.606 144.762C111.241 145.862 112.648 146.239 113.748 145.604L141.359 129.662C142.459 129.027 142.836 127.621 142.201 126.521C141.566 125.42 140.159 125.044 139.059 125.679ZM110.848 140.581C109.174 141.547 108.601 143.688 109.567 145.362C110.534 147.036 112.674 147.609 114.348 146.643L141.959 130.702C143.633 129.735 144.207 127.595 143.24 125.921C142.274 124.247 140.133 123.673 138.459 124.639L110.848 140.581ZM41.7861 158.745L64.2091 145.799C65.3091 145.164 66.7158 145.541 67.3509 146.641C67.9861 147.741 67.6091 149.148 66.5091 149.783L44.0861 162.729C42.986 163.364 41.5794 162.987 40.9443 161.887C40.3091 160.787 40.686 159.38 41.7861 158.745ZM39.905 162.487C38.9385 160.813 39.5121 158.673 41.1861 157.706L63.6091 144.76C65.2831 143.794 67.4237 144.367 68.3902 146.041C69.3567 147.715 68.7831 149.856 67.1091 150.822L44.6861 163.768C43.0121 164.735 40.8715 164.161 39.905 162.487ZM104.046 122.799L73.7353 140.299C72.6353 140.935 72.2584 142.341 72.8935 143.441C73.5286 144.541 74.9353 144.918 76.0353 144.283L106.346 126.783C107.446 126.148 107.823 124.741 107.188 123.641C106.553 122.541 105.146 122.164 104.046 122.799ZM73.1353 139.26C71.4613 140.227 70.8877 142.367 71.8542 144.041C72.8207 145.715 74.9613 146.289 76.6353 145.322L106.946 127.822C108.62 126.856 109.194 124.715 108.227 123.041C107.261 121.367 105.12 120.794 103.446 121.76L73.1353 139.26ZM113.572 117.299L148.786 96.969C149.886 96.3338 151.293 96.7108 151.928 97.8108C152.563 98.9109 152.186 100.318 151.086 100.953L115.873 121.283C114.772 121.918 113.366 121.541 112.731 120.441C112.096 119.341 112.472 117.935 113.572 117.299ZM111.691 121.041C110.725 119.367 111.298 117.227 112.972 116.26L148.186 95.9297C149.86 94.9632 152.001 95.5368 152.967 97.2108C153.934 98.8848 153.36 101.025 151.686 101.992L116.472 122.322C114.798 123.289 112.658 122.715 111.691 121.041ZM92.5918 140.96L55.237 162.526C54.137 163.161 53.7601 164.568 54.3952 165.668C55.0303 166.768 56.437 167.145 57.537 166.51L94.8918 144.943C95.9918 144.308 96.3688 142.901 95.7336 141.801C95.0985 140.701 93.6918 140.324 92.5918 140.96ZM54.637 161.487C52.963 162.454 52.3895 164.594 53.356 166.268C54.3225 167.942 56.463 168.516 58.137 167.549L95.4918 145.982C97.1658 145.016 97.7394 142.875 96.7729 141.201C95.8064 139.527 93.6658 138.954 91.9918 139.92L54.637 161.487ZM102.118 135.46L133.295 117.46C134.395 116.825 135.802 117.201 136.437 118.302C137.072 119.402 136.695 120.808 135.595 121.443L104.418 139.443C103.318 140.078 101.911 139.702 101.276 138.602C100.641 137.501 101.018 136.095 102.118 135.46ZM100.237 139.202C99.2706 137.527 99.8441 135.387 101.518 134.42L132.695 116.42C134.369 115.454 136.51 116.027 137.476 117.702C138.443 119.376 137.869 121.516 136.195 122.483L105.018 140.483C103.344 141.449 101.204 140.876 100.237 139.202ZM146.67 109.737L142.821 111.96C141.721 112.595 141.344 114.001 141.979 115.101C142.615 116.202 144.021 116.578 145.121 115.943L148.97 113.721C150.07 113.086 150.447 111.679 149.812 110.579C149.177 109.479 147.77 109.102 146.67 109.737ZM142.221 110.92C140.547 111.887 139.974 114.027 140.94 115.701C141.907 117.376 144.047 117.949 145.721 116.983L149.57 114.76C151.244 113.794 151.818 111.653 150.851 109.979C149.885 108.305 147.744 107.732 146.07 108.698L142.221 110.92ZM71.3335 130.139L76.5296 127.139C77.6297 126.504 79.0364 126.881 79.6715 127.981C80.3066 129.081 79.9297 130.488 78.8296 131.123L73.6335 134.123C72.5334 134.758 71.1267 134.381 70.4916 133.281C69.8565 132.181 70.2334 130.774 71.3335 130.139ZM69.4524 133.881C68.4859 132.207 69.0595 130.067 70.7335 129.1L75.9296 126.1C77.6037 125.134 79.7442 125.707 80.7107 127.381C81.6772 129.055 81.1037 131.196 79.4296 132.162L74.2335 135.162C72.5595 136.129 70.4189 135.555 69.4524 133.881Z" fill="white"/>
</g>
<circle cx="54" cy="54" r="52" stroke="#DBE3F5" stroke-width="4"/>
<path d="M54 33.1667C50.6848 33.1667 47.5054 34.4837 45.1612 36.8279C42.817 39.1721 41.5 42.3515 41.5 45.6667C41.5 48.623 42.1292 50.5584 43.8437 52.698L54 64.4167L64.1562 52.698C65.8708 50.5584 66.5 48.623 66.5 45.6667C66.5 42.3515 65.183 39.1721 62.8388 36.8279C60.4946 34.4837 57.3152 33.1667 54 33.1667V33.1667Z" stroke="#111111" stroke-width="3" stroke-linecap="round" stroke-linejoin="round"/>
<path d="M39.4167 60.5481C35.5605 62.0627 33.1667 64.1689 33.1667 66.5002C33.1667 71.1043 42.4938 74.8335 54.0001 74.8335C65.5063 74.8335 74.8334 71.1043 74.8334 66.5002C74.8334 64.1689 72.4397 62.0627 68.5834 60.5481" stroke="#111111" stroke-width="3" stroke-linecap="round" stroke-linejoin="round"/>
<path d="M54.0001 47.7502C55.1507 47.7502 56.0834 46.8174 56.0834 45.6668C56.0834 44.5162 55.1507 43.5835 54.0001 43.5835C52.8495 43.5835 51.9167 44.5162 51.9167 45.6668C51.9167 46.8174 52.8495 47.7502 54.0001 47.7502Z" stroke="#111111" stroke-width="3" stroke-linecap="round" stroke-linejoin="round"/>
</svg>
