<svg width="200" height="200" viewBox="0 0 200 200" fill="none" xmlns="http://www.w3.org/2000/svg">
<ellipse cx="100" cy="100.5" rx="87" ry="87.5" fill="#DBE3F5"/>
<mask id="mask0_39_2292" style="mask-type:alpha" maskUnits="userSpaceOnUse" x="13" y="13" width="174" height="175">
<ellipse cx="100" cy="100.5" rx="87" ry="87.5" fill="#DBE3F5"/>
</mask>
<g mask="url(#mask0_39_2292)">
<path fill-rule="evenodd" clip-rule="evenodd" d="M74.5726 13.3956L82.3403 8.91089C83.4404 8.27576 84.847 8.65267 85.4822 9.75275C86.1173 10.8528 85.7404 12.2595 84.6403 12.8946L76.8726 17.3793C75.7725 18.0144 74.3658 17.6375 73.7307 16.5374C73.0956 15.4374 73.4725 14.0307 74.5726 13.3956ZM72.6915 17.1374C71.725 15.4634 72.2985 13.3229 73.9726 12.3564L81.7403 7.87166C83.4143 6.90516 85.5549 7.47872 86.5214 9.15275C87.4879 10.8268 86.9143 12.9673 85.2403 13.9338L77.4726 18.4185C75.7985 19.385 73.658 18.8115 72.6915 17.1374ZM65.0463 18.8956L34.7354 36.3956C33.6353 37.0307 33.2584 38.4374 33.8936 39.5374C34.5287 40.6375 35.9353 41.0144 37.0354 40.3793L67.3463 22.8793C68.4464 22.2442 68.8233 20.8375 68.1882 19.7374C67.553 18.6374 66.1464 18.2605 65.0463 18.8956ZM34.1354 35.3564C32.4614 36.3229 31.8878 38.4634 32.8543 40.1374C33.8208 41.8115 35.9614 42.385 37.6354 41.4185L67.9463 23.9185C69.6203 22.952 70.1939 20.8115 69.2274 19.1374C68.2609 17.4634 66.1203 16.8899 64.4463 17.8564L34.1354 35.3564ZM72.4481 37.7159L119.158 10.7478C120.258 10.1126 121.665 10.4896 122.3 11.5896C122.935 12.6897 122.558 14.0964 121.458 14.7315L74.7481 41.6996C73.648 42.3347 72.2413 41.9578 71.6062 40.8578C70.9711 39.7577 71.348 38.351 72.4481 37.7159ZM70.567 41.4578C69.6005 39.7837 70.174 37.6432 71.8481 36.6767L118.558 9.70854C120.232 8.74204 122.373 9.3156 123.339 10.9896C124.306 12.6637 123.732 14.8042 122.058 15.7707L75.3481 42.7388C73.674 43.7053 71.5335 43.1318 70.567 41.4578ZM12.982 72.0487L35.2091 59.2159C36.3091 58.5808 37.7158 58.9577 38.3509 60.0578C38.9861 61.1578 38.6091 62.5645 37.5091 63.1996L15.282 76.0324C14.1819 76.6676 12.7753 76.2906 12.1401 75.1906C11.505 74.0905 11.8819 72.6838 12.982 72.0487ZM11.1009 75.7906C10.1344 74.1165 10.708 71.976 12.382 71.0095L34.6091 58.1767C36.2831 57.2102 38.4237 57.7837 39.3902 59.4578C40.3567 61.1318 39.7831 63.2723 38.1091 64.2388L15.882 77.0717C14.208 78.0382 12.0674 77.4646 11.1009 75.7906ZM19.4244 79.8763L97.3667 34.8763C98.4667 34.2412 99.8734 34.6181 100.509 35.7182C101.144 36.8183 100.767 38.2249 99.6667 38.8601L21.7244 83.8601C20.6243 84.4952 19.2176 84.1183 18.5825 83.0182C17.9474 81.9181 18.3243 80.5115 19.4244 79.8763ZM17.5433 83.6182C16.5768 81.9442 17.1504 79.8036 18.8244 78.8371L96.7667 33.8371C98.4407 32.8706 100.581 33.4442 101.548 35.1182C102.514 36.7922 101.941 38.9328 100.267 39.8993L22.3244 84.8993C20.6503 85.8658 18.5098 85.2922 17.5433 83.6182ZM8.78265 86.0206L9.89811 85.3765C10.9982 84.7414 12.4048 85.1183 13.04 86.2184C13.6751 87.3185 13.2982 88.7251 12.1981 89.3603L11.0827 90.0043C9.98258 90.6394 8.57592 90.2625 7.94079 89.1624C7.30567 88.0623 7.68258 86.6557 8.78265 86.0206ZM6.90156 89.7624C5.93506 88.0884 6.50863 85.9478 8.18265 84.9813L9.29811 84.3373C10.9721 83.3708 13.1127 83.9444 14.0792 85.6184C15.0457 87.2924 14.4721 89.433 12.7981 90.3995L11.6827 91.0435C10.0086 92.01 7.86806 91.4364 6.90156 89.7624ZM131.975 14.8952L106.893 29.3765C105.793 30.0117 105.416 31.4183 106.051 32.5184C106.686 33.6185 108.093 33.9954 109.193 33.3603L134.275 18.8789C135.375 18.2438 135.752 16.8371 135.117 15.737C134.482 14.637 133.075 14.26 131.975 14.8952ZM106.293 28.3373C104.619 29.3038 104.045 31.4444 105.012 33.1184C105.978 34.7924 108.119 35.366 109.793 34.3995L134.875 19.9181C136.549 18.9516 137.123 16.811 136.156 15.137C135.19 13.463 133.049 12.8894 131.375 13.8559L106.293 28.3373ZM62.9219 43.2161L44.7354 53.7161C43.6353 54.3512 43.2584 55.7579 43.8936 56.858C44.5287 57.958 45.9353 58.3349 47.0354 57.6998L65.2219 47.1998C66.322 46.5647 66.6989 45.158 66.0638 44.058C65.4287 42.9579 64.022 42.581 62.9219 43.2161ZM44.1354 52.6769C42.4614 53.6434 41.8878 55.7839 42.8543 57.458C43.8208 59.132 45.9614 59.7055 47.6354 58.739L65.8219 48.239C67.496 47.2725 68.0695 45.132 67.103 43.458C66.1365 41.7839 63.996 41.2104 62.3219 42.1769L44.1354 52.6769ZM53.5917 37.0558L8.55841 63.0558C7.45834 63.691 7.08142 65.0976 7.71655 66.1977C8.35168 67.2978 9.75834 67.6747 10.8584 67.0395L55.8917 41.0396C56.9918 40.4044 57.3687 38.9978 56.7336 37.8977C56.0985 36.7976 54.6918 36.4207 53.5917 37.0558ZM7.95841 62.0166C6.28438 62.9831 5.71082 65.1237 6.67732 66.7977C7.64382 68.4717 9.78439 69.0453 11.4584 68.0788L56.4917 42.0788C58.1658 41.1123 58.7393 38.9717 57.7728 37.2977C56.8063 35.6237 54.6658 35.0501 52.9917 36.0166L7.95841 62.0166ZM63.118 31.5558L94.2949 13.5558C95.395 12.9207 96.8016 13.2976 97.4368 14.3977C98.0719 15.4978 97.695 16.9044 96.5949 17.5395L65.418 35.5395C64.3179 36.1747 62.9112 35.7978 62.2761 34.6977C61.641 33.5976 62.0179 32.191 63.118 31.5558ZM61.2369 35.2977C60.2704 33.6237 60.844 31.4831 62.518 30.5166L93.6949 12.5166C95.3689 11.5501 97.5095 12.1237 98.476 13.7977C99.4425 15.4717 98.8689 17.6123 97.1949 18.5788L66.018 36.5788C64.344 37.5453 62.2034 36.9717 61.2369 35.2977ZM108.269 5.48807L103.821 8.05583C102.721 8.69096 102.344 10.0976 102.979 11.1977C103.614 12.2978 105.021 12.6747 106.121 12.0396L110.569 9.47179C111.669 8.83666 112.046 7.43 111.41 6.32993C110.775 5.22985 109.369 4.85294 108.269 5.48807ZM103.221 7.0166C101.547 7.9831 100.974 10.1237 101.94 11.7977C102.907 13.4717 105.047 14.0453 106.721 13.0788L111.169 10.511C112.843 9.54452 113.416 7.40395 112.45 5.72993C111.483 4.0559 109.343 3.48234 107.669 4.44884L103.221 7.0166ZM14.8983 94.0366L62.5297 66.5366C63.6297 65.9015 65.0364 66.2784 65.6715 67.3785C66.3066 68.4785 65.9297 69.8852 64.8297 70.5203L17.1983 98.0203C16.0982 98.6555 14.6915 98.2785 14.0564 97.1785C13.4213 96.0784 13.7982 94.6717 14.8983 94.0366ZM13.0172 97.7785C12.0507 96.1044 12.6242 93.9639 14.2983 92.9974L61.9297 65.4974C63.6037 64.5309 65.7442 65.1044 66.7107 66.7785C67.6772 68.4525 67.1037 70.5931 65.4297 71.5596L17.7983 99.0596C16.1242 100.026 13.9837 99.4525 13.0172 97.7785ZM97.1705 46.5366L72.0557 61.0366C70.9556 61.6717 70.5787 63.0784 71.2139 64.1785C71.849 65.2785 73.2556 65.6555 74.3557 65.0203L99.4705 50.5203C100.571 49.8852 100.947 48.4785 100.312 47.3785C99.6772 46.2784 98.2705 45.9015 97.1705 46.5366ZM71.4557 59.9974C69.7817 60.9639 69.2081 63.1044 70.1746 64.7785C71.1411 66.4525 73.2817 67.0261 74.9557 66.0596L100.07 51.5596C101.744 50.5931 102.318 48.4525 101.352 46.7785C100.385 45.1044 98.2445 44.5309 96.5705 45.4974L71.4557 59.9974ZM106.697 41.0366L142.62 20.2966C143.72 19.6615 145.126 20.0384 145.761 21.1385C146.397 22.2386 146.02 23.6452 144.92 24.2803L108.997 45.0203C107.897 45.6555 106.49 45.2785 105.855 44.1785C105.22 43.0784 105.597 41.6717 106.697 41.0366ZM104.816 44.7785C103.849 43.1044 104.423 40.9639 106.097 39.9974L142.02 19.2574C143.694 18.2909 145.834 18.8645 146.801 20.5385C147.767 22.2125 147.194 24.3531 145.52 25.3196L109.597 46.0596C107.923 47.0261 105.782 46.4525 104.816 44.7785ZM122.367 78.1776L44.4244 123.178C43.3243 123.813 42.9474 125.219 43.5825 126.319C44.2176 127.42 45.6243 127.796 46.7244 127.161L124.667 82.1613C125.767 81.5262 126.144 80.1195 125.509 79.0195C124.873 77.9194 123.467 77.5425 122.367 78.1776ZM43.8244 122.138C42.1504 123.105 41.5768 125.245 42.5433 126.919C43.5098 128.594 45.6503 129.167 47.3244 128.201L125.267 83.2006C126.941 82.2341 127.514 80.0935 126.548 78.4195C125.581 76.7454 123.441 76.1719 121.767 77.1384L43.8244 122.138ZM20.1756 137.178L34.898 128.678C35.9981 128.042 37.4048 128.419 38.0399 129.519C38.675 130.62 38.2981 132.026 37.198 132.661L22.4756 141.161C21.3755 141.796 19.9689 141.42 19.3337 140.319C18.6986 139.219 19.0755 137.813 20.1756 137.178ZM18.2945 140.919C17.328 139.245 17.9016 137.105 19.5756 136.138L34.298 127.638C35.9721 126.672 38.1126 127.245 39.0791 128.919C40.0456 130.594 39.4721 132.734 37.798 133.701L23.0756 142.201C21.4016 143.167 19.261 142.594 18.2945 140.919ZM176.926 46.6776L131.893 72.6776C130.793 73.3127 130.416 74.7194 131.051 75.8195C131.686 76.9195 133.093 77.2965 134.193 76.6613L179.226 50.6613C180.326 50.0262 180.703 48.6195 180.068 47.5195C179.433 46.4194 178.026 46.0425 176.926 46.6776ZM131.293 71.6384C129.619 72.6049 129.045 74.7454 130.012 76.4195C130.978 78.0935 133.119 78.6671 134.793 77.7006L179.826 51.7006C181.5 50.7341 182.074 48.5935 181.107 46.9195C180.141 45.2454 178 44.6719 176.326 45.6384L131.293 71.6384ZM15.1756 128.517L60.2089 102.517C61.309 101.882 62.7156 102.259 63.3508 103.359C63.9859 104.459 63.609 105.866 62.5089 106.501L17.4756 132.501C16.3755 133.136 14.9689 132.759 14.3337 131.659C13.6986 130.559 14.0755 129.152 15.1756 128.517ZM13.2945 132.259C12.328 130.585 12.9016 128.445 14.5756 127.478L59.6089 101.478C61.2829 100.512 63.4235 101.085 64.39 102.759C65.3565 104.433 64.7829 106.574 63.1089 107.54L18.0756 133.54C16.4016 134.507 14.261 133.933 13.2945 132.259ZM87.9219 86.5174L69.7354 97.0174C68.6353 97.6525 68.2584 99.0592 68.8936 100.159C69.5287 101.259 70.9353 101.636 72.0354 101.001L90.2219 90.5011C91.322 89.866 91.6989 88.4593 91.0638 87.3592C90.4287 86.2592 89.022 85.8822 87.9219 86.5174ZM69.1354 95.9781C67.4614 96.9446 66.8878 99.0852 67.8543 100.759C68.8208 102.433 70.9614 103.007 72.6354 102.04L90.8219 91.5403C92.496 90.5738 93.0695 88.4332 92.103 86.7592C91.1365 85.0852 88.996 84.5116 87.3219 85.4781L69.1354 95.9781ZM97.4481 81.0172L169 39.7064C170.1 39.0713 171.507 39.4482 172.142 40.5483C172.777 41.6483 172.4 43.055 171.3 43.6901L99.7481 85.0009C98.648 85.636 97.2413 85.2591 96.6062 84.159C95.9711 83.059 96.348 81.6523 97.4481 81.0172ZM95.567 84.759C94.6005 83.085 95.174 80.9444 96.8481 79.9779L168.4 38.6672C170.074 37.7007 172.215 38.2743 173.181 39.9483C174.148 41.6223 173.574 43.7629 171.9 44.7294L100.348 86.0401C98.674 87.0066 96.5335 86.4331 95.567 84.759ZM50.209 85.1968L10.4238 108.167C9.32369 108.802 8.94678 110.209 9.58191 111.309C10.217 112.409 11.6237 112.786 12.7238 112.151L52.509 89.1806C53.6091 88.5454 53.986 87.1388 53.3509 86.0387C52.7157 84.9386 51.3091 84.5617 50.209 85.1968ZM9.82376 107.128C8.14974 108.094 7.57618 110.235 8.54268 111.909C9.50918 113.583 11.6497 114.156 13.3238 113.19L53.109 90.2198C54.783 89.2533 55.3566 87.1127 54.3901 85.4387C53.4236 83.7647 51.283 83.1911 49.609 84.1576L9.82376 107.128ZM59.7354 79.6969L90.0463 62.1969C91.1464 61.5617 92.553 61.9386 93.1882 63.0387C93.8233 64.1388 93.4464 65.5454 92.3463 66.1806L62.0354 83.6806C60.9353 84.3157 59.5287 83.9388 58.8936 82.8387C58.2584 81.7386 58.6353 80.332 59.7354 79.6969ZM57.8543 83.4387C56.8878 81.7647 57.4614 79.6241 59.1354 78.6576L89.4463 61.1576C91.1203 60.1911 93.2609 60.7647 94.2274 62.4387C95.1939 64.1127 94.6203 66.2533 92.9463 67.2198L62.6354 84.7198C60.9614 85.6863 58.8208 85.1127 57.8543 83.4387ZM151.151 26.918L99.5726 56.6969C98.4725 57.332 98.0956 58.7386 98.7307 59.8387C99.3658 60.9388 100.772 61.3157 101.873 60.6806L153.451 30.9017C154.551 30.2666 154.928 28.8599 154.293 27.7599C153.658 26.6598 152.251 26.2829 151.151 26.918ZM98.9726 55.6576C97.2985 56.6241 96.725 58.7647 97.6915 60.4387C98.658 62.1127 100.799 62.6863 102.473 61.7198L154.051 31.941C155.725 30.9745 156.299 28.8339 155.332 27.1599C154.366 25.4859 152.225 24.9123 150.551 25.8788L98.9726 55.6576ZM33.5584 106.357L78.5917 80.3571C79.6918 79.722 81.0985 80.0989 81.7336 81.199C82.3687 82.299 81.9918 83.7057 80.8917 84.3408L35.8584 110.341C34.7583 110.976 33.3517 110.599 32.7166 109.499C32.0814 108.399 32.4583 106.992 33.5584 106.357ZM31.6773 110.099C30.7108 108.425 31.2844 106.284 32.9584 105.318L77.9917 79.3179C79.6658 78.3514 81.8063 78.9249 82.7728 80.599C83.7393 82.273 83.1658 84.4136 81.4917 85.38L36.4584 111.38C34.7844 112.347 32.6438 111.773 31.6773 110.099ZM119.295 56.8571L88.118 74.8571C87.0179 75.4922 86.641 76.8989 87.2761 77.999C87.9112 79.099 89.3179 79.4759 90.418 78.8408L121.595 60.8408C122.695 60.2057 123.072 58.799 122.437 57.699C121.802 56.5989 120.395 56.222 119.295 56.8571ZM87.518 73.8179C85.844 74.7844 85.2704 76.9249 86.2369 78.599C87.2034 80.273 89.344 80.8465 91.018 79.88L122.195 61.88C123.869 60.9135 124.442 58.773 123.476 57.099C122.509 55.4249 120.369 54.8514 118.695 55.8179L87.518 73.8179ZM128.821 51.3571L160.606 33.0059C161.706 32.3708 163.113 32.7477 163.748 33.8478C164.383 34.9479 164.006 36.3545 162.906 36.9897L131.121 55.3408C130.021 55.976 128.614 55.599 127.979 54.499C127.344 53.3989 127.721 51.9922 128.821 51.3571ZM126.94 55.099C125.974 53.4249 126.547 51.2844 128.221 50.3179L160.006 31.9667C161.68 31.0002 163.821 31.5738 164.787 33.2478C165.754 34.9218 165.18 37.0624 163.506 38.0289L131.721 56.3801C130.047 57.3466 127.907 56.773 126.94 55.099ZM24.0321 111.857L10.1757 119.857C9.07565 120.492 8.69873 121.899 9.33386 122.999C9.96899 124.099 11.3756 124.476 12.4757 123.841L26.3321 115.841C27.4322 115.206 27.8091 113.799 27.174 112.699C26.5389 111.599 25.1322 111.222 24.0321 111.857ZM9.57572 118.818C7.90169 119.784 7.32813 121.925 8.29463 123.599C9.26113 125.273 11.4017 125.847 13.0757 124.88L26.9321 116.88C28.6061 115.914 29.1797 113.773 28.2132 112.099C27.2467 110.425 25.1061 109.851 23.4321 110.818L9.57572 118.818ZM79.7354 114.338L127.367 86.8379C128.467 86.2027 129.874 86.5797 130.509 87.6797C131.144 88.7798 130.767 90.1865 129.667 90.8216L82.0354 118.322C80.9353 118.957 79.5287 118.58 78.8936 117.48C78.2584 116.38 78.6353 114.973 79.7354 114.338ZM77.8543 118.08C76.8878 116.406 77.4614 114.265 79.1354 113.299L126.767 85.7987C128.441 84.8322 130.581 85.4057 131.548 87.0797C132.514 88.7538 131.941 90.8943 130.267 91.8608L82.6354 119.361C80.9614 120.327 78.8208 119.754 77.8543 118.08ZM176.73 58.3379L151.616 72.8379C150.515 73.473 150.139 74.8797 150.774 75.9797C151.409 77.0798 152.815 77.4567 153.916 76.8216L179.03 62.3216C180.13 61.6865 180.507 60.2798 179.872 59.1797C179.237 58.0797 177.83 57.7028 176.73 58.3379ZM151.016 71.7987C149.342 72.7652 148.768 74.9057 149.734 76.5797C150.701 78.2538 152.842 78.8273 154.516 77.8608L179.63 63.3608C181.304 62.3943 181.878 60.2538 180.911 58.5797C179.945 56.9057 177.804 56.3322 176.13 57.2987L151.016 71.7987ZM25.1756 145.838L70.2089 119.838C71.309 119.203 72.7156 119.58 73.3508 120.68C73.9859 121.78 73.609 123.186 72.5089 123.822L27.4756 149.822C26.3755 150.457 24.9689 150.08 24.3337 148.98C23.6986 147.88 24.0755 146.473 25.1756 145.838ZM23.2945 149.58C22.328 147.906 22.9016 145.765 24.5756 144.799L69.6089 118.799C71.2829 117.832 73.4235 118.406 74.39 120.08C75.3565 121.754 74.7829 123.894 73.1089 124.861L28.0756 150.861C26.4016 151.827 24.261 151.254 23.2945 149.58ZM147.367 121.479L69.4244 166.479C68.3243 167.114 67.9474 168.521 68.5825 169.621C69.2176 170.721 70.6243 171.098 71.7244 170.463L149.667 125.463C150.767 124.827 151.144 123.421 150.509 122.321C149.873 121.221 148.467 120.844 147.367 121.479ZM68.8244 165.44C67.1503 166.406 66.5768 168.547 67.5433 170.221C68.5098 171.895 70.6503 172.468 72.3244 171.502L150.267 126.502C151.941 125.535 152.514 123.395 151.548 121.721C150.581 120.047 148.441 119.473 146.767 120.44L68.8244 165.44ZM53.6331 175.596L59.8982 171.979C60.9983 171.344 62.405 171.721 63.0401 172.821C63.6752 173.921 63.2983 175.328 62.1982 175.963L55.9331 179.58C54.833 180.215 53.4264 179.838 52.7913 178.738C52.1561 177.638 52.533 176.231 53.6331 175.596ZM51.752 179.338C50.7855 177.664 51.3591 175.523 53.0331 174.557L59.2982 170.94C60.9722 169.973 63.1128 170.547 64.0793 172.221C65.0458 173.895 64.4722 176.036 62.7982 177.002L56.5331 180.619C54.8591 181.586 52.7185 181.012 51.752 179.338ZM188.857 97.5247L156.893 115.979C155.793 116.614 155.416 118.021 156.051 119.121C156.686 120.221 158.093 120.598 159.193 119.963L191.157 101.508C192.257 100.873 192.634 99.4666 191.999 98.3666C191.364 97.2665 189.957 96.8896 188.857 97.5247ZM156.293 114.94C154.619 115.906 154.045 118.047 155.012 119.721C155.978 121.395 158.119 121.969 159.793 121.002L191.757 102.548C193.431 101.581 194.004 99.4406 193.038 97.7666C192.071 96.0925 189.931 95.519 188.257 96.4855L156.293 114.94ZM45.8301 168.554L85.2089 145.818C86.309 145.183 87.7157 145.56 88.3508 146.66C88.9859 147.76 88.609 149.167 87.5089 149.802L48.1301 172.538C47.0301 173.173 45.6234 172.796 44.9883 171.696C44.3532 170.596 44.7301 169.189 45.8301 168.554ZM43.9491 172.296C42.9826 170.622 43.5561 168.481 45.2301 167.515L84.6089 144.779C86.283 143.813 88.4235 144.386 89.39 146.06C90.3565 147.734 89.783 149.875 88.1089 150.841L48.7301 173.577C47.0561 174.543 44.9155 173.97 43.9491 172.296ZM112.922 129.819L94.7354 140.319C93.6353 140.954 93.2584 142.36 93.8936 143.46C94.5287 144.561 95.9353 144.937 97.0354 144.302L115.222 133.802C116.322 133.167 116.699 131.761 116.064 130.66C115.429 129.56 114.022 129.184 112.922 129.819ZM94.1354 139.279C92.4614 140.246 91.8878 142.386 92.8543 144.06C93.8208 145.735 95.9614 146.308 97.6354 145.342L115.822 134.842C117.496 133.875 118.07 131.735 117.103 130.06C116.137 128.386 113.996 127.813 112.322 128.779L94.1354 139.279ZM122.448 124.318L187.35 86.8474C188.45 86.2123 189.856 86.5892 190.492 87.6893C191.127 88.7894 190.75 90.196 189.65 90.8312L124.748 128.302C123.648 128.937 122.241 128.56 121.606 127.46C120.971 126.36 121.348 124.954 122.448 124.318ZM120.567 128.06C119.6 126.386 120.174 124.246 121.848 123.279L186.75 85.8082C188.424 84.8417 190.564 85.4153 191.531 87.0893C192.497 88.7633 191.924 90.9039 190.25 91.8704L125.348 129.341C123.674 130.308 121.533 129.734 120.567 128.06ZM75.2089 128.498L30.1756 154.498C29.0755 155.133 28.6986 156.54 29.3337 157.64C29.9689 158.74 31.3755 159.117 32.4756 158.482L77.5089 132.482C78.609 131.847 78.9859 130.44 78.3508 129.34C77.7156 128.24 76.309 127.863 75.2089 128.498ZM29.5756 153.459C27.9016 154.425 27.328 156.566 28.2945 158.24C29.261 159.914 31.4016 160.488 33.0756 159.521L78.1089 133.521C79.7829 132.555 80.3565 130.414 79.39 128.74C78.4235 127.066 76.2829 126.492 74.6089 127.459L29.5756 153.459ZM84.7354 122.998L115.046 105.498C116.146 104.863 117.553 105.24 118.188 106.34C118.823 107.44 118.446 108.847 117.346 109.482L87.0354 126.982C85.9353 127.617 84.5287 127.24 83.8936 126.14C83.2584 125.04 83.6353 123.633 84.7354 122.998ZM82.8543 126.74C81.8878 125.066 82.4614 122.925 84.1354 121.959L114.446 104.459C116.12 103.492 118.261 104.066 119.227 105.74C120.194 107.414 119.62 109.555 117.946 110.521L87.6354 128.021C85.9614 128.988 83.8208 128.414 82.8543 126.74ZM184.328 65.4981L124.573 99.9981C123.472 100.633 123.096 102.04 123.731 103.14C124.366 104.24 125.772 104.617 126.873 103.982L186.628 69.4818C187.728 68.8467 188.105 67.4401 187.47 66.34C186.835 65.2399 185.428 64.863 184.328 65.4981ZM123.973 98.9589C122.299 99.9254 121.725 102.066 122.691 103.74C123.658 105.414 125.799 105.988 127.473 105.021L187.228 70.5211C188.902 69.5546 189.476 67.414 188.509 65.74C187.543 64.066 185.402 63.4924 183.728 64.4589L123.973 98.9589ZM58.5584 149.658L103.592 123.658C104.692 123.023 106.098 123.4 106.734 124.5C107.369 125.6 106.992 127.007 105.892 127.642L60.8584 153.642C59.7583 154.277 58.3517 153.9 57.7166 152.8C57.0814 151.7 57.4583 150.294 58.5584 149.658ZM56.6773 153.4C55.7108 151.726 56.2844 149.586 57.9584 148.619L102.992 122.619C104.666 121.653 106.806 122.226 107.773 123.9C108.739 125.574 108.166 127.715 106.492 128.681L61.4584 154.681C59.7844 155.648 57.6438 155.074 56.6773 153.4ZM144.295 100.158L113.118 118.158C112.018 118.794 111.641 120.2 112.276 121.3C112.911 122.4 114.318 122.777 115.418 122.142L146.595 104.142C147.695 103.507 148.072 102.1 147.437 101C146.802 99.9002 145.395 99.5232 144.295 100.158ZM112.518 117.119C110.844 118.086 110.27 120.226 111.237 121.9C112.203 123.574 114.344 124.148 116.018 123.181L147.195 105.181C148.869 104.215 149.442 102.074 148.476 100.4C147.509 98.7262 145.369 98.1526 143.695 99.1191L112.518 117.119ZM153.821 94.6584L186.73 75.6584C187.83 75.0232 189.237 75.4002 189.872 76.5002C190.507 77.6003 190.13 79.007 189.03 79.6421L156.121 98.6421C155.021 99.2772 153.614 98.9003 152.979 97.8002C152.344 96.7002 152.721 95.2935 153.821 94.6584ZM151.94 98.4002C150.974 96.7262 151.547 94.5856 153.221 93.6191L186.13 74.6191C187.804 73.6526 189.945 74.2262 190.911 75.9002C191.878 77.5743 191.304 79.7148 189.63 80.6813L156.721 99.6813C155.047 100.648 152.907 100.074 151.94 98.4002ZM49.032 155.158L35.1756 163.158C34.0755 163.793 33.6986 165.2 34.3337 166.3C34.9689 167.4 36.3755 167.777 37.4756 167.142L51.332 159.142C52.4321 158.507 52.809 157.1 52.1739 156C51.5387 154.9 50.1321 154.523 49.032 155.158ZM34.5756 162.119C32.9016 163.086 32.328 165.226 33.2945 166.9C34.261 168.574 36.4016 169.148 38.0756 168.181L51.932 160.181C53.606 159.215 54.1796 157.074 53.2131 155.4C52.2466 153.726 50.106 153.153 48.432 154.119L34.5756 162.119ZM136.893 81.3379L142.089 78.3379C143.189 77.7028 144.596 78.0797 145.231 79.1797C145.866 80.2798 145.489 81.6865 144.389 82.3216L139.193 85.3216C138.093 85.9567 136.686 85.5798 136.051 84.4797C135.416 83.3797 135.793 81.973 136.893 81.3379ZM135.012 85.0797C134.045 83.4057 134.619 81.2652 136.293 80.2987L141.489 77.2987C143.163 76.3322 145.304 76.9057 146.27 78.5797C147.237 80.2538 146.663 82.3943 144.989 83.3608L139.793 86.3608C138.119 87.3273 135.978 86.7538 135.012 85.0797ZM97.8072 161.639L64.66 180.777C63.5599 181.412 63.183 182.819 63.8181 183.919C64.4532 185.019 65.8599 185.396 66.96 184.76L100.107 165.623C101.207 164.988 101.584 163.581 100.949 162.481C100.314 161.381 98.9072 161.004 97.8072 161.639ZM64.06 179.738C62.3859 180.704 61.8124 182.845 62.7789 184.519C63.7454 186.193 65.8859 186.766 67.56 185.8L100.707 166.662C102.381 165.696 102.955 163.555 101.988 161.881C101.022 160.207 98.8812 159.634 97.2072 160.6L64.06 179.738ZM122.056 147.639L147.17 133.139C148.271 132.504 149.677 132.881 150.312 133.981C150.947 135.081 150.571 136.488 149.47 137.123L124.356 151.623C123.256 152.258 121.849 151.881 121.214 150.781C120.579 149.681 120.956 148.274 122.056 147.639ZM120.175 151.381C119.208 149.707 119.782 147.566 121.456 146.6L146.57 132.1C148.244 131.133 150.385 131.707 151.352 133.381C152.318 135.055 151.744 137.196 150.07 138.162L124.956 152.662C123.282 153.629 121.141 153.055 120.175 151.381ZM186.944 110.176L156.697 127.639C155.597 128.274 155.22 129.681 155.855 130.781C156.49 131.881 157.897 132.258 158.997 131.623L189.244 114.16C190.344 113.524 190.721 112.118 190.086 111.018C189.451 109.918 188.044 109.541 186.944 110.176ZM156.097 126.6C154.423 127.566 153.849 129.707 154.816 131.381C155.782 133.055 157.923 133.629 159.597 132.662L189.844 115.199C191.518 114.232 192.092 112.092 191.125 110.418C190.159 108.744 188.018 108.17 186.344 109.137L156.097 126.6ZM119.735 183.62L137.922 173.12C139.022 172.485 140.429 172.862 141.064 173.962C141.699 175.062 141.322 176.468 140.222 177.104L122.035 187.604C120.935 188.239 119.529 187.862 118.894 186.762C118.258 185.662 118.635 184.255 119.735 183.62ZM117.854 187.362C116.888 185.688 117.461 183.547 119.135 182.581L137.322 172.081C138.996 171.114 141.137 171.688 142.103 173.362C143.07 175.036 142.496 177.176 140.822 178.143L122.635 188.643C120.961 189.609 118.821 189.036 117.854 187.362ZM175.059 151.679L147.448 167.62C146.348 168.255 145.971 169.662 146.606 170.762C147.241 171.862 148.648 172.239 149.748 171.603L177.359 155.662C178.459 155.027 178.836 153.621 178.201 152.52C177.566 151.42 176.159 151.043 175.059 151.679ZM146.848 166.58C145.174 167.547 144.6 169.688 145.567 171.362C146.533 173.036 148.674 173.609 150.348 172.643L177.959 156.702C179.633 155.735 180.206 153.594 179.24 151.92C178.273 150.246 176.133 149.673 174.459 150.639L146.848 166.58ZM77.7859 184.745L100.209 171.799C101.309 171.164 102.716 171.541 103.351 172.641C103.986 173.741 103.609 175.148 102.509 175.783L80.086 188.729C78.9859 189.364 77.5792 188.987 76.9441 187.887C76.309 186.787 76.6859 185.38 77.7859 184.745ZM75.9049 188.487C74.9384 186.813 75.5119 184.673 77.1859 183.706L99.6089 170.76C101.283 169.794 103.423 170.367 104.39 172.041C105.356 173.715 104.783 175.856 103.109 176.822L80.686 189.768C79.0119 190.735 76.8714 190.161 75.9049 188.487ZM140.046 148.799L109.735 166.299C108.635 166.935 108.258 168.341 108.894 169.441C109.529 170.541 110.935 170.918 112.035 170.283L142.346 152.783C143.446 152.148 143.823 150.741 143.188 149.641C142.553 148.541 141.146 148.164 140.046 148.799ZM109.135 165.26C107.461 166.227 106.888 168.367 107.854 170.041C108.821 171.715 110.961 172.289 112.635 171.322L142.946 153.822C144.62 152.856 145.194 150.715 144.227 149.041C143.261 147.367 141.12 146.794 139.446 147.76L109.135 165.26ZM149.573 143.299L184.786 122.969C185.886 122.334 187.293 122.711 187.928 123.811C188.563 124.911 188.186 126.317 187.086 126.953L151.873 147.283C150.772 147.918 149.366 147.541 148.731 146.441C148.096 145.341 148.472 143.935 149.573 143.299ZM147.691 147.041C146.725 145.367 147.299 143.227 148.973 142.26L184.186 121.93C185.86 120.963 188.001 121.537 188.967 123.211C189.934 124.885 189.36 127.025 187.686 127.992L152.473 148.322C150.799 149.289 148.658 148.715 147.691 147.041ZM128.592 166.96L91.2369 188.526C90.1368 189.161 89.7599 190.568 90.395 191.668C91.0301 192.768 92.4368 193.145 93.5369 192.51L130.892 170.943C131.992 170.308 132.369 168.901 131.733 167.801C131.098 166.701 129.692 166.324 128.592 166.96ZM90.6369 187.487C88.9629 188.454 88.3893 190.594 89.3558 192.268C90.3223 193.942 92.4629 194.516 94.1369 193.549L131.492 171.983C133.166 171.016 133.739 168.875 132.773 167.201C131.806 165.527 129.666 164.954 127.992 165.92L90.6369 187.487ZM138.118 161.46L169.295 143.46C170.395 142.825 171.802 143.201 172.437 144.301C173.072 145.402 172.695 146.808 171.595 147.443L140.418 165.443C139.318 166.078 137.911 165.702 137.276 164.601C136.641 163.501 137.018 162.095 138.118 161.46ZM136.237 165.201C135.27 163.527 135.844 161.387 137.518 160.42L168.695 142.42C170.369 141.454 172.509 142.027 173.476 143.701C174.442 145.376 173.869 147.516 172.195 148.483L141.018 166.483C139.344 167.449 137.203 166.876 136.237 165.201ZM182.67 135.737L178.821 137.96C177.721 138.595 177.344 140.001 177.979 141.102C178.614 142.202 180.021 142.578 181.121 141.943L184.97 139.721C186.07 139.086 186.447 137.679 185.812 136.579C185.177 135.479 183.77 135.102 182.67 135.737ZM178.221 136.92C176.547 137.887 175.974 140.027 176.94 141.702C177.907 143.376 180.047 143.949 181.721 142.983L185.57 140.76C187.244 139.794 187.818 137.653 186.851 135.979C185.885 134.305 183.744 133.732 182.07 134.698L178.221 136.92ZM107.333 156.139L112.529 153.139C113.63 152.504 115.036 152.881 115.671 153.981C116.306 155.081 115.93 156.488 114.829 157.123L109.633 160.123C108.533 160.758 107.127 160.381 106.491 159.281C105.856 158.181 106.233 156.774 107.333 156.139ZM105.452 159.881C104.486 158.207 105.059 156.066 106.733 155.1L111.929 152.1C113.603 151.133 115.744 151.707 116.711 153.381C117.677 155.055 117.103 157.196 115.429 158.162L110.233 161.162C108.559 162.129 106.419 161.555 105.452 159.881Z" fill="white"/>
</g>
<path d="M122.5 82C122.5 83.1935 122.026 84.3381 121.182 85.182C120.338 86.0259 119.193 86.5 118 86.5C116.807 86.5 115.662 86.0259 114.818 85.182C113.974 84.3381 113.5 83.1935 113.5 82C113.5 80.8065 113.974 79.6619 114.818 78.818C115.662 77.9741 116.807 77.5 118 77.5C119.193 77.5 120.338 77.9741 121.182 78.818C122.026 79.6619 122.5 80.8065 122.5 82ZM111.25 64C97.408 64 86.5 74.908 86.5 88.75C86.5 90.5365 86.68 92.332 87.049 94.0375C87.31 95.2525 87.013 96.3055 86.41 96.9085L65.98 117.338C65.352 117.966 64.8538 118.711 64.514 119.531C64.1743 120.351 63.9996 121.23 64 122.118V129.25C64 131.04 64.7112 132.757 65.977 134.023C67.2429 135.289 68.9598 136 70.75 136H79.75C81.5402 136 83.2571 135.289 84.523 134.023C85.7888 132.757 86.5 131.04 86.5 129.25V127H91C92.1935 127 93.3381 126.526 94.182 125.682C95.0259 124.838 95.5 123.693 95.5 122.5V118H100C101.193 118 102.338 117.526 103.182 116.682C104.026 115.838 104.5 114.693 104.5 113.5V112.69C106.718 113.293 109.032 113.5 111.25 113.5C125.092 113.5 136 102.592 136 88.75C136 74.908 125.092 64 111.25 64ZM91 88.75C91 77.392 99.892 68.5 111.25 68.5C122.608 68.5 131.5 77.392 131.5 88.75C131.5 100.108 122.608 109 111.25 109C108.28 109 105.521 108.572 103.258 107.438C102.915 107.267 102.534 107.185 102.15 107.202C101.767 107.219 101.394 107.334 101.068 107.536C100.742 107.737 100.472 108.019 100.285 108.354C100.098 108.689 100 109.066 100 109.45V113.5H95.5C94.3065 113.5 93.1619 113.974 92.318 114.818C91.4741 115.662 91 116.807 91 118V122.5H86.5C85.3065 122.5 84.1619 122.974 83.318 123.818C82.4741 124.662 82 125.807 82 127V129.25C82 129.847 81.7629 130.419 81.341 130.841C80.919 131.263 80.3467 131.5 79.75 131.5H70.75C70.1533 131.5 69.581 131.263 69.159 130.841C68.7371 130.419 68.5 129.847 68.5 129.25V122.113C68.5001 121.517 68.7364 120.946 69.157 120.524L89.5915 100.09C91.5355 98.146 91.9405 95.392 91.4455 93.088C91.1453 91.6616 90.996 90.2076 91 88.75Z" fill="#111111"/>
<circle cx="100" cy="100" r="98" stroke="#DBE3F5" stroke-width="4"/>
</svg>
