<svg width="50" height="50" viewBox="0 0 50 50" fill="none" xmlns="http://www.w3.org/2000/svg">
<rect x="0.5" y="0.5" width="49" height="49" rx="24.5" stroke="#DBE3F5"/>
<path d="M32.5 23.3333C32.5 29.1666 25 34.1666 25 34.1666C25 34.1666 17.5 29.1666 17.5 23.3333C17.5 21.3441 18.2902 19.4365 19.6967 18.03C21.1032 16.6234 23.0109 15.8333 25 15.8333C26.9891 15.8333 28.8968 16.6234 30.3033 18.03C31.7098 19.4365 32.5 21.3441 32.5 23.3333Z" stroke="#626262" stroke-width="1.5" stroke-linecap="round" stroke-linejoin="round"/>
<path d="M25 25.8333C26.3807 25.8333 27.5 24.714 27.5 23.3333C27.5 21.9525 26.3807 20.8333 25 20.8333C23.6193 20.8333 22.5 21.9525 22.5 23.3333C22.5 24.714 23.6193 25.8333 25 25.8333Z" stroke="#626262" stroke-width="1.5" stroke-linecap="round" stroke-linejoin="round"/>
</svg>
