<svg width="153" height="153" viewBox="0 0 153 153" fill="none" xmlns="http://www.w3.org/2000/svg">
<ellipse cx="76.555" cy="76.9375" rx="66.555" ry="66.9375" fill="#DBE3F5"/>
<mask id="mask0_39_2297" style="mask-type:alpha" maskUnits="userSpaceOnUse" x="10" y="10" width="134" height="134">
<ellipse cx="76.5575" cy="76.94" rx="66.5575" ry="66.94" fill="#DBE3F5"/>
</mask>
<g mask="url(#mask0_39_2297)">
<path fill-rule="evenodd" clip-rule="evenodd" d="M51.5725 -9.60433L59.3402 -14.089C60.4403 -14.7242 61.847 -14.3472 62.4821 -13.2472C63.1172 -12.1471 62.7403 -10.7404 61.6402 -10.1053L53.8725 -5.62061C52.7724 -4.98548 51.3658 -5.36239 50.7306 -6.46247C50.0955 -7.56254 50.4724 -8.9692 51.5725 -9.60433ZM49.6914 -5.86247C48.7249 -7.53649 49.2985 -9.67706 50.9725 -10.6436L58.7402 -15.1283C60.4143 -16.0948 62.5548 -15.5212 63.5213 -13.8472C64.4878 -12.1731 63.9143 -10.0326 62.2402 -9.06608L54.4725 -4.58138C52.7985 -3.61488 50.6579 -4.18844 49.6914 -5.86247ZM42.0462 -4.10432L11.7353 13.3957C10.6353 14.0308 10.2584 15.4375 10.8935 16.5375C11.5286 17.6376 12.9353 18.0145 14.0353 17.3794L44.3462 -0.120605C45.4463 -0.755737 45.8232 -2.16239 45.1881 -3.26246C44.553 -4.36254 43.1463 -4.73945 42.0462 -4.10432ZM11.1353 12.3564C9.46131 13.3229 8.88775 15.4635 9.85425 17.1375C10.8207 18.8116 12.9613 19.3851 14.6353 18.4186L44.9462 0.918625C46.6202 -0.0478738 47.1938 -2.18844 46.2273 -3.86246C45.2608 -5.53649 43.1202 -6.11005 41.4462 -5.14355L11.1353 12.3564ZM-10.0181 49.0488L12.209 36.216C13.3091 35.5809 14.7157 35.9578 15.3509 37.0579C15.986 38.1579 15.6091 39.5646 14.509 40.1997L-7.71808 53.0325C-8.81815 53.6677 -10.2248 53.2907 -10.8599 52.1907C-11.4951 51.0906 -11.1182 49.6839 -10.0181 49.0488ZM-11.8992 52.7907C-12.8657 51.1166 -12.2921 48.9761 -10.6181 48.0096L11.609 35.1768C13.283 34.2103 15.4236 34.7838 16.3901 36.4579C17.3566 38.1319 16.783 40.2725 15.109 41.2389L-7.11808 54.0718C-8.79211 55.0383 -10.9327 54.4647 -11.8992 52.7907ZM-3.57545 56.8765L74.3668 11.8765C75.4669 11.2413 76.8736 11.6182 77.5087 12.7183C78.1438 13.8184 77.7669 15.225 76.6668 15.8602L-1.27546 60.8602C-2.37553 61.4953 -3.78218 61.1184 -4.41731 60.0183C-5.05244 58.9182 -4.67553 57.5116 -3.57545 56.8765ZM-5.45654 60.6183C-6.42304 58.9443 -5.84948 56.8037 -4.17545 55.8372L73.7668 10.8372C75.4409 9.87072 77.5814 10.4443 78.5479 12.1183C79.5144 13.7923 78.9409 15.9329 77.2668 16.8994L-0.675455 61.8994C-2.34948 62.8659 -4.49004 62.2923 -5.45654 60.6183ZM-14.2173 63.0206L-13.1018 62.3766C-12.0018 61.7415 -10.5951 62.1184 -9.95998 63.2185C-9.32485 64.3185 -9.70176 65.7252 -10.8018 66.3603L-11.9173 67.0043C-13.0174 67.6395 -14.424 67.2625 -15.0592 66.1625C-15.6943 65.0624 -15.3174 63.6557 -14.2173 63.0206ZM-16.0984 66.7625C-17.0649 65.0884 -16.4913 62.9479 -14.8173 61.9814L-13.7018 61.3374C-12.0278 60.3709 -9.88725 60.9444 -8.92075 62.6185C-7.95425 64.2925 -8.52782 66.433 -10.2018 67.3995L-11.3173 68.0436C-12.9913 69.0101 -15.1319 68.4365 -16.0984 66.7625ZM108.976 -8.10475L83.893 6.37663C82.793 7.01176 82.4161 8.41842 83.0512 9.5185C83.6863 10.6186 85.093 10.9955 86.193 10.3604L111.276 -4.12103C112.376 -4.75616 112.753 -6.16281 112.117 -7.26288C111.482 -8.36296 110.076 -8.73987 108.976 -8.10475ZM83.293 5.3374C81.619 6.3039 81.0455 8.44447 82.012 10.1185C82.9785 11.7925 85.119 12.3661 86.7931 11.3996L111.876 -3.0818C113.55 -4.04829 114.123 -6.18887 113.157 -7.86289C112.19 -9.53692 110.05 -10.1105 108.376 -9.14398L83.293 5.3374ZM39.9219 20.2162L21.7353 30.7162C20.6353 31.3513 20.2584 32.758 20.8935 33.858C21.5286 34.9581 22.9353 35.335 24.0353 34.6999L42.2219 24.1999C43.3219 23.5648 43.6989 22.1581 43.0637 21.058C42.4286 19.958 41.0219 19.581 39.9219 20.2162ZM21.1353 29.6769C19.4613 30.6434 18.8877 32.784 19.8542 34.458C20.8207 36.1321 22.9613 36.7056 24.6353 35.7391L42.8219 25.2391C44.4959 24.2726 45.0695 22.1321 44.103 20.458C43.1365 18.784 40.9959 18.2104 39.3219 19.1769L21.1353 29.6769ZM49.4482 14.716L96.1584 -12.2521C97.2585 -12.8873 98.6651 -12.5104 99.3002 -11.4103C99.9354 -10.3102 99.5585 -8.90355 98.4584 -8.26843L51.7482 18.6997C50.6482 19.3348 49.2415 18.9579 48.6064 17.8578C47.9712 16.7578 48.3482 15.3511 49.4482 14.716ZM47.5671 18.4578C46.6006 16.7838 47.1742 14.6433 48.8482 13.6768L95.5584 -13.2914C97.2324 -14.2579 99.373 -13.6843 100.339 -12.0103C101.306 -10.3363 100.732 -8.19569 99.0584 -7.2292L52.3482 19.7389C50.6742 20.7054 48.5336 20.1319 47.5671 18.4578ZM30.5917 14.056L-14.4417 40.056C-15.5417 40.6911 -15.9187 42.0977 -15.2835 43.1978C-14.6484 44.2979 -13.2417 44.6748 -12.1417 44.0397L32.8917 18.0397C33.9917 17.4045 34.3686 15.9979 33.7335 14.8978C33.0984 13.7977 31.6917 13.4208 30.5917 14.056ZM-15.0417 39.0167C-16.7157 39.9832 -17.2893 42.1238 -16.3228 43.7978C-15.3563 45.4718 -13.2157 46.0454 -11.5417 45.0789L33.4917 19.0789C35.1657 18.1124 35.7392 15.9718 34.7727 14.2978C33.8062 12.6238 31.6657 12.0502 29.9917 13.0167L-15.0417 39.0167ZM40.1182 8.55595L71.2951 -9.44405C72.3951 -10.0792 73.8018 -9.70226 74.4369 -8.60219C75.0721 -7.50212 74.6951 -6.09545 73.5951 -5.46033L42.4182 12.5397C41.3181 13.1748 39.9114 12.7979 39.2763 11.6978C38.6412 10.5977 39.0181 9.19108 40.1182 8.55595ZM38.2371 12.2978C37.2706 10.6238 37.8441 8.48322 39.5182 7.51672L70.6951 -10.4833C72.3691 -11.4498 74.5097 -10.8762 75.4762 -9.20219C76.4427 -7.52816 75.8691 -5.3876 74.1951 -4.4211L43.0182 13.5789C41.3441 14.5454 39.2036 13.9718 38.2371 12.2978ZM85.2688 -17.5118L80.8213 -14.944C79.7212 -14.3089 79.3443 -12.9023 79.9794 -11.8022C80.6145 -10.7021 82.0212 -10.3252 83.1213 -10.9603L87.5688 -13.5281C88.6688 -14.1632 89.0458 -15.5699 88.4106 -16.67C87.7755 -17.77 86.3688 -18.1469 85.2688 -17.5118ZM80.2213 -15.9833C78.5473 -15.0168 77.9737 -12.8762 78.9402 -11.2022C79.9067 -9.52816 82.0473 -8.9546 83.7213 -9.9211L88.1688 -12.4889C89.8428 -13.4554 90.4164 -15.5959 89.4499 -17.27C88.4834 -18.944 86.3428 -19.5175 84.6688 -18.551L80.2213 -15.9833ZM-8.10182 71.0367L39.5296 43.5367C40.6296 42.9015 42.0363 43.2785 42.6714 44.3785C43.3066 45.4786 42.9296 46.8853 41.8296 47.5204L-5.80182 75.0204C-6.90189 75.6555 -8.30855 75.2786 -8.94368 74.1785C-9.57881 73.0785 -9.20189 71.6718 -8.10182 71.0367ZM-9.98291 74.7785C-10.9494 73.1045 -10.3758 70.9639 -8.70182 69.9974L38.9296 42.4974C40.6036 41.5309 42.7442 42.1045 43.7107 43.7785C44.6772 45.4525 44.1036 47.5931 42.4296 48.5596L-5.20182 76.0596C-6.87584 77.0261 -9.01641 76.4526 -9.98291 74.7785ZM74.1706 23.5367L49.0559 38.0367C47.9558 38.6718 47.5789 40.0785 48.214 41.1785C48.8492 42.2786 50.2558 42.6555 51.3559 42.0204L76.4706 27.5204C77.5707 26.8853 77.9476 25.4786 77.3125 24.3785C76.6774 23.2784 75.2707 22.9015 74.1706 23.5367ZM48.4559 36.9974C46.7819 37.9639 46.2083 40.1045 47.1748 41.7785C48.1413 43.4525 50.2819 44.0261 51.9559 43.0596L77.0706 28.5596C78.7447 27.5931 79.3182 25.4525 78.3517 23.7785C77.3852 22.1045 75.2447 21.5309 73.5706 22.4974L48.4559 36.9974ZM83.697 18.0367L119.62 -2.70333C120.72 -3.33845 122.126 -2.96154 122.762 -1.86146C123.397 -0.761388 123.02 0.645265 121.92 1.28039L85.997 22.0204C84.8969 22.6555 83.4903 22.2786 82.8551 21.1785C82.22 20.0785 82.5969 18.6718 83.697 18.0367ZM81.8159 21.7785C80.8494 20.1045 81.423 17.9639 83.097 16.9974L119.02 -3.74256C120.694 -4.70905 122.834 -4.13549 123.801 -2.46147C124.767 -0.787443 124.194 1.35313 122.52 2.31962L86.597 23.0596C84.923 24.0261 82.7824 23.4526 81.8159 21.7785ZM99.3668 55.1777L21.4245 100.178C20.3245 100.813 19.9476 102.22 20.5827 103.32C21.2178 104.42 22.6245 104.797 23.7245 104.161L101.667 59.1614C102.767 58.5263 103.144 57.1197 102.509 56.0196C101.874 54.9195 100.467 54.5426 99.3668 55.1777ZM20.8245 99.1385C19.1505 100.105 18.577 102.246 19.5435 103.92C20.51 105.594 22.6505 106.167 24.3245 105.201L102.267 60.2007C103.941 59.2342 104.514 57.0936 103.548 55.4196C102.581 53.7456 100.441 53.172 98.7668 54.1385L20.8245 99.1385ZM-2.82424 114.178L11.8982 105.678C12.9983 105.043 14.4049 105.42 15.0401 106.52C15.6752 107.62 15.2983 109.026 14.1982 109.661L-0.524234 118.161C-1.62431 118.797 -3.03097 118.42 -3.66609 117.32C-4.30122 116.22 -3.92431 114.813 -2.82424 114.178ZM-4.70532 117.92C-5.67182 116.246 -5.09826 114.105 -3.42423 113.138L11.2982 104.638C12.9722 103.672 15.1128 104.246 16.0793 105.92C17.0458 107.594 16.4722 109.734 14.7982 110.701L0.0757646 119.201C-1.59826 120.167 -3.73882 119.594 -4.70532 117.92ZM153.926 23.6777L108.893 49.6777C107.793 50.3128 107.416 51.7195 108.051 52.8196C108.686 53.9197 110.093 54.2966 111.193 53.6614L156.226 27.6614C157.326 27.0263 157.703 25.6197 157.068 24.5196C156.433 23.4195 155.026 23.0426 153.926 23.6777ZM108.293 48.6385C106.619 49.605 106.045 51.7456 107.012 53.4196C107.978 55.0936 110.119 55.6672 111.793 54.7007L156.826 28.7007C158.5 27.7342 159.074 25.5936 158.107 23.9196C157.141 22.2456 155 21.672 153.326 22.6385L108.293 48.6385ZM-7.82423 105.517L37.2091 79.5174C38.3092 78.8823 39.7158 79.2592 40.3509 80.3593C40.9861 81.4594 40.6092 82.866 39.5091 83.5012L-5.52423 109.501C-6.6243 110.136 -8.03096 109.759 -8.66609 108.659C-9.30122 107.559 -8.92431 106.153 -7.82423 105.517ZM-9.70532 109.259C-10.6718 107.585 -10.0983 105.445 -8.42423 104.478L36.6091 78.4782C38.2831 77.5117 40.4237 78.0853 41.3902 79.7593C42.3567 81.4333 41.7831 83.5739 40.1091 84.5404L-4.92423 110.54C-6.59825 111.507 -8.73882 110.933 -9.70532 109.259ZM64.9219 63.5174L46.7353 74.0174C45.6353 74.6526 45.2584 76.0592 45.8935 77.1593C46.5286 78.2594 47.9353 78.6363 49.0353 78.0012L67.2219 67.5012C68.3219 66.866 68.6989 65.4594 68.0637 64.3593C67.4286 63.2592 66.0219 62.8823 64.9219 63.5174ZM46.1353 72.9782C44.4613 73.9447 43.8877 76.0853 44.8542 77.7593C45.8207 79.4333 47.9613 80.0069 49.6353 79.0404L67.8219 68.5404C69.4959 67.5739 70.0695 65.4333 69.103 63.7593C68.1365 62.0853 65.9959 61.5117 64.3219 62.4782L46.1353 72.9782ZM74.4482 58.0173L146.001 16.7065C147.101 16.0714 148.507 16.4483 149.142 17.5484C149.778 18.6484 149.401 20.0551 148.301 20.6902L76.7482 62.001C75.6482 62.6361 74.2415 62.2592 73.6064 61.1591C72.9712 60.059 73.3481 58.6524 74.4482 58.0173ZM72.5671 61.7591C71.6006 60.0851 72.1742 57.9445 73.8482 56.978L145.401 15.6673C147.075 14.7008 149.215 15.2743 150.182 16.9484C151.148 18.6224 150.575 20.763 148.901 21.7295L77.3482 63.0402C75.6742 64.0067 73.5336 63.4331 72.5671 61.7591ZM27.2091 62.197L-12.5762 85.167C-13.6763 85.8021 -14.0532 87.2088 -13.418 88.3088C-12.7829 89.4089 -11.3763 89.7858 -10.2762 89.1507L29.5091 66.1807C30.6091 65.5455 30.986 64.1389 30.3509 63.0388C29.7158 61.9387 28.3091 61.5618 27.2091 62.197ZM-13.1762 84.1277C-14.8502 85.0942 -15.4238 87.2348 -14.4573 88.9088C-13.4908 90.5829 -11.3502 91.1564 -9.67619 90.1899L30.1091 67.2199C31.7831 66.2534 32.3566 64.1128 31.3901 62.4388C30.4236 60.7648 28.2831 60.1912 26.6091 61.1577L-13.1762 84.1277ZM36.7353 56.6969L67.0462 39.1969C68.1463 38.5618 69.553 38.9387 70.1881 40.0388C70.8232 41.1389 70.4463 42.5455 69.3462 43.1807L39.0353 60.6807C37.9353 61.3158 36.5286 60.9389 35.8935 59.8388C35.2583 58.7387 35.6353 57.3321 36.7353 56.6969ZM34.8542 60.4388C33.8877 58.7648 34.4613 56.6242 36.1353 55.6577L66.4462 38.1577C68.1202 37.1912 70.2608 37.7648 71.2273 39.4388C72.1938 41.1128 71.6202 43.2534 69.9462 44.2199L39.6353 61.7199C37.9613 62.6864 35.8207 62.1128 34.8542 60.4388ZM128.151 3.91811L76.5725 33.6969C75.4724 34.3321 75.0955 35.7387 75.7306 36.8388C76.3658 37.9389 77.7724 38.3158 78.8725 37.6807L130.451 7.90182C131.551 7.26669 131.928 5.86003 131.293 4.75995C130.658 3.65988 129.251 3.28297 128.151 3.91811ZM75.9725 32.6577C74.2985 33.6242 73.7249 35.7648 74.6914 37.4388C75.6579 39.1128 77.7985 39.6864 79.4725 38.7199L131.051 8.94105C132.725 7.97455 133.299 5.83399 132.332 4.15996C131.366 2.48594 129.225 1.91237 127.551 2.87887L75.9725 32.6577ZM10.5583 83.3572L55.5917 57.3572C56.6917 56.7221 58.0984 57.099 58.7335 58.1991C59.3686 59.2992 58.9917 60.7058 57.8917 61.3409L12.8583 87.3409C11.7583 87.9761 10.3516 87.5992 9.71648 86.4991C9.08135 85.399 9.45826 83.9924 10.5583 83.3572ZM8.67725 87.0991C7.71075 85.4251 8.28431 83.2845 9.95833 82.318L54.9917 56.318C56.6657 55.3515 58.8062 55.9251 59.7727 57.5991C60.7392 59.2731 60.1657 61.4137 58.4917 62.3802L13.4583 88.3802C11.7843 89.3467 9.64374 88.7731 8.67725 87.0991ZM96.2951 33.8572L65.1182 51.8572C64.0181 52.4923 63.6412 53.899 64.2763 54.9991C64.9114 56.0992 66.3181 56.4761 67.4182 55.8409L98.5951 37.8409C99.6951 37.2058 100.072 35.7992 99.4369 34.6991C98.8018 33.599 97.3951 33.2221 96.2951 33.8572ZM64.5182 50.818C62.8441 51.7845 62.2706 53.9251 63.2371 55.5991C64.2036 57.2731 66.3441 57.8467 68.0182 56.8802L99.1951 38.8802C100.869 37.9137 101.443 35.7731 100.476 34.0991C99.5097 32.4251 97.3691 31.8515 95.6951 32.818L64.5182 50.818ZM105.821 28.3572L137.606 10.006C138.707 9.37092 140.113 9.74784 140.748 10.8479C141.383 11.948 141.007 13.3546 139.906 13.9898L108.121 32.3409C107.021 32.9761 105.615 32.5992 104.979 31.4991C104.344 30.399 104.721 28.9923 105.821 28.3572ZM103.94 32.0991C102.974 30.4251 103.547 28.2845 105.221 27.318L137.006 8.96682C138.68 8.00032 140.821 8.57388 141.788 10.2479C142.754 11.9219 142.18 14.0625 140.506 15.029L108.721 33.3802C107.047 34.3467 104.907 33.7731 103.94 32.0991ZM1.03217 88.8572L-12.8242 96.8572C-13.9243 97.4924 -14.3012 98.899 -13.6661 99.9991C-13.031 101.099 -11.6243 101.476 -10.5242 100.841L3.33218 92.8409C4.43225 92.2058 4.80916 90.7992 4.17403 89.6991C3.5389 88.599 2.13225 88.2221 1.03217 88.8572ZM-13.4242 95.818C-15.0983 96.7845 -15.6718 98.9251 -14.7053 100.599C-13.7388 102.273 -11.5983 102.847 -9.92423 101.88L3.93217 93.8802C5.6062 92.9137 6.17976 90.7731 5.21326 89.0991C4.24677 87.4251 2.1062 86.8515 0.432174 87.818L-13.4242 95.818ZM56.7353 91.3379L104.367 63.8379C105.467 63.2028 106.873 63.5797 107.509 64.6798C108.144 65.7799 107.767 67.1865 106.667 67.8217L59.0353 95.3217C57.9353 95.9568 56.5286 95.5799 55.8935 94.4798C55.2584 93.3797 55.6353 91.9731 56.7353 91.3379ZM54.8542 95.0798C53.8877 93.4058 54.4613 91.2652 56.1353 90.2987L103.767 62.7987C105.441 61.8322 107.581 62.4058 108.548 64.0798C109.514 65.7538 108.941 67.8944 107.267 68.8609L59.6353 96.3609C57.9613 97.3274 55.8207 96.7538 54.8542 95.0798ZM153.73 35.3379L128.615 49.8379C127.515 50.4731 127.138 51.8797 127.774 52.9798C128.409 54.0799 129.815 54.4568 130.915 53.8217L156.03 39.3217C157.13 38.6865 157.507 37.2799 156.872 36.1798C156.237 35.0797 154.83 34.7028 153.73 35.3379ZM128.015 48.7987C126.341 49.7652 125.768 51.9058 126.734 53.5798C127.701 55.2538 129.841 55.8274 131.515 54.8609L156.63 40.3609C158.304 39.3944 158.878 37.2538 157.911 35.5798C156.945 33.9058 154.804 33.3322 153.13 34.2987L128.015 48.7987ZM2.17576 122.838L47.2091 96.8379C48.3092 96.2028 49.7158 96.5797 50.3509 97.6798C50.9861 98.7799 50.6092 100.187 49.5091 100.822L4.47577 126.822C3.3757 127.457 1.96904 127.08 1.33391 125.98C0.698779 124.88 1.07569 123.473 2.17576 122.838ZM0.294677 126.58C-0.671823 124.906 -0.0982586 122.765 1.57577 121.799L46.6091 95.7987C48.2831 94.8322 50.4237 95.4058 51.3902 97.0798C52.3567 98.7538 51.7831 100.894 50.1091 101.861L5.07577 127.861C3.40174 128.827 1.26118 128.254 0.294677 126.58ZM124.367 98.479L46.4245 143.479C45.3245 144.114 44.9476 145.521 45.5827 146.621C46.2178 147.721 47.6245 148.098 48.7245 147.463L126.667 102.463C127.767 101.828 128.144 100.421 127.509 99.3208C126.874 98.2208 125.467 97.8439 124.367 98.479ZM45.8245 142.44C44.1505 143.406 43.577 145.547 44.5435 147.221C45.51 148.895 47.6505 149.468 49.3245 148.502L127.267 103.502C128.941 102.535 129.514 100.395 128.548 98.7208C127.581 97.0468 125.441 96.4733 123.767 97.4398L45.8245 142.44ZM30.633 152.596L36.8981 148.979C37.9982 148.344 39.4049 148.721 40.04 149.821C40.6751 150.921 40.2982 152.328 39.1982 152.963L32.933 156.58C31.833 157.215 30.4263 156.838 29.7912 155.738C29.1561 154.638 29.533 153.231 30.633 152.596ZM28.752 156.338C27.7855 154.664 28.359 152.524 30.033 151.557L36.2981 147.94C37.9722 146.973 40.1127 147.547 41.0792 149.221C42.0457 150.895 41.4722 153.036 39.7981 154.002L33.533 157.619C31.859 158.586 29.7185 158.012 28.752 156.338ZM165.857 74.5248L133.893 92.9792C132.793 93.6143 132.416 95.021 133.051 96.121C133.686 97.2211 135.093 97.598 136.193 96.9629L168.157 78.5085C169.257 77.8734 169.634 76.4667 168.999 75.3667C168.364 74.2666 166.957 73.8897 165.857 74.5248ZM133.293 91.9399C131.619 92.9064 131.045 95.047 132.012 96.721C132.978 98.3951 135.119 98.9686 136.793 98.0021L168.757 79.5477C170.431 78.5812 171.005 76.4407 170.038 74.7666C169.072 73.0926 166.931 72.5191 165.257 73.4856L133.293 91.9399ZM22.8303 145.554L62.2091 122.819C63.3092 122.183 64.7158 122.56 65.351 123.66C65.9861 124.76 65.6092 126.167 64.5091 126.802L25.1303 149.538C24.0302 150.173 22.6236 149.796 21.9884 148.696C21.3533 147.596 21.7302 146.189 22.8303 145.554ZM20.9492 149.296C19.9827 147.622 20.5563 145.481 22.2303 144.515L61.6091 121.779C63.2831 120.813 65.4237 121.386 66.3902 123.06C67.3567 124.734 66.7831 126.875 65.1091 127.841L25.7303 150.577C24.0563 151.543 21.9157 150.97 20.9492 149.296ZM89.9219 106.819L71.7353 117.319C70.6353 117.954 70.2584 119.36 70.8935 120.461C71.5286 121.561 72.9353 121.938 74.0353 121.302L92.2219 110.802C93.3219 110.167 93.6989 108.761 93.0637 107.661C92.4286 106.56 91.0219 106.184 89.9219 106.819ZM71.1353 116.279C69.4613 117.246 68.8877 119.387 69.8542 121.061C70.8207 122.735 72.9613 123.308 74.6353 122.342L92.8219 111.842C94.4959 110.875 95.0695 108.735 94.103 107.061C93.1365 105.387 90.9959 104.813 89.3219 105.779L71.1353 116.279ZM99.4482 101.319L164.35 63.8475C165.45 63.2124 166.857 63.5893 167.492 64.6894C168.127 65.7895 167.75 67.1961 166.65 67.8312L101.748 105.302C100.648 105.937 99.2415 105.56 98.6064 104.46C97.9712 103.36 98.3481 101.954 99.4482 101.319ZM97.5671 105.06C96.6006 103.386 97.1742 101.246 98.8482 100.279L163.75 62.8083C165.424 61.8418 167.564 62.4154 168.531 64.0894C169.497 65.7634 168.924 67.904 167.25 68.8705L102.348 106.341C100.674 107.308 98.5336 106.734 97.5671 105.06ZM52.2091 105.498L7.17577 131.498C6.07569 132.133 5.69878 133.54 6.33391 134.64C6.96904 135.74 8.3757 136.117 9.47577 135.482L54.5091 109.482C55.6092 108.847 55.9861 107.44 55.3509 106.34C54.7158 105.24 53.3092 104.863 52.2091 105.498ZM6.57577 130.459C4.90174 131.425 4.32818 133.566 5.29468 135.24C6.26118 136.914 8.40174 137.488 10.0758 136.521L55.1091 110.521C56.7831 109.555 57.3567 107.414 56.3902 105.74C55.4237 104.066 53.2831 103.492 51.6091 104.459L6.57577 130.459ZM61.7353 99.9982L92.0462 82.4982C93.1463 81.8631 94.553 82.24 95.1881 83.3401C95.8232 84.4401 95.4463 85.8468 94.3462 86.4819L64.0353 103.982C62.9353 104.617 61.5286 104.24 60.8935 103.14C60.2583 102.04 60.6353 100.633 61.7353 99.9982ZM59.8542 103.74C58.8877 102.066 59.4613 99.9255 61.1353 98.959L91.4462 81.459C93.1202 80.4925 95.2608 81.066 96.2273 82.7401C97.1938 84.4141 96.6202 86.5547 94.9462 87.5212L64.6353 105.021C62.9613 105.988 60.8207 105.414 59.8542 103.74ZM161.328 42.4982L101.572 76.9982C100.472 77.6333 100.096 79.04 100.731 80.1401C101.366 81.2401 102.772 81.6171 103.872 80.9819L163.628 46.4819C164.728 45.8468 165.105 44.4401 164.47 43.3401C163.835 42.24 162.428 41.8631 161.328 42.4982ZM100.972 75.959C99.2985 76.9255 98.7249 79.066 99.6914 80.7401C100.658 82.4141 102.798 82.9877 104.472 82.0212L164.228 47.5212C165.902 46.5547 166.476 44.4141 165.509 42.7401C164.543 41.066 162.402 40.4925 160.728 41.459L100.972 75.959ZM35.5583 126.658L80.5917 100.658C81.6917 100.023 83.0984 100.4 83.7335 101.5C84.3686 102.6 83.9917 104.007 82.8917 104.642L37.8583 130.642C36.7583 131.277 35.3516 130.9 34.7165 129.8C34.0813 128.7 34.4583 127.294 35.5583 126.658ZM33.6772 130.4C32.7107 128.726 33.2843 126.586 34.9583 125.619L79.9917 99.6193C81.6657 98.6528 83.8062 99.2263 84.7727 100.9C85.7392 102.574 85.1657 104.715 83.4917 105.681L38.4583 131.681C36.7843 132.648 34.6437 132.074 33.6772 130.4ZM121.295 77.1585L90.1181 95.1585C89.0181 95.7936 88.6412 97.2003 89.2763 98.3004C89.9114 99.4004 91.3181 99.7773 92.4181 99.1422L123.595 81.1422C124.695 80.5071 125.072 79.1004 124.437 78.0004C123.802 76.9003 122.395 76.5234 121.295 77.1585ZM89.5181 94.1193C87.8441 95.0858 87.2706 97.2263 88.2371 98.9004C89.2036 100.574 91.3441 101.148 93.0181 100.181L124.195 82.1814C125.869 81.2149 126.443 79.0744 125.476 77.4004C124.51 75.7263 122.369 75.1528 120.695 76.1193L89.5181 94.1193ZM130.821 71.6585L163.73 52.6585C164.83 52.0234 166.237 52.4003 166.872 53.5004C167.507 54.6004 167.13 56.0071 166.03 56.6422L133.121 75.6422C132.021 76.2773 130.615 75.9004 129.979 74.8004C129.344 73.7003 129.721 72.2936 130.821 71.6585ZM128.94 75.4004C127.974 73.7263 128.547 71.5858 130.221 70.6193L163.13 51.6193C164.804 50.6528 166.945 51.2263 167.911 52.9004C168.878 54.5744 168.304 56.7149 166.63 57.6814L133.721 76.6814C132.047 77.6479 129.907 77.0744 128.94 75.4004ZM26.0322 132.158L12.1758 140.158C11.0757 140.794 10.6988 142.2 11.3339 143.3C11.969 144.4 13.3757 144.777 14.4758 144.142L28.3322 136.142C29.4322 135.507 29.8092 134.1 29.174 133C28.5389 131.9 27.1322 131.523 26.0322 132.158ZM11.5758 139.119C9.90174 140.086 9.32818 142.226 10.2947 143.9C11.2612 145.574 13.4017 146.148 15.0758 145.181L28.9322 137.181C30.6062 136.215 31.1798 134.074 30.2133 132.4C29.2468 130.726 27.1062 130.153 25.4322 131.119L11.5758 139.119ZM113.893 58.3379L119.089 55.3379C120.189 54.7028 121.596 55.0797 122.231 56.1798C122.866 57.2799 122.489 58.6865 121.389 59.3217L116.193 62.3217C115.093 62.9568 113.686 62.5799 113.051 61.4798C112.416 60.3797 112.793 58.9731 113.893 58.3379ZM112.012 62.0798C111.045 60.4058 111.619 58.2652 113.293 57.2987L118.489 54.2987C120.163 53.3322 122.304 53.9058 123.27 55.5798C124.237 57.2538 123.663 59.3944 121.989 60.3609L116.793 63.3609C115.119 64.3274 112.978 63.7538 112.012 62.0798ZM74.8071 138.639L41.6599 157.777C40.5598 158.412 40.1829 159.819 40.818 160.919C41.4532 162.019 42.8598 162.396 43.9599 161.761L77.1071 142.623C78.2072 141.988 78.5841 140.581 77.9489 139.481C77.3138 138.381 75.9072 138.004 74.8071 138.639ZM41.0599 156.738C39.3859 157.704 38.8123 159.845 39.7788 161.519C40.7453 163.193 42.8859 163.766 44.5599 162.8L77.7071 143.662C79.3811 142.696 79.9547 140.555 78.9882 138.881C78.0217 137.207 75.8811 136.634 74.2071 137.6L41.0599 156.738ZM99.0559 124.639L124.171 110.139C125.271 109.504 126.677 109.881 127.312 110.981C127.948 112.081 127.571 113.488 126.471 114.123L101.356 128.623C100.256 129.258 98.8492 128.881 98.214 127.781C97.5789 126.681 97.9558 125.274 99.0559 124.639ZM97.1748 128.381C96.2083 126.707 96.7819 124.566 98.4559 123.6L123.571 109.1C125.245 108.133 127.385 108.707 128.352 110.381C129.318 112.055 128.745 114.196 127.071 115.162L101.956 129.662C100.282 130.629 98.1413 130.055 97.1748 128.381ZM163.944 87.1759L133.697 104.639C132.597 105.274 132.22 106.681 132.855 107.781C133.49 108.881 134.897 109.258 135.997 108.623L166.244 91.1596C167.344 90.5245 167.721 89.1178 167.086 88.0178C166.451 86.9177 165.044 86.5408 163.944 87.1759ZM133.097 103.6C131.423 104.566 130.849 106.707 131.816 108.381C132.782 110.055 134.923 110.629 136.597 109.662L166.844 92.1988C168.518 91.2323 169.092 89.0918 168.125 87.4178C167.159 85.7437 165.018 85.1702 163.344 86.1367L133.097 103.6ZM96.7353 160.62L114.922 150.12C116.022 149.485 117.429 149.862 118.064 150.962C118.699 152.062 118.322 153.469 117.222 154.104L99.0353 164.604C97.9353 165.239 96.5286 164.862 95.8935 163.762C95.2584 162.662 95.6353 161.255 96.7353 160.62ZM94.8542 164.362C93.8877 162.688 94.4613 160.547 96.1353 159.581L114.322 149.081C115.996 148.114 118.136 148.688 119.103 150.362C120.069 152.036 119.496 154.176 117.822 155.143L99.6353 165.643C97.9613 166.609 95.8207 166.036 94.8542 164.362ZM152.059 128.679L124.448 144.62C123.348 145.255 122.971 146.662 123.606 147.762C124.241 148.862 125.648 149.239 126.748 148.604L154.359 132.662C155.459 132.027 155.836 130.621 155.201 129.521C154.566 128.42 153.159 128.044 152.059 128.679ZM123.848 143.581C122.174 144.547 121.601 146.688 122.567 148.362C123.534 150.036 125.674 150.609 127.348 149.643L154.959 133.702C156.633 132.735 157.207 130.595 156.24 128.921C155.274 127.247 153.133 126.673 151.459 127.639L123.848 143.581ZM54.7861 161.745L77.2091 148.8C78.3091 148.164 79.7158 148.541 80.3509 149.641C80.9861 150.741 80.6092 152.148 79.5091 152.783L57.0861 165.729C55.986 166.364 54.5794 165.987 53.9443 164.887C53.3091 163.787 53.686 162.381 54.7861 161.745ZM52.905 165.487C51.9385 163.813 52.5121 161.673 54.1861 160.706L76.6091 147.76C78.2831 146.794 80.4237 147.367 81.3902 149.041C82.3567 150.715 81.7831 152.856 80.1091 153.822L57.6861 166.768C56.0121 167.735 53.8715 167.161 52.905 165.487ZM117.046 125.799L86.7353 143.299C85.6353 143.935 85.2584 145.341 85.8935 146.441C86.5286 147.541 87.9353 147.918 89.0353 147.283L119.346 129.783C120.446 129.148 120.823 127.741 120.188 126.641C119.553 125.541 118.146 125.164 117.046 125.799ZM86.1353 142.26C84.4613 143.227 83.8877 145.367 84.8542 147.041C85.8207 148.715 87.9613 149.289 89.6353 148.322L119.946 130.822C121.62 129.856 122.194 127.715 121.227 126.041C120.261 124.367 118.12 123.794 116.446 124.76L86.1353 142.26ZM126.572 120.299L161.786 99.969C162.886 99.3338 164.293 99.7108 164.928 100.811C165.563 101.911 165.186 103.318 164.086 103.953L128.873 124.283C127.772 124.918 126.366 124.541 125.731 123.441C125.096 122.341 125.472 120.935 126.572 120.299ZM124.691 124.041C123.725 122.367 124.298 120.227 125.972 119.26L161.186 98.9297C162.86 97.9632 165.001 98.5368 165.967 100.211C166.934 101.885 166.36 104.025 164.686 104.992L129.472 125.322C127.798 126.289 125.658 125.715 124.691 124.041ZM105.592 143.96L68.237 165.526C67.137 166.162 66.7601 167.568 67.3952 168.668C68.0303 169.768 69.437 170.145 70.537 169.51L107.892 147.943C108.992 147.308 109.369 145.902 108.734 144.802C108.099 143.701 106.692 143.325 105.592 143.96ZM67.637 164.487C65.963 165.454 65.3895 167.594 66.356 169.268C67.3225 170.942 69.463 171.516 71.137 170.549L108.492 148.983C110.166 148.016 110.739 145.876 109.773 144.202C108.806 142.527 106.666 141.954 104.992 142.92L67.637 164.487ZM115.118 138.46L146.295 120.46C147.395 119.825 148.802 120.202 149.437 121.302C150.072 122.402 149.695 123.808 148.595 124.443L117.418 142.443C116.318 143.079 114.911 142.702 114.276 141.602C113.641 140.502 114.018 139.095 115.118 138.46ZM113.237 142.202C112.271 140.528 112.844 138.387 114.518 137.421L145.695 119.421C147.369 118.454 149.51 119.028 150.476 120.702C151.443 122.376 150.869 124.516 149.195 125.483L118.018 143.483C116.344 144.449 114.204 143.876 113.237 142.202ZM159.67 112.738L155.821 114.96C154.721 115.595 154.344 117.002 154.979 118.102C155.615 119.202 157.021 119.579 158.121 118.943L161.97 116.721C163.07 116.086 163.447 114.679 162.812 113.579C162.177 112.479 160.77 112.102 159.67 112.738ZM155.221 113.921C153.547 114.887 152.974 117.028 153.94 118.702C154.907 120.376 157.047 120.949 158.721 119.983L162.57 117.76C164.244 116.794 164.818 114.653 163.851 112.979C162.885 111.305 160.744 110.732 159.07 111.698L155.221 113.921ZM84.3335 133.139L89.5296 130.139C90.6297 129.504 92.0364 129.881 92.6715 130.981C93.3066 132.081 92.9297 133.488 91.8296 134.123L86.6335 137.123C85.5334 137.758 84.1267 137.381 83.4916 136.281C82.8565 135.181 83.2334 133.774 84.3335 133.139ZM82.4524 136.881C81.4859 135.207 82.0595 133.066 83.7335 132.1L88.9296 129.1C90.6037 128.133 92.7442 128.707 93.7107 130.381C94.6772 132.055 94.1037 134.196 92.4296 135.162L87.2335 138.162C85.5595 139.129 83.4189 138.555 82.4524 136.881Z" fill="white"/>
</g>
<path d="M80.5742 71.668C79.2207 71.668 78.1719 72.7168 78.1719 74.0117C78.1719 75.3066 79.2207 76.3555 80.5742 76.3555C81.8105 76.3555 82.8594 75.3066 82.8594 74.0117C82.8594 72.7168 81.8105 71.668 80.5742 71.668ZM64.168 71.668C62.8145 71.668 61.7656 72.7168 61.7656 74.0117C61.7656 75.3066 62.8145 76.3555 64.168 76.3555C65.4043 76.3555 66.4531 75.3066 66.4531 74.0117C66.4531 72.7168 65.4043 71.668 64.168 71.668Z" fill="black"/>
<path d="M99.3827 67.215C96.5644 63.3478 92.6269 60.7639 88.3085 59.5978V59.6037C87.3066 58.4904 86.1757 57.465 84.9101 56.551C75.3183 49.5783 61.8535 51.7053 54.8515 61.2971C49.2089 69.09 49.4492 79.5724 55.2031 87.0197L55.2499 94.7892C55.2499 94.9767 55.2792 95.1642 55.3378 95.34C55.6484 96.3303 56.7031 96.8752 57.6874 96.5646L65.1054 94.2267C67.0683 94.924 69.0956 95.3224 71.1113 95.4338L71.082 95.4572C76.3027 99.26 83.1464 100.403 89.4218 98.3283L96.8691 100.754C97.0566 100.813 97.2499 100.848 97.4491 100.848C98.4863 100.848 99.3241 100.01 99.3241 98.9728V91.1213C104.486 84.1135 104.621 74.4279 99.3827 67.215ZM65.9257 90.0666L65.2226 89.7736L59.4218 91.59L59.3632 85.4963L58.8945 84.9689C53.9374 78.9221 53.6093 70.2092 58.2499 63.8166C63.8984 56.0705 74.7265 54.3596 82.4492 59.9494C90.1952 65.5803 91.912 76.3908 86.3163 84.09C81.623 90.5295 73.2206 92.9084 65.9257 90.0666ZM95.5156 89.0705L95.0468 89.6564L95.1054 95.7502L89.3632 93.8166L88.6601 94.1096C85.3788 95.3283 81.8808 95.4279 78.6406 94.5197L78.6288 94.5139C82.9589 93.1838 86.8847 90.4885 89.7148 86.6096C94.1913 80.4396 94.9179 72.6877 92.3163 66.0783L92.3515 66.1017C93.6992 67.0685 94.9355 68.2756 95.9843 69.7346C100.238 75.5705 99.998 83.5158 95.5156 89.0705Z" fill="black"/>
<path d="M72.3711 71.668C71.0176 71.668 69.9688 72.7168 69.9688 74.0117C69.9688 75.3066 71.0176 76.3555 72.3711 76.3555C73.6074 76.3555 74.6562 75.3066 74.6562 74.0117C74.6562 72.7168 73.6074 71.668 72.3711 71.668Z" fill="black"/>
<circle cx="76.5" cy="76.5" r="74.5" stroke="#DBE3F5" stroke-width="4"/>
</svg>
