<svg width="61" height="60" viewBox="0 0 61 60" fill="none" xmlns="http://www.w3.org/2000/svg">
<rect x="1" y="0.5" width="59" height="59" rx="29.5" fill="white"/>
<rect x="1" y="0.5" width="59" height="59" rx="29.5" stroke="#DBE3F5"/>
<g clip-path="url(#clip0_16_272)">
<path d="M40.1052 23.5226C39.7821 23.6659 39.4498 23.7869 39.1103 23.8851C39.5123 23.4305 39.8187 22.8957 40.0058 22.3104C40.0477 22.1792 40.0043 22.0356 39.8964 21.9498C39.7887 21.8639 39.6391 21.8536 39.5205 21.9239C38.7995 22.3515 38.0216 22.6588 37.206 22.8385C36.3844 22.0357 35.2685 21.5788 34.1149 21.5788C31.6799 21.5788 29.6988 23.5599 29.6988 25.9948C29.6988 26.1866 29.7109 26.3773 29.7349 26.5654C26.7133 26.3001 23.9041 24.8149 21.975 22.4486C21.9063 22.3643 21.8003 22.3188 21.6919 22.3275C21.5834 22.336 21.4859 22.3972 21.4311 22.4912C21.0399 23.1626 20.833 23.9304 20.833 24.7117C20.833 25.7757 21.2129 26.7853 21.884 27.5742C21.68 27.5035 21.482 27.4152 21.293 27.3103C21.1915 27.2538 21.0677 27.2547 20.9669 27.3125C20.866 27.3703 20.8028 27.4766 20.8001 27.5928C20.7996 27.6124 20.7996 27.6319 20.7996 27.6518C20.7996 29.2401 21.6545 30.6701 22.9614 31.4495C22.8492 31.4382 22.7369 31.422 22.6255 31.4007C22.5105 31.3787 22.3923 31.419 22.3148 31.5067C22.2372 31.5943 22.2115 31.7164 22.2473 31.8278C22.731 33.3382 23.9765 34.4491 25.4822 34.7878C24.2334 35.57 22.8053 35.9797 21.3061 35.9797C20.9933 35.9797 20.6787 35.9613 20.3708 35.9249C20.2178 35.9067 20.0715 35.997 20.0195 36.1425C19.9674 36.288 20.0226 36.4502 20.1527 36.5337C22.0787 37.7685 24.3056 38.4213 26.5927 38.4213C31.0888 38.4213 33.9014 36.3011 35.4692 34.5224C37.4241 32.3046 38.5453 29.3691 38.5453 26.4686C38.5453 26.3474 38.5435 26.225 38.5398 26.1031C39.3111 25.522 39.9751 24.8187 40.5155 24.0104C40.5976 23.8876 40.5887 23.7254 40.4936 23.6123C40.3986 23.4993 40.2404 23.4627 40.1052 23.5226Z" fill="#55ACEE"/>
</g>
<defs>
<clipPath id="clip0_16_272">
<rect width="20.5715" height="18" fill="white" transform="translate(20 21)"/>
</clipPath>
</defs>
</svg>
