<svg width="50" height="50" viewBox="0 0 50 50" fill="none" xmlns="http://www.w3.org/2000/svg">
<rect x="0.5" y="0.5" width="49" height="49" rx="24.5" stroke="#DBE3F5"/>
<path d="M31.6666 20.8333H18.3333C17.4128 20.8333 16.6666 21.5794 16.6666 22.4999V30.8333C16.6666 31.7537 17.4128 32.4999 18.3333 32.4999H31.6666C32.5871 32.4999 33.3333 31.7537 33.3333 30.8333V22.4999C33.3333 21.5794 32.5871 20.8333 31.6666 20.8333Z" stroke="#626262" stroke-width="1.5" stroke-linecap="round" stroke-linejoin="round"/>
<path d="M28.3333 32.5V19.1667C28.3333 18.7246 28.1577 18.3007 27.8451 17.9882C27.5326 17.6756 27.1087 17.5 26.6666 17.5H23.3333C22.8913 17.5 22.4673 17.6756 22.1548 17.9882C21.8422 18.3007 21.6666 18.7246 21.6666 19.1667V32.5" stroke="#626262" stroke-width="1.5" stroke-linecap="round" stroke-linejoin="round"/>
</svg>
